<?xml version="1.0" encoding="iso-8859-1"?>
<!-- Generator: Adobe Illustrator 20.1.0, SVG Export Plug-In . SVG Version: 6.00 Build 0)  -->
<svg version="1.1" id="Capa_1" xmlns="http://www.w3.org/2000/svg" xmlns:xlink="http://www.w3.org/1999/xlink" x="0px" y="0px"
	 viewBox="57.14 128.445 481 586" style="enable-background:new 57.14 128.445 481 586;" xml:space="preserve">
<path d="M509.449,495.901c-10.855,0-19.687,8.831-19.687,19.686c0,37.033-16.716,72.798-47.069,100.708
	c-29.464,27.094-69.978,45.169-114.08,50.897l-11.288,1.466V409.866h78.127l2.955,4.569c8.345,12.9,22.425,20.602,37.666,20.602
	c24.734,0,44.857-20.123,44.857-44.858c0-24.735-20.123-44.858-44.857-44.858c-15.243,0-29.323,7.702-37.665,20.602l-2.955,4.57
	h-78.128l-0.007-66.613c-0.017-0.243-0.032-0.486-0.042-0.732l-0.296-7.457l7.065-2.405c33.359-11.358,55.772-42.623,55.772-77.801
	c0.003-21.912-8.555-42.537-24.097-58.079c-15.541-15.542-36.168-24.101-58.08-24.101c-45.317,0-82.184,36.866-82.184,82.18
	c0,35.176,22.413,66.442,55.773,77.801l7.065,2.405L278,303.148c-0.01,0.24-0.024,0.479-0.041,0.717l-0.007,0.109v66.519h-78.125
	l-2.955-4.569c-8.344-12.901-22.424-20.603-37.663-20.603c-24.734,0-44.857,20.123-44.857,44.858
	c0,24.735,20.123,44.858,44.857,44.858c15.241,0,29.32-7.701,37.663-20.601l2.955-4.57h78.128v258.79l-11.288-1.466
	c-44.1-5.729-84.615-23.804-114.079-50.897c-30.354-27.91-47.071-63.676-47.071-100.708c0-10.855-8.832-19.686-19.687-19.686
	s-19.687,8.831-19.687,19.686c0,106.421,103.85,193,231.498,193c127.648,0,231.498-86.579,231.498-193
	C529.138,504.732,520.305,495.901,509.449,495.901z M254.835,215.485c0-23.604,19.203-42.807,42.807-42.807
	c23.605,0,42.809,19.203,42.809,42.807c0,23.605-19.204,42.81-42.809,42.81C274.038,258.295,254.835,239.09,254.835,215.485z"/>
</svg>
