<?xml version="1.0" encoding="iso-8859-1"?>
<!-- Generator: Adobe Illustrator 20.1.0, SVG Export Plug-In . SVG Version: 6.00 Build 0)  -->
<svg version="1.1"  xmlns="http://www.w3.org/2000/svg" xmlns:xlink="http://www.w3.org/1999/xlink" x="0px" y="0px"
	 viewBox="0 38.555 153.07 159.5">
<g>
	<g>
		<path d="M126.173,196.09c-9.729,0-17.646-7.916-17.646-17.646c0-2.853,0.691-5.652,2.007-8.151H74.052
			c1.313,2.473,2.003,5.272,2.003,8.151c0,9.729-7.915,17.646-17.645,17.646c-9.729,0-17.645-7.916-17.645-17.646
			c0-2.924,0.744-5.82,2.158-8.423c-8.509-1.458-14.836-8.894-14.836-17.594V59.704L7.818,51.15
			c-2.411-1.014-3.547-3.806-2.532-6.223c0.743-1.767,2.459-2.908,4.372-2.908c0.636,0,1.259,0.126,1.851,0.375l23.186,9.753
			l0.509,0.237l0.019,0.018c0.018,0.01,0.039,0.023,0.061,0.04c0.072,0.041,0.162,0.1,0.252,0.161l0.113,0.091
			c0.051,0.038,0.101,0.077,0.151,0.128c0.038,0.018,0.089,0.057,0.124,0.092c0.055,0.025,0.144,0.111,0.223,0.192l-0.262,0.444
			L36.24,53.2l0.339,0.338l0.038,0.076c0.057,0.072,0.096,0.13,0.124,0.186c0.042,0.064,0.067,0.104,0.093,0.154
			c0.023,0.036,0.041,0.064,0.056,0.09c0.057,0.066,0.097,0.13,0.126,0.185l0.029,0.029l0.063,0.162
			c0.086,0.13,0.126,0.218,0.162,0.326l0.026,0.077v0.017c0.007,0.021,0.013,0.045,0.019,0.07l0.107,0.321v0.082
			c0-0.006,0.002-0.009,0.003-0.009c0.005,0,0.015,0.027,0.021,0.069c0.012,0.045,0.021,0.086,0.029,0.126l0.025,0.077
			c0,0,0.035,0.268,0.04,0.313c0.023,0.067,0.033,0.126,0.037,0.178c0.033,0.167,0.033,0.338,0.033,0.504v14.476l106.53,14.704
			l0.06,0.019c0.074,0.001,0.157,0.007,0.256,0.031c0,0,0.123,0.031,0.124,0.031c0.152,0,0.335,0.081,0.405,0.115
			c0.037,0.005,0.109,0.023,0.188,0.063l0.641,0.321l0.058,0.058l0.192,0.111c0.079,0.043,0.139,0.083,0.195,0.125l0.072,0.036
			l0.151,0.133l0.076,0.037l0.009,0.031l0.153,0.154c0.04,0.028,0.148,0.111,0.22,0.256c0.001-0.002,0.002-0.002,0.003-0.002
			c0.016,0,0.076,0.065,0.123,0.159l0.03,0.03l0.002-0.002c0.075,0.075,0.152,0.152,0.22,0.287c0.059,0.077,0.098,0.135,0.126,0.192
			c0.04,0.058,0.066,0.098,0.094,0.152l0.071,0.143c0.048,0.066,0.082,0.135,0.114,0.199c0.052,0.135,0.074,0.179,0.096,0.223
			c0.042,0.081,0.061,0.156,0.072,0.201c0.033,0.072,0.052,0.145,0.063,0.189c0.041,0.119,0.053,0.17,0.063,0.217l0.052,0.104
			l-0.006,0.114c0.013,0.02,0.031,0.096,0.031,0.188c0.008,0.031,0.017,0.064,0.022,0.101c0.041,0.126,0.041,0.236,0.041,0.309
			v35.863c0,9.851-8.015,17.865-17.865,17.865H45.952c-2.93,0-5.806-0.704-8.372-2.043v10.666c0,4.616,3.755,8.372,8.372,8.372
			h80.221c9.73,0,17.646,7.915,17.646,17.645C143.818,188.174,135.902,196.09,126.173,196.09z M126.204,170.262
			c-4.495,0-8.151,3.656-8.151,8.151s3.656,8.151,8.151,8.151c4.495,0,8.151-3.656,8.151-8.151S130.699,170.262,126.204,170.262z
			 M58.441,170.262c-4.495,0-8.151,3.656-8.151,8.151s3.657,8.151,8.151,8.151c4.495,0,8.151-3.656,8.151-8.151
			S62.936,170.262,58.441,170.262z M37.581,125.94c0,4.616,3.755,8.371,8.372,8.371h84.342c4.616,0,8.372-3.77,8.372-8.402v-31.37
			L37.581,80.614V125.94z"/>
		<path d="M9.658,42.52c0.553,0,1.115,0.108,1.657,0.336l23.186,9.753c0.126,0.063,0.283,0.126,0.409,0.189
			c0.032,0.031,0.063,0.031,0.095,0.063c0.063,0.032,0.157,0.095,0.251,0.158c0.063,0.063,0.126,0.094,0.189,0.157
			c0.031,0.031,0.094,0.063,0.125,0.094c0.095,0.063,0.158,0.126,0.22,0.189c0.032,0.031,0.063,0.063,0.095,0.094
			c0.063,0.063,0.125,0.126,0.188,0.188c0.032,0.032,0.063,0.063,0.095,0.095c0.031,0.063,0.094,0.126,0.125,0.188
			c0.032,0.063,0.063,0.095,0.095,0.157c0.031,0.064,0.063,0.095,0.094,0.158c0.063,0.063,0.094,0.125,0.126,0.188
			c0.031,0.031,0.031,0.094,0.063,0.126c0.063,0.094,0.095,0.157,0.126,0.251c0,0.032,0.032,0.095,0.032,0.126
			c0.031,0.095,0.063,0.189,0.094,0.283c0,0.063,0.031,0.095,0.031,0.157c0.032,0.095,0.032,0.157,0.063,0.252
			c0,0.095,0.032,0.188,0.032,0.283c0.031,0.063,0.031,0.095,0.031,0.126c0.031,0.126,0.031,0.283,0.031,0.44v14.911L144.01,86.239
			c0.064,0,0.095,0.031,0.126,0.031c0.095,0,0.157,0,0.252,0.031c0.031,0,0.095,0.031,0.157,0.031s0.157,0.032,0.221,0.063
			c0.063,0.031,0.125,0.031,0.188,0.063c0.063,0.031,0.126,0.063,0.188,0.095c0.063,0.031,0.126,0.063,0.189,0.094
			c0.063,0.032,0.125,0.063,0.188,0.095c0.064,0.063,0.127,0.095,0.189,0.126c0.063,0.031,0.094,0.062,0.157,0.095
			c0.063,0.031,0.126,0.094,0.188,0.125c0.063,0.032,0.095,0.095,0.158,0.126c0.063,0.063,0.094,0.095,0.156,0.157
			c0.031,0.032,0.095,0.063,0.126,0.126c0.032,0.063,0.095,0.095,0.126,0.157c0.031,0.063,0.095,0.095,0.126,0.157
			c0.063,0.063,0.095,0.095,0.126,0.157c0.031,0.063,0.094,0.126,0.125,0.189c0.032,0.063,0.064,0.094,0.096,0.157
			c0.031,0.063,0.063,0.126,0.094,0.188c0.031,0.031,0.063,0.095,0.094,0.157c0.032,0.095,0.064,0.157,0.095,0.221
			c0.032,0.063,0.032,0.126,0.064,0.188c0.031,0.063,0.031,0.126,0.063,0.188c0.031,0.095,0.031,0.157,0.063,0.221
			c0,0.063,0.031,0.126,0.031,0.188s0.032,0.157,0.032,0.221c0.031,0.063,0.031,0.125,0.031,0.189c0,0.094,0,0.157,0,0.252
			c0,0.031,0,0.094,0,0.125v35.486c0,9.563-7.802,17.365-17.365,17.365H45.952c-3.24,0-6.292-0.881-8.872-2.391v11.514
			c0,4.876,3.964,8.872,8.872,8.872h80.221c9.438,0,17.146,7.707,17.146,17.145c0,9.438-7.708,17.146-17.146,17.146
			c-9.438,0-17.146-7.676-17.146-17.146c0-3.146,0.85-6.103,2.359-8.651H73.196c1.51,2.518,2.359,5.506,2.359,8.651
			c0,9.438-7.707,17.146-17.145,17.146c-9.438,0-17.145-7.676-17.145-17.146c0-3.209,0.912-6.229,2.454-8.809
			c-8.525-1.101-15.132-8.4-15.132-17.208v-26.426v-20.92V81.677v-3.052V59.372L8.012,50.69c-2.17-0.913-3.177-3.397-2.265-5.568
			C6.432,43.493,8.001,42.52,9.658,42.52 M45.952,134.811h84.342c4.876,0,8.872-3.964,8.872-8.902V94.103L37.081,80.04v1.573v23.406
			v20.92C37.081,130.816,41.044,134.811,45.952,134.811 M126.204,187.065c4.751,0,8.651-3.869,8.651-8.651
			c0-4.781-3.9-8.651-8.651-8.651c-4.75,0-8.651,3.901-8.651,8.651S121.454,187.065,126.204,187.065 M58.441,187.065
			c4.75,0,8.651-3.869,8.651-8.651c0-4.781-3.901-8.651-8.651-8.651c-4.75,0-8.651,3.901-8.651,8.651S53.691,187.065,58.441,187.065
			 M9.658,41.52L9.658,41.52c-2.115,0-4.012,1.261-4.833,3.214c-1.122,2.671,0.134,5.756,2.799,6.878l19.962,8.424v18.589v3.052
			v23.405v20.92v26.426c0,8.714,6.175,16.195,14.583,17.959c-1.25,2.517-1.905,5.275-1.905,8.058
			c0,10.006,8.14,18.146,18.145,18.146s18.145-8.14,18.145-18.146c0-2.679-0.581-5.293-1.694-7.651h34.866
			c-1.116,2.38-1.7,4.993-1.7,7.651c0,10.006,8.14,18.146,18.146,18.146s18.146-8.14,18.146-18.146
			c0-10.005-8.14-18.145-18.146-18.145H45.952c-4.34,0-7.872-3.531-7.872-7.872v-9.861c2.446,1.141,5.136,1.738,7.872,1.738h84.342
			c10.127,0,18.365-8.238,18.365-18.365V90.453v-0.125v-0.252c0-0.085,0-0.237-0.052-0.419c-0.005-0.029-0.011-0.054-0.015-0.076
			c-0.006-0.077-0.018-0.143-0.028-0.192v-0.145l-0.067-0.136c-0.013-0.054-0.026-0.106-0.046-0.165l-0.021-0.066
			c-0.013-0.048-0.031-0.109-0.059-0.177c-0.019-0.069-0.049-0.169-0.106-0.279c-0.008-0.017-0.022-0.044-0.037-0.085l-0.021-0.064
			l-0.03-0.061c-0.033-0.065-0.074-0.149-0.133-0.236l-0.007-0.013l-0.048-0.097c-0.041-0.08-0.076-0.136-0.114-0.191
			c-0.02-0.042-0.074-0.127-0.135-0.208c-0.072-0.13-0.148-0.223-0.216-0.294c-0.032-0.041-0.063-0.076-0.088-0.103
			c-0.044-0.066-0.088-0.117-0.123-0.155c-0.097-0.142-0.206-0.236-0.27-0.286l-0.117-0.119l-0.119-0.121l-0.046-0.023
			c-0.051-0.044-0.118-0.096-0.201-0.144c-0.078-0.058-0.148-0.104-0.217-0.141c-0.057-0.038-0.106-0.069-0.168-0.101l-0.063-0.063
			l-0.146-0.073l-0.177-0.089l-0.2-0.1l-0.092-0.046l-0.097-0.049c-0.11-0.054-0.206-0.082-0.267-0.099
			c-0.115-0.05-0.279-0.107-0.463-0.126c-0.018-0.004-0.036-0.009-0.058-0.014c-0.122-0.033-0.229-0.046-0.318-0.052
			c-0.056-0.014-0.119-0.025-0.189-0.031L38.112,70.612v-14.04c0-0.166,0-0.366-0.038-0.572c-0.006-0.063-0.018-0.136-0.042-0.216
			c-0.004-0.028-0.008-0.057-0.013-0.086c0-0.003-0.001-0.004-0.001-0.004c0,0,0,0.002,0,0.007v-0.139l-0.05-0.152
			c-0.009-0.048-0.018-0.093-0.03-0.14c-0.004-0.025-0.009-0.048-0.014-0.069v-0.052l-0.053-0.156l-0.072-0.215
			c0-0.002-0.001-0.004-0.001-0.007v-0.029l-0.051-0.154c-0.051-0.153-0.109-0.278-0.195-0.415c-0.019-0.046-0.046-0.101-0.082-0.16
			c-0.038-0.071-0.092-0.163-0.171-0.262c-0.009-0.015-0.019-0.029-0.028-0.043c-0.026-0.052-0.061-0.107-0.097-0.161
			c-0.024-0.05-0.076-0.129-0.133-0.206l-0.049-0.101l-0.121-0.119l-0.084-0.084l-0.191-0.191l-0.053-0.052l-0.05-0.05
			c-0.075-0.076-0.177-0.175-0.323-0.278c-0.026-0.02-0.053-0.041-0.082-0.06c-0.046-0.041-0.093-0.078-0.14-0.113l-0.067-0.066
			l-0.066-0.04c-0.089-0.06-0.18-0.118-0.256-0.164c-0.008-0.006-0.017-0.012-0.026-0.018l-0.034-0.034l-0.143-0.071
			c-0.075-0.038-0.16-0.076-0.245-0.114c-0.057-0.025-0.114-0.05-0.165-0.076l-0.028-0.014l-0.029-0.012l-23.186-9.753
			C11.049,41.659,10.361,41.52,9.658,41.52L9.658,41.52L9.658,41.52z M45.952,133.811c-4.34,0-7.872-3.531-7.872-7.871v-20.92
			V81.614v-0.426l100.085,13.787v30.934c0,4.357-3.531,7.902-7.872,7.902H45.952L45.952,133.811z M126.204,186.065
			c-4.219,0-7.651-3.433-7.651-7.651c0-4.219,3.433-7.651,7.651-7.651c4.219,0,7.651,3.433,7.651,7.651
			C133.855,182.632,130.423,186.065,126.204,186.065L126.204,186.065z M58.441,186.065c-4.219,0-7.651-3.433-7.651-7.651
			c0-4.219,3.433-7.651,7.651-7.651c4.219,0,7.651,3.433,7.651,7.651C66.093,182.632,62.66,186.065,58.441,186.065L58.441,186.065z"
			/>
	</g>
</g>
</svg>
