<?xml version="1.0" encoding="iso-8859-1"?>
<!-- Generator: Adobe Illustrator 20.1.0, SVG Export Plug-In . SVG Version: 6.00 Build 0)  -->
<svg version="1.1"  xmlns="http://www.w3.org/2000/svg" xmlns:xlink="http://www.w3.org/1999/xlink"
	 viewBox="0 121.445 595.279 597"  xml:space="preserve" width="100%" height="100%">
<g>
	<g>
		<g>
			<path d="M105.359,713.955c-6.814,0-12.357-5.544-12.357-12.358V650.01c0-3.301,1.285-6.404,3.619-8.739l46.26-46.259
				c-16.289-17.657-27.138-37.475-32.252-58.917c-0.28-0.234-0.553-0.482-0.817-0.746l-32.005-32.005l-43.729,43.729
				c-2.332,2.334-5.436,3.619-8.738,3.619c-3.301,0-6.404-1.285-8.738-3.619c-4.818-4.819-4.818-12.66,0-17.479l52.466-52.466
				c2.335-2.334,5.438-3.619,8.738-3.619c3.301,0,6.404,1.285,8.739,3.619l21.244,21.245c1.412-16.647,6.319-32.793,14.595-48.01
				L68.61,396.587c-0.108-0.108-0.215-0.219-0.319-0.333c-5.002-5.118-8.325-11.565-9.6-18.633l-12.412-68.829
				c-9.778-4.933-18.471-12.286-25.842-21.859C6.936,269.397-0.5,246.257-0.5,221.777c0-24.478,7.435-47.619,20.936-65.157
				c14.24-18.499,33.47-28.687,54.147-28.687c13.811,0,27.306,4.699,39.027,13.589c3.626,2.749,5.445,7.251,4.745,11.749
				c-0.699,4.497-3.799,8.233-8.09,9.75c-22.363,7.907-37.981,35.443-37.981,66.963c0,7.785,0.979,15.493,2.913,22.923
				c9.772-5.391,18.395-15.021,23.722-26.52c4.886-10.544,6.809-22.022,5.412-32.319c-0.633-4.67,1.394-9.221,5.291-11.875
				c2.059-1.403,4.464-2.144,6.955-2.144c2.107,0,4.193,0.544,6.033,1.573c26.901,15.046,35.421,53.917,19.396,88.493
				c-5.791,12.497-14.189,23.31-24.296,31.288l9.463,52.478l43.754,43.753c18.032-12.5,38.686-22.108,61.405-28.566l-13.729-28.832
				c-0.133,0.004-0.267,0.008-0.4,0.008c-18.451,0-33.462-15.011-33.462-33.463c0-18.451,15.011-33.462,33.462-33.462
				c18.452,0,33.463,15.011,33.463,33.462c0,9.126-3.614,17.636-10.186,24.005l15.568,32.691c13.275-2.255,26.83-3.399,40.296-3.399
				c13.642,0,27.377,1.175,40.836,3.494l15.613-32.788c-6.571-6.369-10.185-14.879-10.185-24.004
				c0-18.451,15.012-33.462,33.463-33.462c18.451,0,33.462,15.011,33.462,33.462c0,18.451-15.011,33.462-33.462,33.462
				c-0.134,0-0.268-0.004-0.4-0.008l-13.798,28.977c22.676,6.505,43.273,16.145,61.237,28.661l43.992-43.99l9.482-52.579
				c-10.177-8.035-18.58-18.811-24.315-31.185c-16.025-34.575-7.505-73.446,19.397-88.493c1.84-1.029,3.925-1.573,6.032-1.573
				c2.491,0,4.897,0.741,6.955,2.144c3.896,2.65,5.924,7.201,5.29,11.874c-1.394,10.3,0.527,21.778,5.412,32.319
				c5.332,11.5,13.955,21.129,23.726,26.519c1.934-7.426,2.913-15.134,2.913-22.923c0-31.519-15.618-59.055-37.981-66.963
				c-4.291-1.517-7.392-5.253-8.091-9.751c-0.701-4.496,1.116-8.998,4.744-11.749c11.727-8.89,25.223-13.589,39.03-13.589
				c20.677,0,39.907,10.188,54.147,28.687c13.501,17.537,20.937,40.676,20.937,65.156c0,24.479-7.435,47.619-20.938,65.158
				c-7.37,9.573-16.063,16.927-25.843,21.859l-12.411,68.828c-1.273,7.066-4.597,13.514-9.61,18.646
				c-0.094,0.102-0.388,0.4-0.388,0.4l-54.076,54.079c8.241,15.274,13.094,31.475,14.432,48.172l21.788-21.788
				c2.334-2.334,5.438-3.62,8.739-3.62c3.254,0,6.438,1.319,8.738,3.62l52.464,52.461c4.818,4.819,4.818,12.66,0,17.479
				c-2.334,2.334-5.438,3.619-8.738,3.619c-3.3,0-6.403-1.285-8.739-3.619l-43.727-43.728l-32.004,32.004
				c-0.456,0.457-0.96,0.882-1.535,1.293c-5.14,21.112-15.85,40.646-31.836,58.068l46.562,46.563
				c2.334,2.337,3.619,5.44,3.619,8.738v51.589c0,6.813-5.544,12.357-12.357,12.357c-6.814,0-12.358-5.544-12.358-12.357v-46.468
				l-43.527-43.528c-1.262,1.019-2.435,1.943-3.575,2.817c-35.693,27.329-82.967,42.38-133.111,42.38
				c-50.146,0-97.419-15.051-133.113-42.379c-1.099-0.842-2.182-1.694-3.251-2.554l-43.265,43.265v46.468
				C117.717,708.411,112.173,713.955,105.359,713.955z M153.189,448.095c-13.811,18.352-21.108,39.206-21.108,60.345
				c0,68.178,74.138,123.645,165.267,123.645c91.127,0,165.266-55.467,165.267-123.645c0-21.137-7.297-41.992-21.108-60.345
				c-36.173,32.799-88.679,51.6-144.158,51.6S189.362,480.894,153.189,448.095z M169.906,429.875
				c31.622,28.67,78.035,45.102,127.441,45.102c49.405,0,95.818-16.433,127.44-45.102c-31.611-28.656-78.023-45.082-127.44-45.082
				C247.933,384.793,201.52,401.219,169.906,429.875z M443.446,413.49c2.869,2.686,5.554,5.376,7.983,8.001
				c2.437,2.632,4.829,5.411,7.118,8.267l50.379-50.378c0.084-0.089,0.177-0.187,0.274-0.283c1.602-1.599,2.662-3.626,3.064-5.859
				l10.4-57.669c-0.655,0.027-1.312,0.053-1.97,0.053l-4.626-0.005c-5.094,0-10.319-0.768-15.539-2.282l-8.789,48.739
				c-0.449,2.492-1.634,4.755-3.425,6.546L443.446,413.49z M83.015,373.237c0.403,2.234,1.463,4.261,3.067,5.861
				c0.099,0.099,0.194,0.196,0.286,0.296l50.04,50.037c2.198-2.728,4.503-5.397,6.857-7.942c2.544-2.749,5.259-5.462,8.288-8.283
				l-44.588-44.588c-1.791-1.792-2.975-4.056-3.424-6.546l-8.772-48.648c-5.109,1.476-10.262,2.224-15.324,2.224l-4.862-0.026
				c-0.656,0-1.311-0.025-1.965-0.053L83.015,373.237z M377.072,298.034c-4.822,0-8.745,3.923-8.745,8.746
				c0,4.822,3.923,8.745,8.745,8.745c4.822,0,8.745-3.923,8.745-8.745C385.818,301.957,381.895,298.034,377.072,298.034z
				 M218.207,298.034c-4.822,0-8.745,3.923-8.745,8.746c0,4.822,3.923,8.745,8.745,8.745c4.822,0,8.745-3.923,8.745-8.745
				C226.952,301.957,223.029,298.034,218.207,298.034z M515.607,153.002c20.121,17.62,32.102,46.304,32.102,76.984
				c0,21.841-5.984,42.915-16.874,59.511c23.387-6.573,40.228-34.773,40.228-67.718c0-38.117-22.594-69.128-50.366-69.128
				C518.991,152.65,517.284,152.769,515.607,153.002z M74.583,152.649c-27.772,0-50.366,31.011-50.366,69.128
				c0,32.945,16.84,61.146,40.228,67.718c-10.889-16.596-16.873-37.67-16.873-59.511c0-30.68,11.981-59.363,32.102-76.984
				C77.993,152.768,76.286,152.649,74.583,152.649z M85.029,275.668c2.787,4.308,5.964,8.14,9.453,11.4
				c10.317-5.209,19.453-15.156,25.101-27.347c4.837-10.435,6.723-21.724,5.386-32.034c-1.038,3.089-2.253,6.139-3.623,9.094
				C113.318,254.105,100.434,267.893,85.029,275.668z M470.309,227.686c-1.337,10.309,0.549,21.599,5.385,32.036
				c5.64,12.166,14.796,22.094,25.156,27.291c3.47-3.251,6.628-7.064,9.398-11.346c-15.406-7.776-28.29-21.565-36.317-38.887
				C472.561,233.822,471.346,230.771,470.309,227.686z"></path>
			<path d="M74.583,128.434c13.697,0,27.09,4.663,38.725,13.488c3.476,2.635,5.224,6.964,4.553,11.273
				c-0.67,4.309-3.651,7.903-7.763,9.356c-22.56,7.976-38.314,35.707-38.314,67.434c0,8.193,1.087,16.18,3.092,23.666
				c9.983-5.319,18.927-15.03,24.497-27.053c4.926-10.629,6.863-22.204,5.454-32.596c-0.604-4.452,1.362-8.864,5.076-11.394
				c2.007-1.367,4.337-2.057,6.674-2.057c1.99,0,3.985,0.501,5.789,1.509c26.675,14.919,35.103,53.506,19.187,87.846
				c-5.976,12.894-14.511,23.558-24.388,31.291l9.544,52.927l44.16,44.159c18.185-12.666,39.331-22.466,62.169-28.895
				l-14.123-29.661c-0.237,0.004-0.474,0.018-0.712,0.018c-18.176,0-32.962-14.788-32.962-32.963
				c0-18.176,14.786-32.962,32.962-32.962s32.963,14.788,32.963,32.962c0,9.4-3.961,17.884-10.292,23.894l15.886,33.359
				c13.216-2.267,26.815-3.456,40.585-3.456c13.958,0,27.738,1.223,41.124,3.551l15.932-33.456
				c-6.331-6.01-10.292-14.495-10.292-23.894c0-18.176,14.787-32.962,32.963-32.962c18.176,0,32.962,14.787,32.962,32.962
				c0,18.176-14.787,32.962-32.962,32.962c-0.238,0-0.475-0.013-0.712-0.017l-14.191,29.805c22.786,6.474,43.875,16.303,62,28.992
				l44.398-44.397l9.563-53.029c-10.085-7.899-18.61-18.683-24.406-31.189c-15.917-34.34-7.487-72.926,19.188-87.846
				c1.804-1.009,3.798-1.509,5.788-1.509c2.337,0,4.668,0.69,6.674,2.057c3.715,2.527,5.68,6.94,5.076,11.394
				c-1.407,10.391,0.528,21.967,5.454,32.596c5.573,12.022,14.517,21.732,24.5,27.051c2.006-7.486,3.092-15.474,3.092-23.666
				c0-31.728-15.756-59.458-38.314-67.434c-4.111-1.454-7.094-5.047-7.764-9.356c-0.672-4.309,1.077-8.639,4.552-11.273
				c11.64-8.824,25.031-13.488,38.729-13.488c20.52,0,39.607,10.119,53.751,28.492c13.436,17.451,20.833,40.482,20.833,64.851
				c0,24.368-7.397,47.399-20.834,64.853c-7.434,9.656-16.24,17.005-25.894,21.83l-12.456,69.073
				c-1.258,6.979-4.532,13.325-9.476,18.385c-0.1,0.108-0.201,0.213-0.305,0.317l-0.078,0.078c-0.022,0.023-0.046,0.047-0.068,0.07
				l-54.273,54.273c8.459,15.573,13.415,32.217,14.632,49.386l22.559-22.559c2.224-2.224,5.24-3.474,8.386-3.474
				c3.144,0,6.162,1.25,8.385,3.474l52.464,52.461c4.631,4.632,4.631,12.141,0,16.771c-2.314,2.314-5.35,3.473-8.385,3.473
				c-3.035,0-6.069-1.158-8.386-3.473l-44.081-44.082l-32.357,32.357c-0.507,0.508-1.054,0.95-1.623,1.347
				c-5.106,21.117-16.001,40.959-32.087,58.383l46.9,46.901c2.223,2.226,3.473,5.24,3.473,8.385v51.589
				c0,6.548-5.309,11.857-11.857,11.857c-6.55,0-11.858-5.31-11.858-11.857v-46.675l-43.992-43.993
				c-1.285,1.043-2.586,2.075-3.914,3.093c-35.607,27.262-82.772,42.276-132.808,42.276c-50.036,0-97.203-15.015-132.81-42.276
				c-1.216-0.931-2.411-1.875-3.591-2.827l-43.729,43.728v46.675c0,6.548-5.308,11.858-11.858,11.858
				c-6.549,0-11.857-5.31-11.857-11.858V650.01c0-3.146,1.249-6.161,3.473-8.386l46.601-46.599
				c-16.374-17.642-27.417-37.774-32.498-59.209c-0.313-0.256-0.618-0.528-0.911-0.821l-32.358-32.358l-44.082,44.082
				c-2.314,2.315-5.351,3.473-8.385,3.473s-6.069-1.157-8.385-3.473c-4.631-4.632-4.631-12.141,0-16.771l52.466-52.466
				c2.224-2.223,5.24-3.473,8.385-3.473c3.146,0,6.162,1.25,8.386,3.473l22.01,22.011c1.294-17.116,6.305-33.7,14.801-49.218
				L69.11,396.382c-0.022-0.023-0.046-0.047-0.068-0.07l-0.078-0.078c-0.104-0.103-0.205-0.209-0.305-0.317
				c-4.945-5.06-8.218-11.407-9.476-18.384l-12.456-69.075c-9.653-4.825-18.46-12.175-25.893-21.83
				C7.398,269.177,0,246.145,0,221.777c0-24.368,7.397-47.399,20.832-64.852C34.976,138.552,54.065,128.434,74.583,128.434
				 M65.591,290.314c-11.211-16.549-17.52-37.703-17.52-60.329c0-31.479,12.742-60.279,32.748-77.313
				c-2.055-0.348-4.134-0.522-6.236-0.522c-28.048,0-50.866,31.234-50.866,69.628C23.717,255.97,41.818,284.485,65.591,290.314
				 M529.689,290.315c23.774-5.829,41.874-34.344,41.874-68.537c0-38.393-22.818-69.628-50.866-69.628
				c-2.104,0-4.185,0.174-6.236,0.522c20.006,17.033,32.749,45.833,32.749,77.313C547.209,252.612,540.901,273.766,529.689,290.315
				 M500.938,287.614c3.759-3.478,7.122-7.566,10.032-12.146c-15.282-7.558-28.462-21.37-36.585-38.898
				c-1.671-3.606-3.092-7.306-4.252-11.056c-1.83,10.478-0.268,22.819,5.106,34.417C481.029,272.42,490.322,282.397,500.938,287.614
				 M94.396,287.67c10.214-5.052,19.692-14.899,25.642-27.739c5.375-11.596,6.938-23.938,5.108-34.416
				c-1.16,3.75-2.58,7.449-4.252,11.056c-8.124,17.527-21.303,31.341-36.586,38.898C87.233,280.072,90.613,284.18,94.396,287.67
				 M377.072,316.024c5.098,0,9.245-4.148,9.245-9.245c0-5.097-4.146-9.246-9.245-9.246c-5.097,0-9.245,4.148-9.245,9.246
				C367.827,311.876,371.976,316.024,377.072,316.024 M218.207,316.024c5.098,0,9.245-4.148,9.245-9.245
				c0-5.097-4.148-9.246-9.245-9.246c-5.097,0-9.245,4.147-9.245,9.246C208.962,311.875,213.11,316.024,218.207,316.024
				 M458.506,430.506l50.774-50.773c0.09-0.095,0.179-0.189,0.272-0.281c1.675-1.672,2.784-3.792,3.205-6.126l10.511-58.284
				c-0.856,0.035-1.712,0.079-2.572,0.079l-4.625-0.005c-5.258,0-10.635-0.83-15.934-2.419l-8.888,49.288
				c-0.429,2.38-1.575,4.571-3.286,6.282l-45.237,45.237c2.891,2.69,5.682,5.461,8.336,8.328
				C453.686,424.663,456.162,427.56,458.506,430.506 M79.444,315.147l-4.859-0.026c-0.861,0-1.716-0.043-2.571-0.079l10.51,58.284
				c0.421,2.334,1.53,4.454,3.206,6.126c0.093,0.093,0.184,0.186,0.271,0.281l50.447,50.445c2.267-2.833,4.658-5.62,7.184-8.351
				c2.746-2.968,5.64-5.83,8.641-8.61l-44.955-44.954c-1.71-1.711-2.856-3.901-3.285-6.282l-8.871-49.195
				C89.988,314.333,84.709,315.147,79.444,315.147 M297.347,475.478c49.77,0,96.75-16.885,128.184-45.602
				c-31.433-28.714-78.418-45.582-128.184-45.582c-49.765,0-96.75,16.869-128.184,45.582
				C200.596,458.593,247.576,475.478,297.347,475.478 M297.347,499.194c-55.598,0-108.448-19.183-144.227-51.838
				c-14.132,18.598-21.54,39.506-21.54,61.083c0,68.451,74.362,124.145,165.767,124.145c91.403,0,165.766-55.691,165.767-124.145
				c0-21.579-7.409-42.485-21.54-61.083C405.795,480.012,352.946,499.194,297.347,499.194 M74.583,127.434
				c-20.836,0-40.207,10.257-54.543,28.882C6.472,173.941-1,197.189-1,221.777c0,24.589,7.473,47.837,21.041,65.461
				c7.361,9.561,16.036,16.922,25.79,21.888l12.368,68.584c1.292,7.167,4.662,13.705,9.744,18.905
				c0.088,0.097,0.2,0.212,0.313,0.326l0.078,0.078l0.054,0.056l53.379,53.378c-8.025,14.857-12.858,30.59-14.38,46.811
				l-20.488-20.489c-2.429-2.429-5.659-3.766-9.093-3.766c-3.434,0-6.663,1.337-9.092,3.766L16.248,529.24
				c-5.013,5.014-5.014,13.171,0,18.186c2.428,2.429,5.657,3.766,9.092,3.766c3.436,0,6.664-1.337,9.092-3.766l43.375-43.375
				l31.651,31.651c0.227,0.227,0.469,0.45,0.722,0.668c5.115,21.322,15.88,41.039,32.008,58.627l-45.921,45.92
				c-2.428,2.43-3.766,5.658-3.766,9.093v51.588c0,7.09,5.768,12.858,12.857,12.858c7.09,0,12.858-5.768,12.858-12.858v-46.261
				l42.801-42.801c1.011,0.809,1.969,1.559,2.91,2.279c35.781,27.396,83.163,42.482,133.417,42.482
				c50.254,0,97.635-15.087,133.416-42.482c1.038-0.795,2.102-1.632,3.234-2.544l43.064,43.064v46.261
				c0,7.09,5.769,12.857,12.858,12.857c7.09,0,12.857-5.768,12.857-12.857v-51.589c0-3.432-1.337-6.66-3.765-9.092l-46.224-46.224
				c15.821-17.348,26.444-36.772,31.586-57.757c0.535-0.394,1.011-0.8,1.447-1.237l31.649-31.649l43.374,43.375
				c2.431,2.429,5.659,3.766,9.093,3.766c3.435,0,6.664-1.337,9.092-3.766c5.014-5.014,5.014-13.171,0-18.185l-52.464-52.461
				c-2.393-2.393-5.706-3.767-9.092-3.767c-3.435,0-6.664,1.338-9.093,3.767l-21.027,21.027
				c-1.451-16.269-6.232-32.055-14.223-46.967l53.746-53.747l0.098-0.101l0.047-0.045c0.117-0.118,0.227-0.231,0.334-0.348
				c5.065-5.183,8.434-11.721,9.726-18.886l12.367-68.583c9.755-4.966,18.431-12.328,25.79-21.888
				c13.569-17.626,21.042-40.874,21.042-65.463c0-24.589-7.473-47.837-21.041-65.461c-14.337-18.625-33.707-28.882-54.543-28.882
				c-13.917,0-27.519,4.734-39.333,13.691c-3.773,2.862-5.665,7.546-4.936,12.224c0.728,4.679,3.953,8.566,8.419,10.145
				c22.166,7.838,37.647,35.18,37.647,66.491c0,7.526-0.92,14.977-2.735,22.168c-9.447-5.395-17.765-14.792-22.949-25.975
				c-4.846-10.456-6.753-21.835-5.37-32.042c0.658-4.863-1.45-9.597-5.505-12.355c-2.142-1.459-4.643-2.23-7.236-2.23
				c-2.192,0-4.362,0.566-6.276,1.637c-27.129,15.173-35.741,54.328-19.607,89.139c5.724,12.349,14.092,23.118,24.223,31.181
				l-9.4,52.13l-43.585,43.583c-17.778-12.327-38.113-21.853-60.475-28.328l13.404-28.152c0.03,0.001,0.06,0.001,0.089,0.001
				c18.727,0,33.962-15.235,33.962-33.962c0-18.727-15.235-33.962-33.962-33.962c-18.728,0-33.963,15.235-33.963,33.962
				c0,9.143,3.574,17.677,10.08,24.112l-15.297,32.123c-13.366-2.281-27.004-3.437-40.547-3.437
				c-13.368,0-26.824,1.125-40.007,3.343l-15.252-32.028c6.506-6.435,10.081-14.969,10.081-24.112
				c0-18.727-15.236-33.962-33.963-33.962c-18.727,0-33.962,15.235-33.962,33.962c0,18.727,15.235,33.963,33.962,33.963
				c0.03,0,0.059,0,0.088,0l13.335,28.005c-22.403,6.43-42.796,15.925-60.641,28.236l-43.348-43.347l-9.382-52.029
				c10.063-8.008,18.425-18.813,24.204-31.284c16.135-34.811,7.523-73.966-19.605-89.139c-1.915-1.07-4.086-1.636-6.277-1.636
				c-2.592,0-5.095,0.772-7.237,2.23c-4.054,2.762-6.163,7.496-5.504,12.355c1.383,10.204-0.524,21.583-5.371,32.042
				c-5.181,11.183-13.498,20.58-22.946,25.976c-1.816-7.194-2.736-14.646-2.736-22.168c0-31.312,15.481-58.654,37.648-66.491
				c4.464-1.578,7.69-5.465,8.418-10.145c0.729-4.679-1.163-9.363-4.937-12.224C102.103,132.168,88.504,127.434,74.583,127.434
				L74.583,127.434z M63.286,288.623c-10.337-3.321-19.74-11.209-26.697-22.466c-7.656-12.389-11.873-28.15-11.873-44.379
				c0-37.842,22.37-68.628,49.866-68.628c1.313,0,2.628,0.071,3.931,0.212c-19.728,17.771-31.443,46.224-31.443,76.623
				C47.071,251.422,52.813,272.127,63.286,288.623L63.286,288.623z M516.765,153.362c1.303-0.141,2.618-0.212,3.932-0.212
				c27.496,0,49.866,30.786,49.866,68.628c0,16.229-4.216,31.99-11.872,44.379c-6.956,11.256-16.359,19.145-26.697,22.466
				c10.475-16.495,16.216-37.2,16.216-58.638C548.209,199.585,536.493,171.132,516.765,153.362L516.765,153.362z M500.763,286.407
				c-10.133-5.189-19.079-14.953-24.616-26.896c-4.455-9.615-6.387-19.956-5.577-29.565c0.869,2.386,1.842,4.743,2.908,7.045
				c7.987,17.236,20.762,30.998,36.048,38.869C506.919,279.814,503.977,283.356,500.763,286.407L500.763,286.407z M85.752,275.86
				c15.285-7.869,28.059-21.63,36.049-38.869c1.066-2.299,2.038-4.655,2.908-7.044c0.809,9.61-1.123,19.951-5.579,29.563
				c-5.545,11.967-14.471,21.751-24.561,26.952C91.335,283.4,88.375,279.841,85.752,275.86L85.752,275.86z M377.072,315.024
				c-4.546,0-8.245-3.699-8.245-8.245c0-4.547,3.699-8.246,8.245-8.246s8.245,3.699,8.245,8.246
				C385.318,311.326,381.618,315.024,377.072,315.024L377.072,315.024z M218.207,315.024c-4.546,0-8.245-3.699-8.245-8.245
				c0-4.547,3.699-8.246,8.245-8.246s8.245,3.699,8.245,8.246C226.452,311.326,222.754,315.024,218.207,315.024L218.207,315.024z
				 M444.164,413.478l44.507-44.506c1.864-1.863,3.096-4.219,3.563-6.812l8.69-48.195c5.088,1.427,10.179,2.15,15.146,2.15
				l4.624,0.005c0.459,0,0.916-0.012,1.368-0.029l-10.29,57.057c-0.385,2.133-1.397,4.068-2.927,5.596
				c-0.1,0.098-0.196,0.199-0.294,0.303l-49.965,49.963c-2.189-2.713-4.471-5.353-6.792-7.859
				C449.465,418.632,446.902,416.055,444.164,413.478L444.164,413.478z M79.438,316.147h0.003h0.003
				c4.933,0,9.95-0.704,14.929-2.092l8.674,48.104c0.467,2.591,1.699,4.947,3.562,6.812l44.223,44.222
				c-2.886,2.703-5.489,5.313-7.935,7.956c-2.237,2.418-4.43,4.95-6.53,7.536l-49.66-49.658c-0.069-0.076-0.168-0.177-0.27-0.28
				c-1.534-1.53-2.546-3.465-2.931-5.598l-10.289-57.056c0.451,0.017,0.908,0.028,1.366,0.028L79.438,316.147L79.438,316.147z
				 M170.653,429.875c15.238-13.697,34.598-24.963,56.064-32.616c21.957-7.828,46.38-11.965,70.63-11.965
				c24.251,0,48.675,4.137,70.631,11.965c21.467,7.653,40.826,18.919,56.064,32.617c-15.24,13.702-34.6,24.972-56.063,32.629
				c-21.959,7.833-46.383,11.974-70.632,11.974c-24.25,0-48.674-4.141-70.632-11.974
				C205.251,454.847,185.892,443.577,170.653,429.875L170.653,429.875z M297.347,631.584c-90.853,0-164.767-55.242-164.767-123.145
				c0-20.86,7.147-41.449,20.68-59.606c17.565,15.814,39.739,28.814,64.202,37.629c24.93,8.983,52.553,13.732,79.885,13.732
				c27.332,0,54.955-4.749,79.885-13.732c24.463-8.815,46.637-21.814,64.201-37.629c13.533,18.159,20.681,38.747,20.681,59.606
				C462.113,576.342,388.198,631.584,297.347,631.584L297.347,631.584z"></path>
		</g>
	</g>
</g>
</svg>
