<?xml version="1.0" encoding="iso-8859-1"?>
<!-- Generator: Adobe Illustrator 20.1.0, SVG Export Plug-In . SVG Version: 6.00 Build 0)  -->
<svg version="1.1" id="&#x421;&#x43B;&#x43E;&#x439;_1"
	 xmlns="http://www.w3.org/2000/svg" xmlns:xlink="http://www.w3.org/1999/xlink" x="0px" y="0px" viewBox="0 0 16 25"
	 style="enable-background:new 0 0 16 25;" xml:space="preserve">
<path style="fill:#00B0FF;" d="M9.945,0.523c0.015,0,0.027,0,0.035,0c0.008,0,0.019,0,0.035,0c0.406,0.016,0.75,0.168,1.031,0.457
	c0.281,0.289,0.422,0.637,0.422,1.043c0,0.063-0.004,0.121-0.012,0.176c-0.008,0.055-0.02,0.114-0.035,0.176L10.063,9.43h4.336
	c0.281,0,0.543,0.074,0.785,0.223c0.242,0.149,0.426,0.348,0.551,0.598c0.125,0.25,0.176,0.516,0.152,0.797s-0.114,0.539-0.27,0.773
	L7.203,23.867c-0.156,0.203-0.328,0.355-0.516,0.457c-0.188,0.101-0.398,0.152-0.633,0.152c-0.109,0-0.215-0.008-0.316-0.023
	c-0.102-0.016-0.199-0.047-0.293-0.094c-0.313-0.141-0.555-0.363-0.727-0.668c-0.172-0.305-0.227-0.629-0.164-0.973l1.383-8.039
	l-4.336-0.023c-0.281,0-0.543-0.074-0.785-0.223c-0.242-0.148-0.426-0.348-0.551-0.598c-0.125-0.25-0.176-0.516-0.152-0.797
	s0.113-0.539,0.27-0.773L8.797,1.156c0.015-0.015,0.027-0.031,0.035-0.047C8.84,1.094,8.851,1.078,8.867,1.063
	C8.914,1,8.965,0.945,9.02,0.898c0.055-0.047,0.113-0.086,0.176-0.117c0.094-0.078,0.191-0.137,0.293-0.176
	c0.101-0.039,0.215-0.066,0.34-0.082c0.031,0,0.055,0,0.07,0C9.914,0.523,9.93,0.523,9.945,0.523L9.945,0.523z M9.945,2.023
	L1.602,13.18l6.141,0.023l-1.688,9.773l8.344-12.047l-6.141-0.023L9.945,2.023z"/>
</svg>
