<?xml version="1.0" encoding="iso-8859-1"?>
<!-- Generator: Adobe Illustrator 20.1.0, SVG Export Plug-In . SVG Version: 6.00 Build 0)  -->
<svg version="1.1" id="Layer_1" xmlns="http://www.w3.org/2000/svg" xmlns:xlink="http://www.w3.org/1999/xlink" x="0px" y="0px"
	 viewBox="0 191.445 595.279 457" style="enable-background:new 0 191.445 595.279 457;" xml:space="preserve">
<g>
	<g>
		<g>
			<path d="M473.264,610.217c-0.192,0-0.384-0.073-0.53-0.22l-40.869-40.869c-0.293-0.293-0.293-0.768,0-1.06l12.885-12.885
				c0.147-0.146,0.338-0.22,0.53-0.22c0.192,0,0.384,0.073,0.53,0.22l40.869,40.869c0.293,0.293,0.293,0.768,0,1.061l-12.885,12.885
				C473.648,610.143,473.456,610.217,473.264,610.217z"/>
			<path d="M445.279,555.713l40.869,40.869l-12.885,12.885l-40.869-40.869L445.279,555.713 M445.279,554.213
				c-0.384,0-0.767,0.147-1.06,0.439l-12.885,12.885c-0.586,0.586-0.586,1.535,0,2.121l40.869,40.869
				c0.293,0.293,0.677,0.44,1.061,0.44c0.384,0,0.768-0.146,1.061-0.44l12.885-12.885c0.586-0.586,0.586-1.535,0-2.121
				l-40.869-40.869C446.047,554.359,445.663,554.213,445.279,554.213L445.279,554.213z"/>
		</g>
	</g>
</g>
<g>
	<g>
		<g>
			<path d="M501.653,638.611c-0.199,0-0.39-0.079-0.53-0.22l-12.911-12.912c-0.293-0.293-0.293-0.768,0-1.061l12.885-12.885
				c0.141-0.141,0.331-0.22,0.53-0.22c0.199,0,0.39,0.079,0.53,0.22l12.911,12.911c0.293,0.293,0.293,0.768,0,1.06l-12.885,12.886
				C502.042,638.532,501.852,638.611,501.653,638.611z"/>
			<path d="M501.626,612.064l12.911,12.911l-12.885,12.886l-12.911-12.912L501.626,612.064 M501.626,610.564
				c-0.397,0-0.779,0.158-1.061,0.44l-12.885,12.885c-0.586,0.586-0.586,1.535,0,2.121l12.911,12.912
				c0.281,0.281,0.663,0.439,1.061,0.439c0.397,0,0.779-0.158,1.06-0.439l12.885-12.886c0.586-0.586,0.586-1.535,0-2.121
				l-12.911-12.911C502.405,610.723,502.024,610.564,501.626,610.564L501.626,610.564z"/>
		</g>
	</g>
</g>
<g>
	<g>
		<g>
			<path d="M497.326,430.81c-0.414,0-0.75-0.336-0.75-0.75v-18.223c0-0.414,0.336-0.75,0.75-0.75h97.953
				c0.414,0,0.75,0.336,0.75,0.75v18.223c0,0.414-0.336,0.75-0.75,0.75H497.326z"/>
			<path d="M595.279,411.837v18.223h-97.953v-18.223H595.279 M595.279,410.337h-97.953c-0.828,0-1.5,0.671-1.5,1.5v18.223
				c0,0.828,0.672,1.5,1.5,1.5h97.953c0.828,0,1.5-0.672,1.5-1.5v-18.223C596.779,411.008,596.108,410.337,595.279,410.337
				L595.279,410.337z"/>
		</g>
	</g>
</g>
<g>
	<g>
		<g>
			<path d="M445.273,286.932c-0.199,0-0.39-0.079-0.53-0.22l-12.885-12.885c-0.293-0.293-0.293-0.768,0-1.061l69.262-69.262
				c0.141-0.141,0.331-0.22,0.53-0.22c0.199,0,0.39,0.079,0.53,0.22l12.885,12.885c0.293,0.293,0.293,0.768,0,1.061l-69.262,69.263
				C445.662,286.853,445.472,286.932,445.273,286.932z"/>
			<path d="M501.65,204.034l12.885,12.885l-69.262,69.263l-12.885-12.885L501.65,204.034 M501.65,202.534
				c-0.398,0-0.779,0.158-1.061,0.439l-69.262,69.262c-0.586,0.585-0.586,1.536,0,2.121l12.885,12.885
				c0.281,0.281,0.663,0.439,1.06,0.439c0.398,0,0.779-0.158,1.061-0.439l69.262-69.263c0.586-0.586,0.586-1.535,0-2.121
				l-12.885-12.885C502.429,202.692,502.047,202.534,501.65,202.534L501.65,202.534z"/>
		</g>
	</g>
</g>
<g>
	<g>
		<g>
			<path d="M149.997,286.942c-0.199,0-0.39-0.079-0.53-0.22L80.205,217.46c-0.293-0.293-0.293-0.768,0-1.061l12.885-12.885
				c0.141-0.141,0.331-0.22,0.53-0.22c0.199,0,0.39,0.079,0.53,0.22l69.262,69.262c0.293,0.293,0.293,0.768,0,1.061l-12.885,12.885
				C150.387,286.863,150.196,286.942,149.997,286.942z"/>
			<path d="M93.62,204.045l69.262,69.262l-12.885,12.885L80.736,216.93L93.62,204.045 M93.62,202.545
				c-0.398,0-0.779,0.158-1.061,0.44l-12.885,12.885c-0.586,0.586-0.586,1.535,0,2.121l69.262,69.263
				c0.281,0.281,0.663,0.439,1.061,0.439c0.398,0,0.779-0.158,1.061-0.439l12.885-12.885c0.586-0.586,0.586-1.536,0-2.121
				l-69.262-69.262C94.4,202.703,94.018,202.545,93.62,202.545L93.62,202.545z"/>
		</g>
	</g>
</g>
<g>
	<g>
		<g>
			<path d="M0,430.81c-0.414,0-0.75-0.336-0.75-0.75v-18.223c0-0.414,0.336-0.75,0.75-0.75h97.953c0.414,0,0.75,0.336,0.75,0.75
				v18.223c0,0.414-0.336,0.75-0.75,0.75H0z"/>
			<path d="M97.953,411.837v18.223H0v-18.223H97.953 M97.953,410.337H0c-0.829,0-1.5,0.671-1.5,1.5v18.223
				c0,0.828,0.671,1.5,1.5,1.5h97.953c0.829,0,1.5-0.672,1.5-1.5v-18.223C99.453,411.008,98.782,410.337,97.953,410.337
				L97.953,410.337z"/>
		</g>
	</g>
</g>
<g>
	<g>
		<g>
			<path d="M93.61,638.604c-0.192,0-0.384-0.073-0.53-0.22L80.195,625.5c-0.141-0.141-0.22-0.331-0.22-0.53s0.079-0.39,0.22-0.53
				l69.263-69.262c0.146-0.146,0.338-0.22,0.53-0.22c0.192,0,0.384,0.073,0.53,0.22l12.885,12.885c0.141,0.141,0.22,0.331,0.22,0.53
				c0,0.199-0.079,0.39-0.22,0.53L94.14,638.385C93.993,638.531,93.801,638.604,93.61,638.604z"/>
			<path d="M149.988,555.708l12.885,12.885L93.61,637.854L80.725,624.97L149.988,555.708 M149.988,554.208
				c-0.384,0-0.768,0.146-1.061,0.439l-69.263,69.262c-0.281,0.281-0.439,0.663-0.439,1.06c0,0.397,0.158,0.779,0.439,1.061
				l12.885,12.885c0.293,0.293,0.677,0.439,1.061,0.439c0.384,0,0.768-0.146,1.061-0.439l69.263-69.262
				c0.281-0.281,0.439-0.663,0.439-1.06c0-0.398-0.158-0.779-0.439-1.061l-12.885-12.885
				C150.755,554.354,150.371,554.208,149.988,554.208L149.988,554.208z"/>
		</g>
	</g>
</g>
<g>
	<g>
		<g>
			<path d="M198.617,370.552c-0.097,0-0.196-0.018-0.291-0.059l-16.79-7.079c-0.183-0.077-0.328-0.224-0.403-0.408
				c-0.075-0.184-0.074-0.391,0.004-0.574l7.17-17.005c0.121-0.287,0.398-0.458,0.691-0.458c0.097,0,0.196,0.019,0.291,0.059
				l16.79,7.079c0.183,0.077,0.328,0.224,0.403,0.408c0.075,0.184,0.074,0.391-0.004,0.574l-7.17,17.005
				C199.188,370.38,198.91,370.552,198.617,370.552z"/>
			<path d="M188.997,345.717l16.79,7.079l-7.17,17.005l-16.79-7.079L188.997,345.717 M188.998,344.217
				c-0.585,0-1.141,0.345-1.383,0.918l-7.17,17.005c-0.154,0.367-0.157,0.78-0.007,1.148c0.15,0.368,0.44,0.662,0.807,0.817
				l16.79,7.079c0.191,0.08,0.388,0.118,0.583,0.118c0.585,0,1.141-0.345,1.383-0.917l7.17-17.006
				c0.154-0.366,0.157-0.779,0.007-1.148c-0.15-0.368-0.44-0.662-0.807-0.817l-16.79-7.079
				C189.39,344.255,189.192,344.217,188.998,344.217L188.998,344.217z"/>
		</g>
	</g>
</g>
<g>
	<g>
		<g>
			<path d="M224.987,638.116c-0.112,0-0.225-0.025-0.33-0.077c-0.312-0.152-0.477-0.5-0.401-0.839l41.618-183.327h-122.16
				c-0.251,0-0.486-0.126-0.625-0.335c-0.139-0.21-0.164-0.475-0.066-0.706l28.892-68.516c0.121-0.287,0.399-0.458,0.691-0.458
				c0.097,0,0.196,0.019,0.291,0.059l16.791,7.08c0.183,0.077,0.328,0.224,0.403,0.408c0.075,0.184,0.074,0.391-0.004,0.574
				l-17.781,42.171h117.331c0.228,0,0.444,0.104,0.586,0.282c0.143,0.178,0.196,0.411,0.145,0.634L261.18,563.643L416.923,374.74
				H293.149c-0.256,0-0.494-0.13-0.632-0.346c-0.138-0.215-0.156-0.486-0.049-0.718l57.082-123.88h-99.507l-34.341,81.439
				c-0.077,0.183-0.224,0.328-0.408,0.403c-0.091,0.037-0.187,0.055-0.283,0.055c-0.099,0-0.198-0.02-0.292-0.059l-16.79-7.081
				c-0.382-0.161-0.561-0.601-0.399-0.982l39.231-93.041c0.117-0.278,0.389-0.459,0.691-0.459h141.73
				c0.256,0,0.494,0.13,0.632,0.346c0.138,0.215,0.156,0.486,0.049,0.718L322.78,355.018h134.375c0.29,0,0.555,0.167,0.679,0.43
				c0.123,0.263,0.085,0.573-0.1,0.797L225.566,637.844C225.42,638.021,225.206,638.116,224.987,638.116z"/>
			<path d="M379.182,230.823L321.61,355.768h135.546L224.988,637.366l41.826-184.243h-123.1l28.892-68.516l16.791,7.08
				l-18.221,43.212h118.462l-29.889,131.658L418.514,373.99H293.149l57.571-124.944H249.544l-34.534,81.897l-16.79-7.081
				l39.231-93.041H379.182 M379.182,229.323h-141.73c-0.603,0-1.148,0.361-1.382,0.917l-39.231,93.041
				c-0.322,0.764,0.036,1.643,0.799,1.965l16.79,7.081c0.187,0.078,0.385,0.118,0.583,0.118c0.192,0,0.384-0.037,0.565-0.11
				c0.368-0.15,0.662-0.44,0.817-0.807l34.147-80.98h97.837l-56.591,122.816c-0.214,0.465-0.177,1.006,0.099,1.437
				c0.276,0.431,0.752,0.691,1.263,0.691h122.185L262.611,560.729l28.49-125.498c0.101-0.444-0.006-0.911-0.291-1.267
				c-0.285-0.357-0.716-0.565-1.172-0.565H173.436l17.343-41.129c0.154-0.367,0.157-0.78,0.007-1.148
				c-0.15-0.368-0.44-0.662-0.807-0.817l-16.791-7.08c-0.19-0.08-0.388-0.118-0.582-0.118c-0.585,0-1.141,0.345-1.383,0.917
				l-28.892,68.516c-0.195,0.464-0.145,0.993,0.132,1.412c0.278,0.419,0.748,0.671,1.25,0.671h121.221l-41.41,182.411
				c-0.154,0.678,0.178,1.372,0.802,1.679c0.211,0.104,0.437,0.153,0.661,0.153c0.437,0,0.865-0.191,1.158-0.546l232.168-281.599
				c0.369-0.448,0.447-1.069,0.199-1.594c-0.247-0.525-0.776-0.86-1.357-0.86H323.952l56.592-122.817
				c0.214-0.464,0.177-1.006-0.099-1.437C380.169,229.583,379.694,229.323,379.182,229.323L379.182,229.323z"/>
		</g>
	</g>
</g>
</svg>
