<?xml version="1.0" encoding="iso-8859-1"?>
<!-- Generator: Adobe Illustrator 20.1.0, SVG Export Plug-In . SVG Version: 6.00 Build 0)  -->
<svg version="1.1" id="Capa_1" xmlns="http://www.w3.org/2000/svg" xmlns:xlink="http://www.w3.org/1999/xlink"
	 viewBox="0 178.445 595.279 484" xml:space="preserve" width="100%" height="100%">
<g>
	<g>
		<path d="M239.592,655.31c-19.904-0.002-34.913-16.737-34.913-38.928c0-13.823,6.158-25.775,13.289-39.613
			c0.639-1.24,1.284-2.495,1.935-3.767c-43.643-22.061-80.831-55.753-107.59-97.473L40.461,519.58
			c-0.476,0.291-0.976,0.549-1.488,0.768c-3.814,1.633-7.731,2.461-11.641,2.461c-15.867,0-27.832-13.169-27.832-30.632
			c0-20.298,23.071-55.391,33.23-69.857C22.571,407.852-0.5,372.755-0.5,352.461c0-8.433,2.824-16.19,7.952-21.843
			c5.14-5.667,12.199-8.787,19.877-8.787c0.001,0,0.001,0,0.002,0c3.91,0,7.826,0.827,11.638,2.458
			c0.52,0.224,1.02,0.483,1.489,0.771l71.861,44.057c27.116-42.118,64.783-76.048,108.983-98.173c-0.881-1.67-1.755-3.31-2.619-4.93
			c-7.516-14.081-14.008-26.243-14.008-40.505c0-22.193,15.01-38.929,34.914-38.929c4.928,0,9.881,1.05,14.723,3.122
			c0.226,0.097,0.449,0.201,0.667,0.312l105.677,53.431c51.325,3.718,100.401,22.127,141.926,53.239
			c41.337,30.973,73.286,72.954,92.395,121.405c1.074,2.726,1.074,5.728,0.001,8.454
			C554.966,528.011,460.202,596.731,353.55,601.647l-98.537,50.212c-0.227,0.116-0.462,0.228-0.699,0.327
			c-4.844,2.073-9.796,3.124-14.719,3.124H239.592z M116.112,448.16c0.942,0,1.886,0.116,2.803,0.346
			c2.984,0.749,5.587,2.701,7.142,5.357c26.898,45.978,66.353,81.694,114.097,103.291c2.798,1.266,5.009,3.643,6.068,6.524
			c1.059,2.882,0.912,6.127-0.401,8.903c-2.551,5.388-5.107,10.348-7.361,14.724c-6.239,12.108-10.739,20.842-10.739,29.078
			c0,9.203,4.992,15.883,11.869,15.883c1.7,0,3.504-0.385,5.361-1.143l100.375-51.151c1.484-0.757,3.148-1.188,4.813-1.249
			c24.276-0.883,48.258-5.392,71.291-13.4c-30.839-36.294-48.516-89.229-48.516-145.366c0-27.393,4.088-53.826,12.149-78.565
			c1.55-4.757,5.953-7.953,10.956-7.953c1.209,0,2.409,0.191,3.568,0.568c6.041,1.969,9.355,8.485,7.387,14.525
			c-7.31,22.425-11.016,46.456-11.016,71.424c0,53.72,18.004,104.593,48.182,136.182c57.644-26.718,102.978-74.224,127.689-133.824
			c-17.693-42.667-46.412-79.727-83.066-107.191c-14.82-11.105-30.857-20.541-47.674-28.052
			c-6.295,7.058-12.104,15.063-17.268,23.796c-2.065,3.491-5.871,5.66-9.931,5.66c-2.054,0-4.077-0.555-5.853-1.606
			c-5.468-3.234-7.286-10.314-4.054-15.782c4.366-7.385,9.209-14.409,14.4-20.886c-19.922-6.616-40.634-10.645-61.571-11.976
			c-1.567-0.1-3.071-0.509-4.47-1.217L244.93,210.752c-1.826-0.744-3.635-1.13-5.34-1.13c-6.877,0-11.869,6.681-11.869,15.885
			c0,8.496,4.737,17.371,11.292,29.655c2.545,4.764,5.428,10.165,8.303,16.13c1.347,2.79,1.507,6.061,0.439,8.973
			c-1.067,2.911-3.305,5.302-6.138,6.561c-47.708,21.205-88.749,58.121-115.56,103.947c-1.554,2.657-4.158,4.61-7.142,5.358
			c-0.917,0.23-1.861,0.347-2.806,0.347c-2.127,0-4.209-0.587-6.021-1.699l-80.813-49.547c-0.692-0.237-1.345-0.357-1.941-0.357
			c-2.82,0-4.789,3.12-4.789,7.587c0,12.11,19.672,44.132,33.641,63.001c3.037,4.102,3.037,9.613,0,13.715
			c-13.969,18.868-33.642,50.889-33.642,63c0,4.467,1.969,7.587,4.788,7.587c0.596,0,1.249-0.12,1.941-0.358l80.816-49.546
			C111.903,448.748,113.986,448.16,116.112,448.16z"></path>
		<path d="M239.59,187.081c4.858,0,9.745,1.036,14.526,3.082c0.215,0.092,0.429,0.192,0.637,0.298l105.769,53.477
			c51.281,3.695,100.253,22.047,141.762,53.148c41.264,30.918,73.155,72.825,92.229,121.189c1.023,2.599,1.023,5.489,0.001,8.088
			c-40.045,101.546-134.501,169.926-241.095,174.791l-98.633,50.261c-0.218,0.111-0.441,0.217-0.667,0.313
			c-4.781,2.046-9.668,3.084-14.523,3.084c-0.001,0-0.003,0-0.004,0c-19.62-0.002-34.413-16.523-34.413-38.428
			c0-13.702,6.133-25.605,13.233-39.385c0.714-1.386,1.436-2.789,2.165-4.215c-44.111-22.195-81.16-55.76-108.107-97.936
			l-72.271,44.308c-0.456,0.278-0.933,0.524-1.424,0.735c-3.751,1.605-7.602,2.42-11.443,2.42C11.749,522.31,0,509.356,0,492.178
			c0-20.035,22.426-54.347,33.342-69.857C22.426,406.808,0,372.496,0,352.461c0-17.178,11.749-30.132,27.332-30.13
			c3.841,0,7.69,0.813,11.441,2.418c0.491,0.212,0.968,0.457,1.424,0.737l72.278,44.313c27.021-42.129,65.311-76.617,109.508-98.636
			c-0.962-1.828-1.916-3.618-2.858-5.384c-7.485-14.023-13.949-26.135-13.949-40.27C205.176,203.602,219.972,187.081,239.59,187.081
			 M116.109,395.977c-2.016,0-4.012-0.553-5.759-1.625l-80.86-49.575c-0.766-0.268-1.489-0.402-2.156-0.402
			c-3.115,0-5.289,3.325-5.289,8.087c0,12.224,19.729,44.374,33.739,63.299c2.885,3.897,2.885,9.223,0,13.12
			c-14.011,18.925-33.74,51.074-33.74,63.298c0,4.761,2.174,8.087,5.288,8.087c0.666,0,1.39-0.135,2.156-0.403l80.862-49.575
			c1.75-1.072,3.746-1.626,5.762-1.626c0.897,0,1.796,0.109,2.682,0.331c2.874,0.721,5.336,2.568,6.832,5.125
			c26.952,46.068,66.484,81.854,114.322,103.493c2.693,1.219,4.785,3.468,5.805,6.242c1.02,2.775,0.88,5.845-0.384,8.517
			c-2.551,5.388-5.107,10.35-7.362,14.727c-6.262,12.152-10.785,20.931-10.785,29.289c0,9.492,5.202,16.383,12.369,16.383
			c0.002,0,0.002,0,0.002,0c1.767,0,3.63-0.396,5.548-1.18l100.413-51.169c1.429-0.729,3.001-1.137,4.604-1.194
			c24.957-0.908,49.21-5.624,72.128-13.669c-30.782-35.898-48.87-89.235-48.87-145.598c0-27.343,4.08-53.723,12.125-78.41
			c1.517-4.654,5.838-7.608,10.48-7.608c1.131,0,2.281,0.175,3.414,0.544c5.788,1.886,8.951,8.107,7.065,13.895
			c-7.326,22.477-11.04,46.561-11.04,71.579c0,54.279,18.098,105.065,48.567,136.785c56.745-26.201,103.196-73.641,128.345-134.428
			c-17.731-42.854-46.468-79.988-83.308-107.591c-15.063-11.287-31.197-20.736-48.104-28.257
			c-6.404,7.141-12.303,15.241-17.568,24.147c-2.059,3.48-5.732,5.415-9.5,5.415c-1.905,0-3.838-0.495-5.598-1.536
			c-5.239-3.099-6.976-9.858-3.878-15.098c4.525-7.655,9.487-14.804,14.81-21.387c-20.082-6.735-41.021-10.871-62.381-12.228
			c-1.491-0.095-2.944-0.49-4.275-1.164l-107.415-54.309c-1.922-0.785-3.795-1.184-5.565-1.184c-7.168,0-12.369,6.891-12.369,16.385
			c0,8.621,4.762,17.543,11.352,29.891c2.552,4.778,5.442,10.195,8.294,16.112c1.297,2.687,1.446,5.784,0.42,8.584
			c-1.027,2.801-3.145,5.064-5.872,6.275c-47.805,21.248-88.925,58.236-115.789,104.151c-1.496,2.557-3.958,4.405-6.832,5.125
			C117.907,395.867,117.006,395.977,116.109,395.977 M239.59,186.081c-20.189,0-35.414,16.951-35.414,39.429
			c0,14.387,6.519,26.6,14.067,40.741c0.786,1.473,1.58,2.962,2.38,4.476c-21.732,10.931-42.085,24.881-60.503,41.471
			c-18.434,16.603-34.563,35.52-47.955,56.238L40.72,324.634c-0.489-0.3-1.011-0.57-1.551-0.803c-3.877-1.659-7.859-2.5-11.837-2.5
			c-7.822-0.001-15.014,3.178-20.251,8.951C1.87,336.027-1,343.904-1,352.461c0,8.879,4.271,21.361,12.696,37.097
			c6.753,12.614,14.758,24.679,20.424,32.762c-5.665,8.081-13.67,20.145-20.424,32.76C3.272,470.816-1,483.298-1,492.178
			c0,17.748,12.18,31.132,28.332,31.132c3.978,0,7.96-0.841,11.837-2.501c0.535-0.229,1.056-0.499,1.551-0.801l71.437-43.797
			c26.695,41.463,63.686,74.977,107.072,97.01c-0.574,1.119-1.142,2.225-1.706,3.318c-7.16,13.897-13.344,25.898-13.344,39.843
			c0,22.476,15.224,39.426,35.413,39.428c4.995,0,10.013-1.065,14.921-3.165c0.244-0.104,0.49-0.219,0.729-0.341l98.439-50.162
			c52.437-2.435,102.856-20.179,145.828-51.319c43.05-31.198,76.224-74.109,95.936-124.094c1.119-2.846,1.119-5.978-0.001-8.821
			c-19.143-48.538-51.149-90.594-92.561-121.622c-41.575-31.151-90.703-49.589-142.089-53.331l-105.59-53.386
			c-0.225-0.114-0.458-0.223-0.693-0.324C249.606,187.145,244.586,186.081,239.59,186.081L239.59,186.081z M116.109,396.977
			c0.986,0,1.971-0.122,2.928-0.361c3.114-0.781,5.83-2.819,7.452-5.591c26.759-45.736,67.718-82.579,115.332-103.743
			c2.956-1.313,5.29-3.808,6.405-6.845c1.114-3.039,0.947-6.451-0.458-9.362c-2.879-5.975-5.766-11.379-8.312-16.148
			c-6.522-12.22-11.234-21.049-11.234-29.419c0-8.915,4.781-15.385,11.369-15.385c1.629,0,3.361,0.368,5.15,1.094l107.379,54.291
			c1.459,0.738,3.027,1.165,4.663,1.27c20.656,1.313,41.093,5.257,60.765,11.726c-5.037,6.339-9.74,13.189-13.992,20.382
			c-3.373,5.706-1.476,13.093,4.23,16.467c1.852,1.096,3.963,1.675,6.107,1.675c4.236,0,8.206-2.263,10.36-5.905
			c5.081-8.594,10.787-16.479,16.968-23.445c16.661,7.471,32.552,16.837,47.244,27.846c36.526,27.369,65.159,64.289,82.824,106.791
			c-12.35,29.723-29.832,56.466-51.962,79.49c-21.694,22.573-46.95,40.647-75.071,53.73c-29.94-31.517-47.796-82.131-47.796-135.577
			c0-24.916,3.698-48.895,10.991-71.269c2.053-6.303-1.404-13.102-7.707-15.156c-1.21-0.393-2.462-0.593-3.724-0.593
			c-5.221,0-9.814,3.334-11.432,8.298c-8.078,24.789-12.174,51.274-12.174,78.72c0,27.695,4.476,55.633,12.944,80.792
			c8.262,24.548,20.424,46.759,35.219,64.341c-22.775,7.843-46.473,12.262-70.457,13.135c-1.736,0.063-3.473,0.513-5.021,1.303
			l-100.375,51.149c-1.783,0.724-3.509,1.09-5.132,1.09c-6.59,0-11.371-6.47-11.371-15.383c0-8.115,4.477-16.804,10.673-28.828
			c2.268-4.402,4.824-9.365,7.378-14.76c1.371-2.897,1.523-6.283,0.419-9.289c-1.105-3.006-3.413-5.487-6.332-6.809
			c-47.649-21.554-87.025-57.2-113.871-103.087c-1.622-2.771-4.338-4.81-7.452-5.59c-0.957-0.24-1.941-0.361-2.925-0.361
			c-2.218,0-4.391,0.613-6.284,1.773l-80.769,49.518c-0.621,0.208-1.201,0.313-1.727,0.313c-2.525,0-4.288-2.914-4.288-7.087
			c0-11.997,19.616-43.889,33.544-62.703c3.168-4.279,3.168-10.03,0-14.31c-13.928-18.814-33.543-50.707-33.543-62.704
			c0-4.173,1.764-7.087,4.289-7.087c0.526,0,1.107,0.105,1.728,0.313l80.766,49.518
			C111.717,396.364,113.889,396.977,116.109,396.977L116.109,396.977z"></path>
	</g>
	<g>
		<path d="M474.037,422.364c-18.368,0-33.312-14.944-33.312-33.313c0-18.369,14.943-33.313,33.312-33.313
			c18.368,0,33.312,14.944,33.312,33.313C507.349,407.42,492.405,422.364,474.037,422.364z M474.037,378.782
			c-5.661,0-10.268,4.607-10.268,10.269c0,5.663,4.606,10.269,10.268,10.269c5.661,0,10.268-4.606,10.268-10.269
			C484.305,383.389,479.698,378.782,474.037,378.782z"></path>
		<path d="M474.037,356.238c18.092,0,32.812,14.72,32.812,32.813c0,18.093-14.72,32.813-32.812,32.813s-32.812-14.72-32.812-32.813
			C441.226,370.958,455.945,356.238,474.037,356.238 M474.037,399.82c5.937,0,10.768-4.831,10.768-10.769
			c0-5.938-4.831-10.769-10.768-10.769c-5.937,0-10.768,4.831-10.768,10.769C463.27,394.989,468.099,399.82,474.037,399.82
			 M474.037,355.238c-18.644,0-33.812,15.168-33.812,33.813c0,18.645,15.168,33.813,33.812,33.813
			c18.644,0,33.812-15.168,33.812-33.813C507.849,370.406,492.681,355.238,474.037,355.238L474.037,355.238z M474.037,398.82
			c-5.386,0-9.768-4.382-9.768-9.769c0-5.386,4.382-9.769,9.768-9.769c5.386,0,9.768,4.382,9.768,9.769
			C483.805,394.438,479.423,398.82,474.037,398.82L474.037,398.82z"></path>
	</g>
</g>
</svg>
