<?xml version="1.0" encoding="iso-8859-1"?>
<!-- Generator: Adobe Illustrator 20.1.0, SVG Export Plug-In . SVG Version: 6.00 Build 0)  -->
<svg version="1.1" id="Layer_1" xmlns="http://www.w3.org/2000/svg" xmlns:xlink="http://www.w3.org/1999/xlink" x="0px" y="0px"
	 viewBox="-49 141 512 512" style="enable-background:new -49 141 512 512;" xml:space="preserve">
<path d="M341.906,552.615c-9.24,0-16.731,7.491-16.731,16.731v33.462c0,27.676,22.516,50.192,50.192,50.192
	s50.192-22.517,50.192-50.195V244.139l17.478-17.478c19.569-19.569,19.569-51.411,0-70.982c-19.571-19.573-51.415-19.571-70.983,0
	L-29.038,556.77c-19.568,19.571-19.568,51.413,0,70.983h0.001c19.616,19.616,51.366,19.62,70.983,0l47.355-47.355
	c2.449,17.338,10.323,34.048,23.628,47.355c32.618,32.618,85.687,32.617,118.304,0c32.694-32.694,32.699-85.608,0-118.303
	c-13.307-13.307-30.017-21.179-47.356-23.628l35.525-35.525l35.49,35.492c6.532,6.534,17.126,6.535,23.661,0
	c6.534-6.533,6.534-17.127,0-23.661l-35.49-35.492l47.322-47.322l35.49,35.492c3.267,3.268,7.549,4.901,11.83,4.901
	s8.564-1.634,11.83-4.901c6.534-6.533,6.534-17.126,0-23.661l-35.49-35.492L392.21,277.6v325.205
	c0,9.227-7.617,16.733-16.842,16.733c-9.225,0-16.731-7.505-16.731-16.731v-33.462C358.637,560.106,351.146,552.615,341.906,552.615
	z M18.285,604.093c-6.525,6.524-17.137,6.523-23.662,0h0.001c-6.524-6.524-6.524-17.138-0.001-23.662l82.814-82.813l23.662,23.662
	L18.285,604.093z M207.572,533.109c19.619,19.619,19.617,51.364,0,70.983c-19.572,19.568-51.413,19.569-70.984,0
	c-15.422-15.424-18.68-38.465-9.794-57.118l33.456,33.456c6.534,6.534,17.127,6.534,23.661,0c6.534-6.533,6.534-17.127,0-23.661
	l-33.456-33.456C169.198,514.385,192.203,517.739,207.572,533.109z M124.759,497.618l-23.662-23.662l294.618-294.617
	c6.525-6.523,17.138-6.523,23.661,0c6.524,6.524,6.524,17.137,0.001,23.661L124.759,497.618z"/>
</svg>
