<?xml version="1.0" encoding="iso-8859-1"?>
<!-- Generator: Adobe Illustrator 20.1.0, SVG Export Plug-In . SVG Version: 6.00 Build 0)  -->
<svg version="1.1" id="Capa_1" xmlns="http://www.w3.org/2000/svg" xmlns:xlink="http://www.w3.org/1999/xlink" x="0px" y="0px"
	 viewBox="0 0 60 60" style="enable-background:new 0 0 60 60;" xml:space="preserve">
<g>
	<g>
		<path d="M42.628,32.336h-8.153c-2.231,0-4.045,1.814-4.045,4.045v6.253c0,2.231,1.815,4.046,4.045,4.046h8.153
			c2.232,0,4.046-1.814,4.046-4.046v-6.253C46.674,34.15,44.859,32.336,42.628,32.336z M43.73,42.634
			c0,0.613-0.502,1.104-1.103,1.104h-8.153c-0.613,0-1.104-0.503-1.104-1.104v-6.253c0-0.613,0.503-1.104,1.104-1.104h8.153
			c0.612,0,1.103,0.504,1.103,1.104V42.634z"/>
		<path d="M60,20.971c0-0.258-0.062-0.503-0.196-0.724L50.879,4.555c-0.258-0.454-0.748-0.748-1.275-0.748H10.384
			c-0.527,0-1.018,0.282-1.275,0.748L0.196,20.247C0.074,20.468,0,20.713,0,20.971c0,3.519,2.121,6.534,5.149,7.871v25.881
			c0,0.809,0.662,1.471,1.471,1.471h8.128c0.012,0,0.025,0,0.037,0h11.401c0.012,0,0.025,0,0.037,0h27.143
			c0.81,0,1.471-0.662,1.471-1.471V29.025c0-0.062,0-0.11-0.012-0.159C57.867,27.53,60,24.501,60,20.971z M11.242,6.761h37.504
			l6.975,12.273H4.279L11.242,6.761z M42.701,21.964c-0.466,2.648-2.783,4.659-5.566,4.659s-5.1-2.011-5.566-4.659H42.701z
			 M28.443,21.964c-0.466,2.648-2.783,4.659-5.566,4.659s-5.1-2.011-5.578-4.659H28.443z M3.041,21.964h11.144
			c-0.466,2.648-2.795,4.659-5.578,4.659C5.823,26.635,3.506,24.612,3.041,21.964z M24.716,53.251h-8.459V37.375
			c0-1.153,0.932-2.098,2.096-2.098h4.279c1.152,0,2.096,0.932,2.096,2.098v15.876H24.716z M51.896,53.251H27.658V37.375
			c0-2.771-2.256-5.039-5.039-5.039h-4.279c-2.77,0-5.039,2.256-5.039,5.039v15.889h-5.21V29.565
			c0.171,0.012,0.343,0.012,0.515,0.012c2.967,0,5.59-1.508,7.135-3.801c1.545,2.292,4.168,3.801,7.135,3.801
			s5.578-1.508,7.135-3.801c1.544,2.292,4.168,3.801,7.123,3.801c2.967,0,5.578-1.508,7.123-3.801
			c1.545,2.292,4.169,3.801,7.136,3.801c0.172,0,0.331-0.012,0.503-0.012V53.251L51.896,53.251z M51.394,26.635
			c-2.783,0-5.101-2.011-5.566-4.659h11.144C56.494,24.612,54.177,26.635,51.394,26.635z"/>
	</g>
</g>
</svg>
