<?xml version="1.0" encoding="iso-8859-1"?>
<!-- Generator: Adobe Illustrator 20.1.0, SVG Export Plug-In . SVG Version: 6.00 Build 0)  -->
<svg version="1.1" id="Layer_1" xmlns="http://www.w3.org/2000/svg" xmlns:xlink="http://www.w3.org/1999/xlink" x="0px" y="0px"
	 viewBox="0 0 74.439 87.504" style="enable-background:new 0 0 74.439 87.504;" xml:space="preserve">
<path d="M66.753,1.6C65.985,0.575,64.79,0,63.554,0c-0.395,0-0.793,0.059-1.184,0.18c-1.614,0.499-2.74,1.96-2.813,3.648
	c-0.153,3.548-0.708,8.1-1.285,12.103l-1.641-2.267c-0.763-1.052-1.975-1.654-3.24-1.654c-0.28,0-0.564,0.029-0.846,0.09
	c-1.552,0.336-2.758,1.558-3.074,3.113l-0.151,0.733c-0.449,2.157-0.804,3.861-0.7,7.566c0.242,8.83,3.942,15.898,9.099,18.243
	c-0.298,0.782-0.7,1.498-1.235,2.136c-2.022,2.412-5.371,3.38-7.717,3.771c0.026-0.28,0.062-0.546,0.08-0.84
	c0.631-9.954-3.125-16.942-6.375-21.044c0.207-3.833,1.295-14.798,7.018-21.307c0.729-0.83,0.648-2.093-0.182-2.823
	c-0.83-0.729-2.093-0.648-2.822,0.181c-5.197,5.912-7.044,14.598-7.7,20.112c-0.386-0.323-0.64-0.51-0.703-0.556
	c-0.697-0.501-1.637-0.501-2.334,0c-0.063,0.045-0.317,0.233-0.702,0.555c-0.656-5.514-2.503-14.2-7.701-20.111
	c-0.73-0.83-1.993-0.91-2.823-0.181c-0.83,0.729-0.911,1.993-0.181,2.823c5.709,6.492,6.807,17.47,7.017,21.307
	c-3.25,4.103-7.005,11.09-6.374,21.043c0.021,0.329,0.059,0.629,0.09,0.941c-2.255-0.301-5.491-1.128-7.514-3.399
	c-0.659-0.74-1.154-1.606-1.486-2.594c5.176-2.328,8.893-9.406,9.137-18.259c0.102-3.708-0.253-5.412-0.702-7.57l-0.15-0.729
	c-0.316-1.555-1.522-2.777-3.074-3.113c-0.282-0.06-0.565-0.09-0.847-0.09c-1.265,0-2.477,0.602-3.239,1.654l-1.642,2.268
	c-0.577-4.003-1.132-8.556-1.285-12.104C14.201,2.14,13.075,0.68,11.46,0.18C11.07,0.059,10.671,0,10.277,0
	c-1.236,0-2.431,0.575-3.2,1.6c-2.513,3.349-6.772,10.559-7.065,21.22c-0.132,4.79,0.817,9.384,2.672,12.936
	c2.014,3.855,5.033,6.242,8.389,6.723c0.517,1.975,1.426,3.722,2.753,5.213c3.728,4.187,9.565,5.044,12.383,5.207
	c0.837,2.202,1.944,3.619,2.904,4.498c-0.85,1.053-1.325,2.471-1.325,4.248c0,2.094,0.732,3.857,1.976,5.079
	c-0.748,0.978-1.171,2.261-1.171,3.835c0,1.77,0.649,3.326,1.727,4.467c-1.212,0.907-2.975,2.5-2.975,5.049
	c0,3.385,2.574,6.139,5.738,6.139c0.028,0,0.057,0,0.086-0.001c1.032,0.816,2.309,1.292,3.691,1.292c0.018,0,0.035,0,0.053,0
	c0.019,0,0.038,0,0.057,0c1.382,0,2.658-0.476,3.69-1.292c0.029,0.001,0.058,0.001,0.087,0.001c3.164,0,5.737-2.754,5.737-6.139
	c0-2.603-1.819-4.212-2.941-5.084c1.059-1.139,1.694-2.68,1.694-4.432c0-1.574-0.423-2.857-1.171-3.836
	c1.243-1.221,1.976-2.984,1.976-5.078c0-1.776-0.475-3.194-1.324-4.247c0.968-0.886,2.086-2.316,2.925-4.549
	c2.844-0.255,8.938-1.311,12.652-5.72c1.151-1.366,1.952-2.926,2.439-4.648c3.365-0.473,6.395-2.861,8.412-6.726
	c1.854-3.551,2.804-8.146,2.672-12.935C73.525,12.157,69.266,4.948,66.753,1.6z M4.011,22.929c0.224-8.13,3.073-14.673,6.266-18.929
	c0.364,8.469,2.873,22.076,2.873,22.076l7.29-10.065c0.502,2.47,0.873,3.77,0.773,7.392c-0.175,6.358-2.472,11.755-5.601,14.03
	c-1.023,0.744-2.133,1.157-3.289,1.157c-0.045,0-0.09,0-0.136-0.002c-0.552-0.015-1.087-0.132-1.604-0.324
	C6.642,36.8,3.804,30.458,4.011,22.929z M42.485,80.074c0,1.182-0.777,2.139-1.737,2.139c-0.682,0-1.271-0.484-1.555-1.189
	c-0.11,1.393-1.063,2.48-2.223,2.48c-0.019,0-0.036-0.002-0.055-0.004c-0.018,0.002-0.037,0.004-0.055,0.004
	c-1.16,0-2.113-1.088-2.223-2.48c-0.284,0.705-0.873,1.189-1.555,1.189c-0.961,0-1.738-0.957-1.738-2.139
	c0-1.182,1.769-2.033,2.557-2.729c0,0,1.113,0.406,2.98,0.406c1.869,0,3.209-0.406,3.209-0.406
	C40.804,78.041,42.485,78.893,42.485,80.074z M36.915,59.449c1.113,0,2.855-0.102,2.855-0.102c1.629,0,2.271,0.408,2.271,2.297
	c0,1.887-1.029,2.895-2.659,2.895h-4.937c-1.629,0-2.658-1.008-2.658-2.895c0-1.889,0.643-2.297,2.272-2.297
	C34.06,59.348,35.802,59.449,36.915,59.449z M38.796,72.998h-3.762c-1.373,0-2.441-0.848-2.441-2.439
	c0-1.592,0.542-1.898,1.916-1.898h4.813c1.374,0,1.915,0.307,1.915,1.898C41.238,72.15,40.169,72.998,38.796,72.998z M43.868,51.525
	c-0.9,2.337-2.112,3.192-2.47,3.4c-0.626,0.101-2.411,0.354-4.482,0.354c-2.037,0-3.82-0.249-4.464-0.352
	c-0.408-0.239-1.601-1.11-2.487-3.408c-0.321-0.831-0.6-1.85-0.788-3.096c-0.086-0.572-0.157-1.183-0.2-1.854
	c-0.512-8.068,2.256-13.864,4.873-17.468c0.537-0.739,1.063-1.378,1.558-1.933c0.562-0.63,1.082-1.155,1.508-1.549
	c0.427,0.395,0.947,0.919,1.51,1.55c0.494,0.554,1.02,1.193,1.556,1.932c2.618,3.604,5.386,9.4,4.874,17.468
	c-0.042,0.661-0.111,1.263-0.196,1.827C44.47,49.659,44.19,50.688,43.868,51.525z M63.28,38.254
	c-0.527,0.199-1.073,0.318-1.636,0.333c-0.046,0.002-0.091,0.002-0.136,0.002c-1.146,0-2.249-0.409-3.265-1.142
	c-3.141-2.265-5.449-7.671-5.625-14.045c-0.101-3.622,0.271-4.922,0.773-7.392l7.289,10.065c0,0,2.508-13.607,2.873-22.076
	c3.193,4.256,6.042,10.799,6.267,18.929C70.027,30.438,67.204,36.769,63.28,38.254z"/>
</svg>
