<?xml version="1.0" encoding="iso-8859-1"?>
<!-- Generator: Adobe Illustrator 20.1.0, SVG Export Plug-In . SVG Version: 6.00 Build 0)  -->
<svg version="1.1" id="&#x421;&#x43B;&#x43E;&#x439;_1"
	 xmlns="http://www.w3.org/2000/svg" xmlns:xlink="http://www.w3.org/1999/xlink" x="0px" y="0px" viewBox="0 0 25 25"
	 style="enable-background:new 0 0 25 25;" xml:space="preserve">
<path style="fill:#00B0FF;" d="M24,1.18c0,0.047,0.008,0.348,0.023,0.902c0.015,0.555,0,1.234-0.047,2.039
	c-0.047,0.805-0.141,1.684-0.281,2.637c-0.141,0.953-0.367,1.852-0.68,2.695c-0.266,0.703-0.571,1.332-0.914,1.887
	c-0.344,0.555-0.891,1.16-1.641,1.816c-0.516,0.469-1.313,0.977-2.391,1.523c-1.078,0.547-2.039,1.063-2.883,1.547
	c-0.313,0.172-0.621,0.34-0.926,0.504s-0.551,0.309-0.738,0.434v3.867c0,0.109-0.023,0.215-0.07,0.316
	c-0.047,0.102-0.109,0.184-0.188,0.246l-2.789,2.766c-0.063,0.062-0.137,0.109-0.223,0.141c-0.086,0.031-0.176,0.047-0.27,0.047
	c-0.031,0-0.067-0.004-0.105-0.012c-0.039-0.008-0.074-0.02-0.105-0.035c-0.125-0.031-0.234-0.098-0.328-0.199
	c-0.094-0.102-0.156-0.215-0.188-0.34l-0.914-3.867l-1.688-1.875c-0.406-0.453-0.742-0.824-1.008-1.113
	c-0.266-0.289-0.469-0.527-0.609-0.715l-4.477-1.031c-0.141-0.031-0.258-0.09-0.352-0.176C0.117,15.098,0.047,14.992,0,14.867
	c-0.031-0.141-0.035-0.273-0.012-0.398c0.023-0.125,0.082-0.234,0.176-0.328l2.742-3c0.078-0.078,0.164-0.137,0.258-0.176
	c0.094-0.039,0.195-0.059,0.305-0.059h4.172c0.125-0.234,0.266-0.5,0.422-0.797C8.219,9.813,8.375,9.5,8.531,9.172
	c0.406-0.828,0.84-1.688,1.301-2.578c0.461-0.891,0.933-1.609,1.418-2.156c0.563-0.672,1.156-1.23,1.781-1.676
	c0.625-0.445,1.304-0.801,2.039-1.066c1-0.375,1.992-0.652,2.977-0.832c0.984-0.179,1.867-0.297,2.648-0.352
	c0.781-0.055,1.648-0.066,2.602-0.035c0.188,0.016,0.348,0.09,0.48,0.223C23.91,0.832,23.984,0.992,24,1.18L24,1.18z M4.922,21.195
	c0.094-0.188,0.195-0.387,0.305-0.598c0.109-0.211,0.25-0.434,0.422-0.668l1.102,1.008c-0.141,0.234-0.242,0.422-0.305,0.563
	c-0.063,0.141-0.133,0.297-0.211,0.469c-0.375,0.766-0.883,1.363-1.523,1.793c-0.641,0.43-1.961,0.645-3.961,0.645L0.023,24.43
	L0,23.656c0-1.875,0.195-3.137,0.586-3.785c0.39-0.648,0.984-1.168,1.781-1.559c0.203-0.094,0.402-0.191,0.598-0.293
	c0.195-0.101,0.402-0.238,0.621-0.41L4.5,18.781c-0.266,0.203-0.524,0.371-0.773,0.504c-0.25,0.133-0.477,0.254-0.68,0.363
	c-0.484,0.234-0.852,0.524-1.102,0.867c-0.25,0.344-0.391,1.148-0.422,2.414c1.313-0.047,2.148-0.223,2.508-0.527
	C4.391,22.098,4.688,21.696,4.922,21.195L4.922,21.195z M21.609,8.914C21.828,8.32,22,7.692,22.125,7.027
	c0.125-0.664,0.219-1.316,0.281-1.957c0.062-0.641,0.097-1.234,0.105-1.781c0.008-0.547,0.012-0.992,0.012-1.336
	c-0.328,0-0.742,0.012-1.242,0.035c-0.5,0.023-1.059,0.074-1.676,0.152c-0.617,0.078-1.27,0.192-1.957,0.34
	c-0.688,0.149-1.375,0.356-2.063,0.621c-0.625,0.219-1.195,0.516-1.711,0.891s-1.016,0.844-1.5,1.406
	c-0.406,0.484-0.832,1.16-1.277,2.027s-0.855,1.676-1.23,2.426c-0.219,0.438-0.426,0.844-0.621,1.219
	c-0.196,0.375-0.371,0.695-0.527,0.961c-0.078,0.109-0.172,0.199-0.281,0.27c-0.109,0.07-0.227,0.105-0.352,0.105H3.82l-1.688,1.781
	l3.422,0.773c0.078,0.016,0.152,0.047,0.223,0.094s0.137,0.102,0.199,0.164c0.078,0.094,0.527,0.598,1.348,1.512
	s1.574,1.754,2.262,2.52c0.047,0.047,0.086,0.098,0.117,0.152c0.031,0.055,0.055,0.114,0.07,0.176l0.656,2.836l1.594-1.734v-3.914
	c0-0.109,0.023-0.215,0.07-0.316c0.047-0.101,0.117-0.191,0.211-0.27c0.141-0.125,0.39-0.289,0.75-0.492
	c0.359-0.203,0.828-0.461,1.406-0.773c0.765-0.437,1.676-0.926,2.73-1.465s1.816-1.011,2.285-1.418
	c0.625-0.563,1.078-1.066,1.359-1.512S21.375,9.539,21.609,8.914L21.609,8.914z M16.523,4.93c0.828,0,1.535,0.293,2.121,0.879
	s0.879,1.293,0.879,2.121c0,0.828-0.293,1.535-0.879,2.121s-1.293,0.879-2.121,0.879c-0.828,0-1.535-0.293-2.121-0.879
	s-0.879-1.293-0.879-2.121c0-0.828,0.293-1.535,0.879-2.121S15.695,4.93,16.523,4.93L16.523,4.93z M16.523,9.43
	c0.406,0,0.758-0.148,1.055-0.445c0.297-0.297,0.445-0.648,0.445-1.055c0-0.406-0.149-0.758-0.445-1.055
	C17.281,6.578,16.93,6.43,16.523,6.43c-0.422,0-0.777,0.149-1.066,0.445c-0.289,0.297-0.434,0.649-0.434,1.055
	c0,0.406,0.144,0.758,0.434,1.055C15.746,9.281,16.102,9.43,16.523,9.43L16.523,9.43z"/>
</svg>
