<?xml version="1.0" encoding="iso-8859-1"?>
<!-- Generator: Adobe Illustrator 20.1.0, SVG Export Plug-In . SVG Version: 6.00 Build 0)  -->
<svg version="1.1" id="Capa_1" xmlns="http://www.w3.org/2000/svg" xmlns:xlink="http://www.w3.org/1999/xlink"
	 viewBox="-5.86 196.445 608 454" xml:space="preserve" width="100%" height="100%">
<g>
	<path d="M354.651,641.075c-7.177,0-14.186-2.374-19.886-6.709c-4.831,4.336-10.999,6.709-17.513,6.709
		c-18.588,0-92.88-27.913-138.281-46.674c-0.164-0.063-0.361-0.142-0.556-0.231c-25.578-10.579-44.084-19.048-49.462-22.635
		c-5.862-3.907-8.43-11.064-6.388-17.809c2.042-6.743,8.148-11.274,15.194-11.274h169.265c9.126,0,17.77,3.354,24.505,9.478
		c3.994-3.957,8.953-6.815,14.43-8.302c0.227-0.063,0.465-0.129,0.704-0.19c0.364-0.09,0.722-0.174,1.08-0.25
		c0.49-0.105,0.99-0.198,1.493-0.282c0.257-0.043,0.512-0.085,0.77-0.12c0.595-0.084,1.199-0.151,1.81-0.203l0.627-0.048
		c0.854-0.056,1.557-0.082,2.21-0.082h0.646c36.39,0,65.994-29.603,65.994-65.992c0-1.107-0.029-2.244-0.086-3.377
		c-0.011-0.211-0.028-0.42-0.047-0.629l-0.065-0.886c-0.041-0.606-0.081-1.214-0.142-1.815c-0.028-0.271-0.065-0.544-0.102-0.815
		l-0.124-0.986c-0.059-0.497-0.118-0.994-0.193-1.486c-0.043-0.28-0.095-0.561-0.147-0.842l-0.189-1.067
		c-0.075-0.442-0.151-0.886-0.239-1.322c-0.06-0.289-0.128-0.576-0.196-0.863l-0.237-1.036c-0.096-0.427-0.19-0.852-0.299-1.273
		c-0.08-0.315-0.17-0.623-0.26-0.932l-0.267-0.945c-0.115-0.416-0.229-0.832-0.356-1.242c-0.096-0.308-0.201-0.614-0.307-0.921
		l-0.319-0.946c-0.131-0.397-0.261-0.792-0.404-1.182c-0.115-0.319-0.241-0.632-0.366-0.944l-0.367-0.936
		c-0.143-0.369-0.285-0.738-0.44-1.103c-0.131-0.31-0.27-0.613-0.408-0.917l-0.407-0.903c-0.162-0.366-0.324-0.732-0.497-1.093
		c-0.145-0.302-0.301-0.602-0.456-0.901l-0.407-0.799c-0.191-0.381-0.383-0.763-0.585-1.137c-0.162-0.299-0.333-0.594-0.504-0.889
		l-0.467-0.816c-0.199-0.352-0.398-0.702-0.606-1.047c-0.174-0.289-0.355-0.569-0.536-0.85l-0.499-0.783
		c-0.219-0.348-0.438-0.694-0.667-1.035c-0.193-0.288-0.396-0.57-0.597-0.852l-0.559-0.79c-0.222-0.316-0.442-0.632-0.673-0.941
		c-0.206-0.277-0.421-0.549-0.635-0.82l-0.589-0.754c-0.237-0.307-0.475-0.612-0.721-0.912c-0.229-0.28-0.467-0.553-0.703-0.825
		l-0.626-0.727c-0.24-0.282-0.481-0.564-0.73-0.84c-0.229-0.252-0.464-0.499-0.699-0.746l-0.68-0.719
		c-0.262-0.277-0.523-0.556-0.791-0.826c-0.249-0.25-0.507-0.496-0.765-0.742l-0.564-0.543c-0.314-0.303-0.626-0.605-0.947-0.901
		c-0.261-0.237-0.531-0.473-0.802-0.707l-0.631-0.552c-0.312-0.273-0.623-0.548-0.942-0.814c-0.275-0.228-0.557-0.45-0.838-0.672
		l-0.637-0.506c-0.331-0.264-0.663-0.528-1.001-0.783c-0.29-0.22-0.586-0.431-0.882-0.642l-0.119-0.085l-39.293,30.995
		c-4.98,5.191-7.722,12.013-7.722,19.218v22.426c0,5.997-4.879,10.877-10.877,10.877c-5.997,0-10.876-4.88-10.876-10.877v-22.426
		c0-13.229,5.15-25.666,14.504-35.019c0.295-0.295,0.615-0.58,0.951-0.847l31.386-24.757c-0.358-0.093-0.72-0.178-1.082-0.264
		l-0.648-0.155c-0.442-0.105-0.884-0.211-1.33-0.305c-0.415-0.088-0.834-0.166-1.254-0.244l-0.502-0.094
		c-0.487-0.091-0.975-0.182-1.466-0.261c-0.424-0.068-0.852-0.125-1.278-0.183l-0.543-0.073c-0.484-0.065-0.968-0.131-1.456-0.184
		c-0.453-0.048-0.91-0.087-1.368-0.125l-0.457-0.038c-0.499-0.043-0.999-0.085-1.501-0.113c-0.464-0.026-0.932-0.042-1.399-0.057
		l-0.229-0.008c-0.379-0.013-0.758-0.024-1.138-0.031c-14.47,3.235-29.399,4.874-44.377,4.874c-15.853,0-31.63-1.833-46.894-5.45
		c-30.277-7.174-58.942-21.46-82.896-41.313l-44.537-36.909l-39.856-22.775H14.278c-5.998,0-10.877-4.879-10.877-10.876
		c0-5.998,4.879-10.877,10.877-10.877h45.484L3.981,255.3c-4.276-2.444-6.379-7.476-5.116-12.235
		c1.265-4.76,5.588-8.085,10.513-8.085h257.218c4.294-19.876,21.912-34.171,42.361-34.171c19.646,0,37.117,13.637,41.985,32.589
		l43.015,1.583c111.811,0.098,202.822,91.183,202.824,203.043c0,111.963-91.088,203.052-203.051,203.052H354.651z M240.224,595.147
		c40.613,15.207,69.151,24.183,77.027,24.183c2.489,0,4.515-2.024,4.515-4.514v-35.855c0-8.132-6.616-14.747-14.748-14.747H163.199
		c6.298,2.763,13.649,5.882,21.645,9.181h114.422c5.997,0,10.876,4.879,10.876,10.876c0,5.997-4.879,10.877-10.876,10.877H240.224z
		 M344.375,571.06c-0.563,1.339-0.856,2.79-0.856,4.281v32.857c0,6.138,4.993,11.131,11.131,11.131h39.079
		c48.349,0,93.855-18.88,128.137-53.161c34.282-34.282,53.161-79.788,53.16-128.137c0-46.729-17.802-91.132-50.126-125.029
		c-31.847-33.396-74.516-53.227-120.297-55.948v49.75c0,30.86-9.635,60.054-27.89,84.583c5.309,1.335,10.466,3.157,15.373,5.432
		l7.309-5.764c1.939-1.529,4.267-2.337,6.73-2.337c3.355,0,6.47,1.51,8.546,4.141c1.799,2.281,2.603,5.126,2.262,8.012
		c-0.315,2.661-1.567,5.062-3.55,6.83c40.626-2.518,77.128-26.183,95.935-62.491c1.876-3.625,5.579-5.877,9.663-5.877
		c1.727,0,3.454,0.422,4.997,1.222c2.58,1.336,4.484,3.597,5.364,6.365c0.879,2.769,0.627,5.714-0.709,8.293
		c-20.067,38.74-57.444,65.772-100.315,72.693c8.465,12.69,13.46,27.325,14.499,42.522c15.216,9.36,32.769,14.304,50.813,14.303
		c13.722-0.001,26.962-2.816,39.353-8.364c1.41-0.633,2.905-0.954,4.441-0.954c4.281,0,8.18,2.526,9.931,6.435
		c1.188,2.651,1.272,5.606,0.236,8.321c-1.035,2.715-3.065,4.863-5.717,6.051c-15.192,6.805-31.423,10.255-48.241,10.255
		c-18.137,0-36.227-4.195-52.449-12.148c-0.971,4.669-2.328,9.268-4.045,13.707l4.742,13.032
		c7.168,19.691,20.163,36.259,37.58,47.912c2.415,1.615,4.056,4.074,4.621,6.925c0.564,2.85-0.014,5.749-1.629,8.163
		c-2.023,3.023-5.405,4.829-9.048,4.829c-2.153,0-4.242-0.636-6.04-1.838c-20.118-13.463-35.445-32.359-44.453-54.766
		c-16.778,20.32-41.274,31.919-67.62,31.919h-0.646c-0.348,0-0.692,0.021-1.033,0.053l-0.165,0.02
		c-0.378,0.044-0.656,0.085-0.931,0.139l-0.103,0.019c-3.238,0.682-5.953,2.697-7.524,5.548l-0.094,0.213l-0.04,0.039
		c-0.116,0.226-0.226,0.456-0.326,0.689L344.375,571.06z M149.297,313.283c0.547,0.314,1.066,0.673,1.543,1.069l45.262,37.511
		c32.45,26.893,73.749,41.703,116.289,41.703c12.589,0,25.169-1.316,37.399-3.911c21.323-22.437,33.061-51.841,33.061-82.849V256.34
		l-31.972-1.177c-5,19.108-22.064,32.346-41.923,32.346c-19.07,0-35.963-12.598-41.48-30.776H50.334l53.272,30.441h151.433
		c16.189,0,29.359,13.17,29.359,29.359c0,16.189-13.17,29.359-29.359,29.359h-12.195c-5.998,0-10.877-4.879-10.877-10.877
		c0-5.997,4.879-10.876,10.877-10.876h12.195c4.194,0,7.606-3.412,7.606-7.606s-3.412-7.607-7.606-7.607H141.674L149.297,313.283z
		 M308.957,222.561c-11.91,0-21.599,9.688-21.599,21.596c0,11.91,9.689,21.599,21.599,21.599c11.291,0,20.707-8.79,21.514-20.044
		c-0.123-0.736-0.173-1.472-0.146-2.191c0.014-0.385,0.054-0.786,0.127-1.245C329.489,231.206,320.083,222.561,308.957,222.561z"></path>
	<path d="M308.957,202.309c19.878,0,36.552,13.936,40.795,32.546l44.15,1.626c111.053,0.099,201.377,90.476,201.379,201.543
		c0,111.137-90.415,201.552-201.551,201.552h-39.08c-7.58,0-14.541-2.7-19.971-7.19c-4.48,4.44-10.637,7.19-17.428,7.19
		c-17.523,0-87.961-26.003-137.708-46.561c-0.174-0.066-0.344-0.135-0.513-0.211c-24.415-10.1-43.757-18.854-49.246-22.516
		c-5.31-3.539-7.634-10.019-5.785-16.126c1.849-6.105,7.377-10.209,13.759-10.209h169.265c9.559,0,18.231,3.855,24.554,10.089
		c3.965-4.314,9.075-7.418,14.774-8.966c0.225-0.063,0.451-0.125,0.679-0.183c0.34-0.084,0.681-0.164,1.022-0.236
		c0.473-0.102,0.949-0.19,1.43-0.271c0.241-0.04,0.482-0.08,0.726-0.113c0.574-0.081,1.151-0.146,1.734-0.195
		c0.197-0.016,0.396-0.032,0.595-0.045c0.7-0.046,1.403-0.079,2.114-0.079h0.646c37.217,0,67.494-30.275,67.494-67.492
		c0-1.158-0.03-2.308-0.088-3.452c-0.02-0.392-0.062-0.777-0.089-1.168c-0.051-0.747-0.096-1.497-0.171-2.238
		c-0.048-0.462-0.117-0.915-0.174-1.373c-0.081-0.664-0.154-1.33-0.254-1.988c-0.072-0.472-0.168-0.939-0.25-1.408
		c-0.111-0.633-0.213-1.271-0.34-1.896c-0.099-0.484-0.222-0.961-0.33-1.44c-0.138-0.605-0.266-1.21-0.419-1.808
		c-0.125-0.489-0.272-0.968-0.409-1.452c-0.162-0.58-0.316-1.164-0.493-1.736c-0.151-0.487-0.324-0.965-0.486-1.447
		c-0.188-0.56-0.366-1.122-0.568-1.675c-0.176-0.482-0.373-0.956-0.561-1.434c-0.212-0.54-0.414-1.084-0.64-1.617
		c-0.201-0.477-0.422-0.941-0.634-1.413c-0.234-0.522-0.461-1.049-0.708-1.564c-0.225-0.466-0.468-0.921-0.702-1.381
		c-0.257-0.508-0.509-1.02-0.778-1.52c-0.246-0.455-0.511-0.897-0.767-1.345c-0.281-0.493-0.555-0.989-0.848-1.473
		c-0.269-0.445-0.557-0.878-0.835-1.316c-0.3-0.473-0.594-0.949-0.906-1.413c-0.292-0.434-0.6-0.855-0.901-1.282
		c-0.321-0.454-0.636-0.913-0.967-1.358c-0.313-0.42-0.642-0.826-0.963-1.238c-0.341-0.436-0.675-0.878-1.026-1.306
		c-0.332-0.405-0.681-0.798-1.022-1.195c-0.36-0.417-0.714-0.841-1.084-1.25c-0.352-0.389-0.718-0.764-1.077-1.146
		c-0.379-0.399-0.752-0.805-1.141-1.196c-0.37-0.371-0.753-0.729-1.131-1.094c-0.396-0.383-0.789-0.768-1.195-1.141
		c-0.388-0.354-0.788-0.694-1.183-1.04c-0.414-0.362-0.824-0.729-1.248-1.081c-0.404-0.336-0.82-0.657-1.232-0.985
		c-0.432-0.343-0.859-0.689-1.298-1.02c-0.422-0.318-0.855-0.62-1.283-0.929c-0.221-0.159-0.443-0.319-0.667-0.476l-40.258,31.756
		c-5.3,5.486-8.212,12.686-8.212,20.332v22.426c0,5.18-4.198,9.377-9.377,9.377s-9.376-4.197-9.376-9.377v-22.426
		c0-12.828,4.994-24.888,14.065-33.958c0.26-0.26,0.535-0.504,0.823-0.733l33.675-26.563c-0.364-0.113-0.73-0.22-1.097-0.327
		c-0.542-0.157-1.083-0.319-1.631-0.464c-0.52-0.137-1.049-0.259-1.575-0.385c-0.555-0.131-1.107-0.266-1.667-0.385
		c-0.53-0.112-1.065-0.209-1.6-0.309c-0.563-0.105-1.128-0.212-1.697-0.304c-0.539-0.086-1.084-0.156-1.627-0.23
		c-0.575-0.078-1.147-0.158-1.727-0.22c-0.546-0.059-1.098-0.103-1.647-0.149c-0.584-0.049-1.167-0.1-1.754-0.134
		c-0.553-0.031-1.109-0.047-1.665-0.066c-0.446-0.015-0.893-0.028-1.342-0.034c-14.487,3.252-29.354,4.877-44.224,4.877
		c-15.663,0-31.328-1.804-46.547-5.409c-30.052-7.121-58.505-21.3-82.285-41.008l-44.637-36.992l-40.314-23.038h-83.95
		c-5.179,0-9.377-4.197-9.377-9.376c0-5.18,4.198-9.377,9.377-9.377H65.41L4.725,253.998c-3.691-2.11-5.501-6.438-4.41-10.548
		c1.092-4.109,4.812-6.97,9.063-6.97h258.446C271.443,217.061,288.504,202.309,308.957,202.309 M308.957,267.256
		c12.238,0,22.257-9.575,23.022-21.625c-0.123-0.664-0.182-1.35-0.155-2.054c0.015-0.422,0.068-0.835,0.138-1.24
		c-0.934-11.884-10.885-21.276-23.005-21.276c-12.735,0-23.099,10.362-23.099,23.096
		C285.859,256.894,296.221,267.256,308.957,267.256 M308.957,286.009c-19.243,0-35.484-13.059-40.353-30.776H44.686l58.522,33.441
		h151.831c15.361,0,27.859,12.498,27.859,27.859c0,15.361-12.497,27.859-27.859,27.859h-12.195c-5.179,0-9.377-4.197-9.377-9.377
		c0-5.179,4.198-9.376,9.377-9.376h12.195c5.02,0,9.106-4.085,9.106-9.106c0-5.021-4.085-9.107-9.106-9.107H136.026l12.527,7.159
		c0.469,0.269,0.914,0.577,1.33,0.921l45.262,37.511c33.042,27.383,74.891,42.048,117.246,42.048c12.75,0,25.55-1.33,38.165-4.041
		c21.812-22.779,33.796-52.578,33.796-84.219v-51.912l-34.636-1.275C345.414,272.151,328.779,286.009,308.957,286.009
		 M392.287,398.571l8.036-6.338c1.721-1.356,3.768-2.015,5.802-2.015c2.772,0,5.518,1.224,7.368,3.57
		c3.207,4.066,2.511,9.962-1.556,13.168l-2.799,2.208c0.091,0.072,0.184,0.143,0.273,0.215
		c42.863-1.174,81.441-25.263,101.238-63.48c1.667-3.22,4.94-5.067,8.331-5.067c1.453,0.001,2.928,0.339,4.308,1.054
		c4.598,2.381,6.394,8.039,4.013,12.637c-20.49,39.557-58.337,66.062-101.574,72.261c9.009,12.735,14.661,28,15.643,44.511
		c15.781,9.883,33.982,14.936,52.261,14.936c13.604,0,27.253-2.802,39.966-8.495c1.245-0.559,2.547-0.823,3.828-0.823
		c3.582,0,7.002,2.067,8.561,5.548c2.117,4.726,0.001,10.273-4.725,12.39c-15.148,6.785-31.414,10.124-47.628,10.124
		c-18.485,0-36.897-4.358-53.542-12.873c-1.013,5.505-2.548,10.825-4.556,15.913l4.937,13.563
		c7.277,19.992,20.47,36.813,38.155,48.646c4.305,2.879,5.458,8.704,2.579,13.007c-1.808,2.702-4.776,4.163-7.801,4.163
		c-1.793,0-3.605-0.514-5.206-1.585c-20.621-13.799-36.088-33.313-44.833-56.483c-15.794,20.293-40.427,33.384-68.074,33.384h-0.646
		c-0.395,0-0.786,0.023-1.173,0.059c-0.099,0.009-0.197,0.023-0.296,0.034c-0.318,0.037-0.635,0.084-0.946,0.145
		c-0.066,0.013-0.13,0.022-0.193,0.036c-3.666,0.773-6.752,3.139-8.493,6.338c-0.001,0.002-0.002,0.005-0.004,0.007
		c-0.188,0.347-0.358,0.702-0.514,1.065c-0.006,0.018-0.015,0.035-0.023,0.053c-0.635,1.507-0.987,3.16-0.987,4.895v3.618v29.239
		c0,6.965,5.667,12.631,12.631,12.631h39.079c100.796,0,182.799-82.003,182.797-182.798c0-97.653-76.967-177.665-173.423-182.562
		v51.335c0,31.328-10.184,61.086-28.973,85.511C380.471,393.734,386.556,395.837,392.287,398.571 M184.546,574.895h114.72
		c5.178,0,9.376,4.196,9.376,9.376s-4.198,9.377-9.376,9.377h-67.273c38.058,14.443,75.46,27.183,85.258,27.183
		c3.316,0,6.015-2.698,6.015-6.014v-6.615v-29.24c0-8.959-7.289-16.247-16.248-16.247H156.143
		C163.829,566.195,173.608,570.384,184.546,574.895 M308.957,199.309c-20.749,0-38.68,14.227-43.555,34.171H9.378
		c-5.604,0-10.524,3.783-11.963,9.199c-1.438,5.417,0.956,11.142,5.821,13.923l50.877,29.072H14.278
		c-6.825,0-12.377,5.552-12.377,12.377c0,6.824,5.552,12.376,12.377,12.376h83.154l39.396,22.513l44.437,36.826
		c24.131,19.999,53.007,34.39,83.507,41.617c15.378,3.643,31.271,5.49,47.239,5.49c15.028,0,30.007-1.639,44.528-4.871
		c0.313,0.007,0.624,0.016,0.936,0.026l0.228,0.008c0.457,0.015,0.915,0.03,1.37,0.055c0.485,0.028,0.971,0.069,1.457,0.11
		l0.216,0.018l0.246,0.021c0.445,0.037,0.89,0.074,1.331,0.122c0.474,0.051,0.944,0.115,1.416,0.179l0.229,0.031l0.313,0.042
		c0.415,0.056,0.83,0.111,1.241,0.177c0.477,0.077,0.951,0.165,1.424,0.254l0.198,0.037l0.311,0.058
		c0.406,0.076,0.813,0.151,1.216,0.236c0.002,0,0.003,0.001,0.005,0.001l-28.946,22.832c-0.387,0.307-0.75,0.63-1.086,0.966
		c-9.637,9.637-14.943,22.45-14.943,36.08v22.426c0,6.824,5.552,12.377,12.376,12.377s12.377-5.553,12.377-12.377v-22.426
		c0-6.781,2.567-13.203,7.233-18.105l38.32-30.227c0.02,0.015,0.039,0.029,0.059,0.044c0.327,0.247,0.647,0.503,0.969,0.759
		l0.271,0.216l0.372,0.294c0.272,0.214,0.543,0.429,0.81,0.649c0.307,0.256,0.608,0.521,0.909,0.785l0.28,0.246l0.36,0.314
		c0.261,0.227,0.522,0.453,0.776,0.686c0.303,0.277,0.604,0.57,0.906,0.863l0.227,0.219l0.351,0.336
		c0.249,0.237,0.497,0.475,0.74,0.719c0.254,0.255,0.505,0.522,0.756,0.789l0.332,0.353l0.355,0.374
		c0.227,0.238,0.453,0.476,0.674,0.72c0.238,0.264,0.469,0.534,0.7,0.805l0.339,0.395l0.299,0.346
		c0.227,0.261,0.454,0.521,0.673,0.789c0.239,0.291,0.467,0.586,0.695,0.881l0.287,0.37l0.313,0.398
		c0.205,0.259,0.41,0.519,0.608,0.784c0.22,0.296,0.433,0.601,0.645,0.904l0.278,0.396l0.289,0.407
		c0.193,0.272,0.387,0.542,0.573,0.818c0.222,0.329,0.433,0.666,0.645,1.001l0.217,0.343l0.288,0.45
		c0.173,0.269,0.347,0.536,0.511,0.81c0.204,0.336,0.395,0.674,0.586,1.013l0.225,0.397l0.251,0.434
		c0.163,0.282,0.327,0.564,0.483,0.852c0.193,0.359,0.379,0.729,0.565,1.098l0.176,0.349l0.24,0.468
		c0.147,0.286,0.296,0.572,0.436,0.863c0.163,0.34,0.319,0.693,0.476,1.046l0.197,0.442l0.217,0.477
		c0.133,0.29,0.266,0.58,0.391,0.876c0.148,0.352,0.285,0.706,0.422,1.061l0.189,0.485l0.185,0.463
		c0.119,0.3,0.239,0.599,0.351,0.902c0.139,0.379,0.264,0.759,0.389,1.14l0.153,0.461l0.173,0.507
		c0.1,0.291,0.201,0.582,0.293,0.878c0.121,0.39,0.23,0.79,0.341,1.191l0.128,0.462l0.146,0.505
		c0.085,0.293,0.171,0.585,0.247,0.882c0.104,0.41,0.196,0.821,0.288,1.232l0.112,0.499c0.041,0.184,0.086,0.37,0.13,0.558
		c0.064,0.27,0.13,0.542,0.186,0.815c0.085,0.419,0.157,0.846,0.23,1.272l0.095,0.545c0.031,0.18,0.064,0.362,0.099,0.546
		c0.05,0.265,0.099,0.53,0.14,0.797c0.071,0.472,0.129,0.952,0.186,1.434l0.057,0.464c0.023,0.186,0.047,0.364,0.07,0.544
		c0.035,0.257,0.07,0.515,0.097,0.774c0.059,0.578,0.098,1.169,0.137,1.759l0.025,0.375c0.012,0.178,0.027,0.357,0.043,0.537
		c0.017,0.191,0.033,0.383,0.043,0.576c0.056,1.109,0.084,2.22,0.084,3.303c0,35.562-28.932,64.492-64.494,64.492h-0.646
		c-0.685,0-1.42,0.027-2.31,0.086c-0.177,0.011-0.359,0.025-0.54,0.04l-0.096,0.008c-0.661,0.056-1.3,0.128-1.917,0.215
		c-0.258,0.035-0.527,0.08-0.798,0.125c-0.561,0.093-1.073,0.19-1.568,0.297c-0.364,0.077-0.738,0.164-1.111,0.257
		c-0.267,0.067-0.516,0.136-0.763,0.204c-5.258,1.429-10.07,4.074-14.061,7.715c-6.85-5.79-15.43-8.947-24.464-8.947H137.759
		c-7.712,0-14.396,4.959-16.63,12.34c-2.234,7.382,0.576,15.215,6.993,19.491c5.451,3.636,24.036,12.148,49.723,22.775
		c0.194,0.086,0.39,0.166,0.589,0.242c45.515,18.808,120.017,46.773,138.818,46.773c6.477,0,12.63-2.219,17.587-6.295
		c5.773,4.075,12.715,6.295,19.811,6.295h39.08c112.79,0,204.551-91.762,204.551-204.552
		c-0.002-112.665-91.658-204.41-204.321-204.543l-41.858-1.541c-2.518-8.851-7.783-16.833-14.997-22.669
		C329.162,202.846,319.166,199.309,308.957,199.309L308.957,199.309z M308.957,264.256c-11.082,0-20.099-9.016-20.099-20.099
		c0-11.081,9.016-20.096,20.099-20.096c10.293,0,19.006,7.954,19.984,18.17c-0.064,0.445-0.102,0.847-0.115,1.242
		c-0.028,0.753,0.018,1.527,0.136,2.301C328.129,256.165,319.406,264.256,308.957,264.256L308.957,264.256z M308.957,289.009
		c10.179,0,20.151-3.519,28.082-9.909c7.156-5.767,12.407-13.648,14.968-22.395l29.345,1.08v49.02
		c0,30.467-11.473,59.364-32.329,81.478c-11.984,2.51-24.305,3.782-36.632,3.782c-42.191,0-83.15-14.688-115.332-41.358
		l-45.262-37.511c-0.543-0.45-1.132-0.858-1.751-1.213l-2.724-1.557h107.717c3.367,0,6.106,2.739,6.106,6.107
		c0,3.367-2.739,6.106-6.106,6.106h-12.195c-6.825,0-12.377,5.552-12.377,12.376c0,6.825,5.552,12.377,12.377,12.377h12.195
		c17.016,0,30.859-13.843,30.859-30.859c0-17.016-13.844-30.859-30.859-30.859H104.005l-48.022-27.441h210.396
		C272.414,276.465,289.602,289.009,308.957,289.009L308.957,289.009z M379.223,390.5c17.602-24.416,26.88-53.253,26.88-83.695
		v-48.152c44.8,3.059,86.496,22.65,117.711,55.385c32.058,33.617,49.712,77.652,49.712,123.994
		c0.001,24.232-4.76,47.754-14.149,69.915c-9.067,21.402-22.045,40.635-38.571,57.16c-16.526,16.526-35.758,29.504-57.161,38.572
		c-22.161,9.39-45.684,14.15-69.915,14.15H354.65c-5.311,0-9.631-4.32-9.631-9.631v-29.239v-3.618c0-1.279,0.249-2.523,0.739-3.698
		c0.016-0.035,0.031-0.072,0.047-0.11c0.064-0.149,0.132-0.297,0.203-0.441l0.067-0.07l0.162-0.367
		c1.364-2.438,3.698-4.16,6.421-4.734l0.148-0.027c0.219-0.042,0.455-0.078,0.719-0.109l0.108-0.013l0.106-0.013
		c0.35-0.032,0.642-0.048,0.908-0.048h0.646c25.969,0,50.172-11.08,67.173-30.575c9.229,21.689,24.383,39.996,44.066,53.168
		c2.045,1.368,4.423,2.092,6.874,2.092c4.145,0,7.992-2.055,10.294-5.495c1.838-2.747,2.496-6.046,1.854-9.288
		c-0.643-3.244-2.51-6.043-5.258-7.88c-17.15-11.475-29.946-27.789-37.004-47.18l-4.552-12.505c1.427-3.757,2.6-7.624,3.504-11.548
		c15.98,7.518,33.664,11.476,51.39,11.476c17.031,0,33.468-3.494,48.854-10.386c3.017-1.352,5.327-3.797,6.505-6.886
		c1.178-3.089,1.083-6.452-0.27-9.469c-1.992-4.447-6.428-7.321-11.299-7.321c-1.749,0-3.45,0.365-5.056,1.086
		c-12.197,5.462-25.232,8.233-38.738,8.233c-17.511,0-34.548-4.727-49.373-13.682c-1.113-14.416-5.728-28.314-13.44-40.546
		c20.096-3.589,39.354-11.627,55.962-23.393c18.021-12.766,32.954-29.955,43.187-49.707c1.521-2.936,1.807-6.287,0.807-9.438
		c-1.001-3.15-3.168-5.723-6.104-7.243c-1.756-0.909-3.722-1.39-5.688-1.39c-4.646,0-8.859,2.563-10.995,6.688
		c-9.457,18.256-23.6,33.633-40.897,44.467c-15.176,9.504-32.438,15.301-50.322,16.948c0.881-1.475,1.448-3.133,1.655-4.89
		c0.388-3.283-0.525-6.521-2.573-9.116c-2.362-2.995-5.906-4.712-9.724-4.712c-2.764,0-5.484,0.944-7.659,2.659l-6.589,5.197
		C387.805,393.239,383.569,391.708,379.223,390.5L379.223,390.5z M170.432,565.714h136.585c7.305,0,13.248,5.942,13.248,13.247
		v29.24v6.615c0,1.662-1.353,3.014-3.015,3.014c-7.085,0-32.816-7.971-68.677-21.183h50.692c6.824,0,12.376-5.553,12.376-12.377
		s-5.552-12.376-12.376-12.376H185.141C179.921,569.739,174.98,567.663,170.432,565.714L170.432,565.714z"></path>
</g>
</svg>
