<svg xmlns="http://www.w3.org/2000/svg" viewBox="0 0 60 60"><style>.st0{fill:#fff}.st1{font-family:&amp;apos;Roboto-Bold&amp;apos;}.st2{font-size:24px}.st3{font-size:10px}</style><circle class="st0" cx="30" cy="30" r="28.7" id="Слой_2"/><g id="Capa_1"><path d="M9.8 29.2c-.2-.2-.5-.3-.8-.3H8c-.6 0-1 .4-1 1 0 .3.1.6.4.8.1.2.4.3.7.3h1c.6 0 1-.4 1-1 0-.3-.1-.6-.3-.8zM45.7 44.1c-.4-.4-1-.4-1.4 0-.2.2-.3.5-.3.7s.1.5.3.7l.7.7c.4.4 1 .4 1.4 0s.4-1 0-1.4l-.7-.7z"/><path d="M59.9 32.4V32c0-.7.1-1.3.1-2C60 13.5 46.5 0 30 0S0 13.5 0 30c0 .8 0 1.5.1 2.2v.4C1.4 47.1 13 58.7 27.6 59.9h.4c.7 0 1.3.1 2 .1.8 0 1.5 0 2.2-.1h.4C47.1 58.6 58.7 47 59.9 32.4zM3.1 37.9c-.5-1.9-.9-3.8-1.1-5.7v-.3V30C2 14.6 14.6 2 30 2s28 12.6 28 28c0 .6 0 1.1-.1 1.7v.3c0 .5-.1 1-.1 1.5v.1c-.1 1.1-.4 2.3-.6 3.4-2.4 9.6-9.8 17.2-19.2 20-1.9.5-3.8.9-5.7 1.1H32c-.8-.1-1.4-.1-2-.1-.6 0-1.1 0-1.7-.1H28c-.5 0-1-.1-1.5-.1h-.1c-1.1-.1-2.3-.4-3.4-.6-9.4-2.5-17.1-9.9-19.9-19.3z"/><path d="M29.4 9.6c.2.2.4.4.8.4.6 0 1-.4 1-1V8c0-.3-.1-.6-.4-.8-.2-.2-.5-.3-.8-.3-.6 0-1 .4-1 1v1c0 .3.1.6.4.7zM29.4 52.6c.2.2.4.4.8.4.6 0 1-.4 1-1v-1c0-.3-.1-.6-.4-.8-.2-.2-.4-.4-.8-.4-.6 0-1 .4-1 1v1c0 .4.1.7.4.8zM50.4 30.6c.2.2.4.4.8.4h1c.6 0 1-.4 1-1 0-.3-.1-.6-.4-.8-.2-.2-.4-.4-.8-.4h-1c-.6 0-1 .4-1 1 0 .4.1.7.4.8zM44.2 15.8c.4.5 1.1.5 1.5.1l.7-.7c.4-.4.4-1 0-1.4h-.1v-.1c-.4-.4-1-.4-1.4 0l-.7.7c-.4.3-.4.9 0 1.4zM14.4 44l-.7.7c-.4.4-.4 1 0 1.4.2.2.5.3.7.3.3 0 .5-.1.7-.3l.7-.7c.4-.4.4-1 0-1.4-.3-.4-1-.4-1.4 0zM13.9 15.1s0 .1 0 0l.7.7c.4.4 1 .4 1.4 0 .4-.4.4-1 0-1.4l-.1-.1-.7-.7c-.4-.4-1-.4-1.4 0s-.4 1 0 1.4l.1.1z"/><text transform="translate(23.176 35.375)"><tspan x="0" y="0" class="st1 st2">1</tspan><tspan x="-2.6" y="10" class="st1 st3">мин</tspan></text></g></svg>