<svg xmlns="http://www.w3.org/2000/svg" viewBox="0 0 60 60"><path d="M52.2 42.4l-5.6 8-3.9-3.2c-.4-.4-1.1-.3-1.4.1-.4.4-.3 1.1.1 1.4l4.8 3.9c.2.1.4.2.6.2h.1c.3 0 .5-.2.7-.4l6.2-8.9c.3-.5.2-1.1-.2-1.4-.5-.2-1.1-.1-1.4.3zM31 26V15.9c0-.6-.4-1-1-1s-1 .4-1 1V26c-1.4.4-2.6 1.5-2.9 3H19c-.6 0-1 .4-1 1s.4 1 1 1h7.2c.5 1.7 2 2.9 3.8 2.9 2.2 0 4-1.8 4-4 0-1.9-1.3-3.4-3-3.9zm-1 5.9c-1.1 0-2-.9-2-2s.9-2 2-2 2 .9 2 2-.9 2-2 2zM30 9.9c.6 0 1-.4 1-1v-1c0-.6-.4-1-1-1s-1 .4-1 1v1c0 .5.4 1 1 1zM30 49.9c-.6 0-1 .4-1 1v1c0 .6.4 1 1 1s1-.4 1-1v-1c0-.6-.4-1-1-1zM51 30.9h1c.6 0 1-.4 1-1s-.4-1-1-1h-1c-.6 0-1 .4-1 1s.4 1 1 1zM9 28.9H8c-.6 0-1 .4-1 1s.4 1 1 1h1c.6 0 1-.4 1-1s-.4-1-1-1zM44.8 16c.3 0 .5-.1.7-.3l.7-.7c.4-.4.4-1 0-1.4s-1-.4-1.4 0l-.7.7c-.4.4-.4 1 0 1.4.2.2.5.3.7.3zM14.4 44l-.7.7c-.4.4-.4 1 0 1.4.2.2.5.3.7.3s.5-.1.7-.3l.7-.7c.4-.4.4-1 0-1.4s-1-.4-1.4 0zM15.2 13.6c-.4-.4-1-.4-1.4 0s-.4 1 0 1.4l.7.7c.2.2.5.3.7.3s.5-.1.7-.3c.4-.4.4-1 0-1.4l-.7-.7z"/><path d="M60 30C60 13.5 46.5 0 30 0S0 13.5 0 30s13.5 30 30 30c3.5 0 7-.6 10.3-1.8 1.9 1.2 4.2 1.8 6.7 1.8 7.2 0 13-5.8 13-13 0-2.4-.7-4.7-1.8-6.7C59.4 37 60 33.5 60 30zM38.4 56.7c-2.7.9-5.5 1.3-8.4 1.3C14.6 58 2 45.4 2 30S14.6 2 30 2s28 12.6 28 28c0 2.9-.4 5.7-1.3 8.4-.1-.1-.2-.2-.2-.3l-.5-.5c-.2-.2-.3-.3-.5-.4-.2-.1-.3-.3-.5-.4-.2-.1-.4-.3-.6-.4-.2-.1-.3-.2-.5-.3-.2-.1-.4-.3-.6-.4-.2-.1-.4-.2-.5-.3l-.6-.3c-.2-.1-.4-.2-.6-.2-.2-.1-.4-.2-.6-.2-.2-.1-.5-.1-.7-.2-.2 0-.4-.1-.5-.1-.3-.1-.6-.1-.9-.1-.1 0-.3 0-.4-.1-.6-.2-1-.2-1.5-.2-7.2 0-13 5.8-13 13 0 .5 0 .9.1 1.4 0 .1 0 .3.1.4 0 .3.1.6.1.9 0 .2.1.4.1.5.1.2.1.5.2.7.1.2.1.4.2.6.1.2.2.4.2.6l.3.6c.1.2.2.4.3.5.1.2.2.4.4.6.1.2.2.3.3.5.1.2.3.4.4.6.1.2.3.3.4.5.1.2.3.3.4.5l.5.5c.2.1.3.2.4.3zM47 58c-2.2 0-4.3-.7-6-1.8-.4-.2-.7-.5-1-.8l-.2-.2c-.2-.2-.5-.4-.7-.7l-.3-.3c-.2-.2-.4-.4-.5-.6-.1-.1-.2-.2-.3-.4l-.6-.9c0-.1-.1-.2-.1-.2-.2-.3-.3-.6-.5-1-.1-.1-.1-.3-.1-.4-.1-.3-.2-.5-.3-.8 0-.1-.1-.3-.1-.4-.1-.3-.1-.6-.2-.9 0-.1 0-.3-.1-.4 0-.4-.1-.8-.1-1.3 0-6.1 4.9-11 11-11 .4 0 .9 0 1.3.1.1 0 .3 0 .4.1.3 0 .6.1.9.2.1 0 .3.1.4.1.3.1.5.2.8.3.1 0 .3.1.4.1.3.1.7.3 1 .4.1 0 .2.1.3.1l.9.6c.1.1.2.2.4.3.2.2.4.3.6.5l.3.3.7.7.2.2c.3.3.5.7.8 1 1.1 1.7 1.8 3.8 1.8 6C58 53.1 53.1 58 47 58z"/></svg>