<svg xmlns="http://www.w3.org/2000/svg" viewBox="0 0 57 57"><path d="M55.7 55.3l-6-6.2c1.7-1.9 2.8-4.5 2.8-7.2 0-6-4.8-10.8-10.8-10.8S31 35.9 31 41.8s4.8 10.8 10.8 10.8c2.4 0 4.7-.8 6.5-2.2l6 6.3c.2.2.5.3.7.3.2 0 .5-.1.7-.3.4-.4.4-1 0-1.4zM33 41.8c0-4.8 3.9-8.8 8.8-8.8s8.8 3.9 8.8 8.8-3.9 8.8-8.8 8.8-8.8-3.9-8.8-8.8zM28 12c-.6 0-1 .4-1 1s.4 1 1 1h18c.6 0 1-.4 1-1s-.4-1-1-1H28zM47 27c0-.6-.4-1-1-1H28c-.6 0-1 .4-1 1s.4 1 1 1h18c.5 0 1-.4 1-1zM21.6 7.2c-.4-.4-1.1-.3-1.4.1L14 14.6l-3.8-2.9c-.5-.3-1.2-.2-1.5.3-.3.4-.2 1.1.2 1.4l4.6 3.4c.2.1.4.2.6.2.3 0 .6-.1.8-.4l6.9-8c.2-.4.2-1-.2-1.4zM21.6 21.2c-.4-.4-1.1-.3-1.4.1L14 28.6l-3.8-2.9c-.5-.3-1.2-.2-1.5.3-.3.4-.2 1.1.2 1.4l4.6 3.4c.2.1.4.2.6.2.3 0 .6-.1.8-.4l6.9-8c.2-.4.2-1-.2-1.4zM20.2 36.3L14 43.6l-3.8-2.9c-.5-.3-1.2-.2-1.5.3-.3.4-.2 1.1.2 1.4l4.6 3.4c.2.1.4.2.6.2.3 0 .6-.1.8-.3l6.9-8c.4-.4.3-1-.1-1.4-.5-.4-1.2-.4-1.5 0z"/><path d="M27 52H13.2C7.6 52 3 47.4 3 41.8V12.2C3 6.6 7.6 2 13.2 2h29.6C48.4 2 53 6.6 53 12.2V33c0 .6.4 1 1 1s1-.4 1-1V12.2C55 5.5 49.5 0 42.8 0H13.2C6.5 0 1 5.5 1 12.2v29.6C1 48.5 6.5 54 13.2 54H27c.6 0 1-.4 1-1s-.5-1-1-1z"/></svg>