<svg xmlns="http://www.w3.org/2000/svg" viewBox="0 0 70 70" style="width:100%;height:auto" preserveAspectRatio="none"><path stroke="#000" stroke-width="2" stroke-miterlimit="10" d="M48.469 3.402h-8.956V.851a.849.849 0 0 0-.85-.851h-2.949a.85.85 0 0 0-.851.851v2.551H16.156V.851a.85.85 0 0 0-.85-.851h-2.951a.85.85 0 0 0-.85.851v2.551H2.551a.85.85 0 0 0-.85.851V50.17c0 .471.38.851.85.851h45.918c.471 0 .85-.38.85-.851V4.252a.85.85 0 0 0-.85-.85zm-45.068 1.7h8.103v2.552c0 .47.38.85.85.85h2.951a.85.85 0 0 0 .851-.85V5.102h18.707v2.552c0 .47.381.85.851.85h2.949c.471 0 .85-.38.85-.85V5.102h8.106v10.655H3.401V5.102zm0 44.218V17.457h44.217V49.32H3.401z"/><path d="M11.114 25.198h3.813v3.813h-3.813z"/><path d="M13.926 26.198v1.813h-1.813v-1.813h1.813m2-2h-5.813v5.813h5.813v-5.813zM22.739 25.198h3.812v3.813h-3.812z"/><path d="M25.551 26.198v1.813h-1.812v-1.813h1.812m2-2h-5.812v5.813h5.812v-5.813zM34.385 25.198h3.813v3.813h-3.813z"/><path d="M37.197 26.198v1.813h-1.813v-1.813h1.813m2-2h-5.813v5.813h5.813v-5.813z"/><g><path d="M11.114 36.198h3.813v3.813h-3.813z"/><path d="M13.926 37.198v1.813h-1.813v-1.813h1.813m2-2h-5.813v5.813h5.813v-5.813z"/></g><g><path d="M22.739 36.198h3.812v3.813h-3.812z"/><path d="M25.551 37.198v1.813h-1.813v-1.813h1.813m2-2h-5.812v5.813h5.812v-5.813z"/></g><g><path d="M34.385 36.198h3.813v3.813h-3.813z"/><path d="M37.197 37.198v1.813h-1.813v-1.813h1.813m2-2h-5.813v5.813h5.813v-5.813z"/></g></svg>