<svg xmlns="http://www.w3.org/2000/svg" viewBox="0 0 1024 1024"><path fill="#fff" d="M997.284 545.139h-35.217c9.864-13.324 23.797-27.537 39.768-32.328.077-.02.146-.059.223-.079.27-.087.532-.183.791-.279.233-.087.475-.173.695-.27.233-.096.455-.213.688-.329.24-.116.482-.233.725-.359.193-.114.386-.24.589-.356.242-.156.482-.299.715-.455.193-.134.386-.279.571-.425.22-.163.443-.326.646-.502.193-.163.388-.346.571-.522.183-.163.376-.336.549-.512.186-.193.369-.406.542-.608.166-.183.329-.356.475-.539.163-.213.317-.425.472-.638s.309-.416.445-.628c.134-.203.25-.416.376-.628.146-.252.289-.492.425-.745.04-.067.077-.136.116-.203.067-.146.126-.289.193-.435.116-.26.233-.532.339-.791.096-.233.173-.465.26-.695.087-.252.163-.512.242-.764.077-.25.134-.502.193-.754.057-.24.116-.492.163-.752.049-.252.087-.512.126-.764.03-.25.057-.512.087-.762.02-.262.03-.512.04-.774.01-.26.02-.512.02-.782-.01-.252-.02-.502-.04-.764-.01-.25-.03-.512-.057-.772-.03-.262-.069-.522-.116-.784-.04-.25-.079-.492-.126-.745-.057-.279-.136-.549-.203-.831-.049-.153-.067-.309-.116-.463-.02-.077-.057-.146-.077-.223-.087-.27-.183-.532-.289-.791-.089-.233-.166-.475-.272-.695a10.124 10.124 0 0 0-.319-.668c-.116-.252-.23-.502-.366-.745-.106-.193-.223-.366-.329-.549-.163-.262-.319-.522-.482-.764-.116-.173-.242-.329-.369-.492a21.202 21.202 0 0 0-.559-.735c-.136-.156-.289-.309-.435-.465-.203-.22-.396-.443-.618-.655-.146-.146-.309-.282-.472-.425-.223-.203-.445-.406-.688-.599-.153-.126-.319-.242-.482-.359-.262-.193-.522-.386-.791-.559-.156-.096-.309-.195-.465-.282a18.393 18.393 0 0 0-.918-.522c-.057-.027-.096-.057-.156-.087-17.989-8.993-54.26-23.604-96.231-38.773-.319-.124-.638-.24-.955-.346-77.277-27.885-173.479-57.527-210.657-57.527-16.706 0-58.591 1.227-111.411 4.794-2.174-18.813-11.712-56.881-51.759-95.353-5.818-5.585-14.9-5.914-21.101-.745l-94.977 79.15c-3.421 2.839-5.479 6.995-5.681 11.44s1.479 8.763 4.618 11.912l9.74 9.74c-68.947 9.807-135.537 23.874-179.247 43.817-37.421 17.072-58.551 13.797-78.888 1.749a15.654 15.654 0 0 0-2.57-1.566c-7.227-4.551-14.435-10.146-22.33-16.27-27.913-21.682-62.657-48.667-127.092-48.667a15.839 15.839 0 0 0-13.062 6.898 15.807 15.807 0 0 0-1.679 14.687c.307.782 30.579 78.907 30.579 120.889 0 41.979-30.272 120.095-30.579 120.889a15.806 15.806 0 0 0 1.679 14.685 15.828 15.828 0 0 0 13.062 6.889c64.282 0 99.432-27.796 127.674-50.124 6.27-4.957 12.048-9.528 17.67-13.49a15.749 15.749 0 0 0 10.05-6.433c14.705-8.318 29.691-11.353 50.985-4.9.077.272.136.542.233.814l31.652 94.975c2.172 6.522 8.269 10.821 15.014 10.821.628 0 1.274-.03 1.922-.116 1.895-.233 46.899-6.193 88.957-52.56.203-.223.376-.463.561-.685 27.72 7.158 55.227 12.058 82.694 15.4v69.625c0 4.704 2.097 9.169 5.711 12.174a15.858 15.858 0 0 0 10.116 3.651c.965 0 1.932-.087 2.899-.26 3.072-.571 71.022-13.943 88.984-78.591 10.908.166 21.845.223 32.822.223 15.855 0 31.816-.126 47.863-.26 16.011-.126 32.57-.262 49.053-.262 154.609 0 289.052-67.69 326.649-98.569a15.833 15.833 0 0 0 4.86-17.566 15.846 15.846 0 0 0-14.91-10.502zM450.859 387.903l70.367-58.638c24.571 27.584 30.804 52.481 32.357 64.685-27.903 2.221-57.807 5.063-88.01 8.667l-14.714-14.714zm-191.013 92.492c110.666-50.483 389.894-61.893 436.677-61.893 26.52 0 95.487 19.817 161.362 42.125-19.837 11.363-35.16 25.353-45.845 37.025-36.599-23.015-101.045-37.923-178.203-41.054-97.71-3.933-214.231 10.406-336.958 41.536-102.135 25.904-148.811 8.358-159.178 3.381 6.619-7.979 14.801-13.854 20.453-17.361 24.86 12.869 55.343 17.381 101.693-3.76zm549.285 144.01c-.059-.01-.116-.03-.173-.03-35.546-3.671-78.358-9.701-87.7-13.255-3.497-3.082-12.57-12.503-20.794-24.116-9.797-13.826-12.182-21.942-12.394-25.024 1.207-.416 3.747-1.007 8.454-1.007 45.998 0 102.744 35.016 115.178 43.065 2.773 6.53 5.536 12.56 8.096 17.747a641.9 641.9 0 0 1-10.665 2.619zM38.947 638.607c9.711-28.348 24.378-76.54 24.378-109.293 0-32.773-14.687-81.025-24.398-109.363 38.976 5.14 62.098 23.102 84.572 40.549a832.835 832.835 0 0 0 6.337 4.9c-15.991 12.59-34.861 33.807-34.861 63.913 0 29.671 18.331 50.705 34.156 63.352-1.759 1.373-3.517 2.763-5.266 4.145-22.733 17.979-46.125 36.473-84.918 41.796zm250.155 26.155a106.837 106.837 0 0 1-9.644 3.846l-18.145-54.435c21.808 10.299 43.374 18.813 64.774 25.818-14.019 12.849-27.43 20.463-36.985 24.771zm185.797 48.494v-44.591c14.279 1.16 28.571 1.981 42.899 2.533-9.392 23.015-28.435 35.556-42.899 42.058zm156.484-72.87c-31.14.25-61.846.492-92.328-.233-.146-.01-.292-.01-.435-.01-92.976-2.251-183.828-13.594-278.155-61.613-47.171-24.019-78.146-18.927-103.634-4.927-10.868-7.015-28.994-21.719-30.116-42.291 7.403 3.265 19.451 7.41 36.871 9.963 11.15 1.632 23.023 2.444 35.593 2.444 31.064 0 66.387-4.977 105.479-14.89 119.806-30.396 233.188-44.425 327.893-40.589 69.15 2.802 128.193 15.691 160.261 34.754a15.788 15.788 0 0 0-1.313 6.32c0 8.425 1.702 18.511 4.405 29.12-26.839-13.75-64.618-29.12-99.38-29.12-25.645 0-35.044 11.689-38.407 21.506-4.744 13.826.329 31.178 15.508 53.053 9.777 14.079 22.424 27.787 29.003 32.909.811.638 1.952 1.516 4.415 2.607-8.744.475-17.524.735-26.357.735-16.609 0-33.235.136-49.303.262zm289.245-70.879a15.852 15.852 0 0 0 13.344 7.294h7.737c-24.452 12.387-55.546 25.303-90.849 36.221-9.97-18.781-25.429-57.342-27.477-79.226 8.039-11.313 34.947-44.977 78.336-57.797 22.639 8.212 43.471 16.241 60.339 23.235-26.735 21.586-41.643 53.335-42.464 55.103a15.845 15.845 0 0 0 1.034 15.17z"/><path fill="#fff" d="M902.31 497.652c-4.185 0-8.251 1.699-11.207 4.628-2.929 2.946-4.63 7.025-4.63 11.197 0 4.155 1.702 8.251 4.63 11.2a15.96 15.96 0 0 0 11.207 4.638 15.94 15.94 0 0 0 11.197-4.638c2.948-2.948 4.628-7.044 4.628-11.2 0-4.153-1.679-8.251-4.628-11.197-2.946-2.929-7.025-4.628-11.197-4.628z"/></svg>