<svg xmlns="http://www.w3.org/2000/svg" viewBox="0 0 1024 1024"><path d="M789.058 583.05a19.99 19.99 0 0 0 11.526-3.652c9.074-6.376 11.258-18.9 4.884-27.974-18.064-25.706-18.064-63.022 0-88.726 6.376-9.074 4.19-21.596-4.884-27.974-9.074-6.374-21.598-4.188-27.974 4.884-27.908 39.716-27.91 95.19 0 134.906 3.912 5.56 10.132 8.536 16.448 8.536z"/><path d="M725.19 583.05a19.99 19.99 0 0 0 11.526-3.652c9.074-6.376 11.258-18.9 4.884-27.974-18.064-25.706-18.064-63.022 0-88.726 6.376-9.074 4.19-21.596-4.884-27.974-9.076-6.374-21.596-4.188-27.974 4.884-27.908 39.716-27.912 95.19 0 134.906 3.908 5.56 10.128 8.536 16.448 8.536z"/><path d="M2.344 673.52a20.077 20.077 0 0 0 15.002 10.476c4.586.628 9.242.95 13.836.95 36.512 0 70.356-19.458 95.298-54.79 17.364-24.596 28.93-55.01 33.774-87.954 38.03 25.034 113.212 70.142 213.012 108.62l-31.3 54.004c-6.37 11.012-5.936 24.438 1.136 35.036 6.222 9.324 16.448 14.732 27.406 14.73 1.45 0 2.914-.094 4.384-.288 64.466-8.474 102.272-45.106 118.418-65.004 27.74 7.076 55.622 12.918 83.07 17.388a590.63 590.63 0 0 0 72.808 7.246c-1.696 9.7-3.42 21.388-4.44 33.358-1.53 17.936-6.178 72.51 30.704 82.62a33.543 33.543 0 0 0 8.922 1.224c28.048-.002 51.008-36.372 68.272-69.268 11.658-22.21 21.412-45.03 26.688-57.954 101.206-19.906 188.776-67.848 230.278-126.57a20.08 20.08 0 0 0-10.89-30.9l-49.006-13.968 66.348-50.402c7.692-5.842 10.134-16.334 5.812-24.974-17.2-34.374-50.662-66.746-96.772-93.618-40.9-23.832-89.356-41.758-141.318-52.41 6.408-32.906-3.948-70.124-5.48-75.33-5.312-18.068-18.38-32.434-35.848-39.414-17.212-6.878-36.248-5.518-52.232 3.73-18.372 10.648-48.064 23.338-85.186 23.338-56.68 0-105.568 17.848-145.312 53.048-22.6 20.018-41.572 45.024-57.846 76.244-113.948 40.406-199.938 91.762-241.564 119.158-4.802-33.104-16.402-63.674-33.84-88.38-24.944-35.338-58.79-54.798-95.3-54.798-4.5 0-9.154.326-13.836.968a20.081 20.081 0 0 0-15.276 28.772c18.756 38.034 29.514 92.124 29.514 148.394 0 56.284-10.756 110.38-29.514 148.416a20.106 20.106 0 0 0 .278 18.302zm409.238-8.73a1075.395 1075.395 0 0 0 38.478 12.45c-13.44 12.632-34.892 27.578-65.766 34.632l27.288-47.082zm274.71 123.77c-1.722-5.48-3.81-18.188-.82-45.078 1.222-10.982 2.996-21.456 4.534-29.476 14.28-.47 28.514-1.45 42.62-2.978-3.434 7.666-7.384 16.126-11.696 24.702-17.582 34.986-29.184 48.09-34.638 52.83zm-81.25-525c36.444 0 72.862-9.94 105.31-28.742 7.176-4.15 13.86-2.53 17.208-1.192 5.954 2.38 10.406 7.28 12.224 13.458 5.268 17.894 7.64 41.724 4.36 57.388-55.11-7.18-111.462-6.216-167.764 2.94-37.884 6.168-76.336 14.896-114.844 26.052 36-46.432 84.09-69.904 143.506-69.904zM422.716 387.944c.11-.038.21-.09.32-.128 53.48-18.496 107.24-32.214 159.79-40.77 57.426-9.338 114.862-9.566 170.718-.67 56.14 8.912 108.47 26.828 151.338 51.81 32.008 18.652 57.214 40.512 72.634 62.748l-84.066 63.862a20.07 20.07 0 0 0-7.586 19.7 20.078 20.078 0 0 0 14.228 15.598l57.654 16.436c-42.446 42.162-114.606 75.618-196.412 89.906-.084.014-.164.04-.248.056-28.53 4.974-57.968 7.564-87.534 7.694-30.066.206-60.552-2.218-90.722-7.128-30.52-4.97-61.62-11.706-92.444-20.028-26.742-7.216-53.998-15.824-81.008-25.58-108.44-39.192-191.172-89.212-229.336-114.404 39.644-26.19 127.436-79.186 242.674-119.102zM93.674 406.63c18.706 26.498 29.006 62.076 29.006 100.18 0 38.11-10.3 73.694-29.006 100.188-12.168 17.236-26.826 28.994-42.54 34.402 13.394-38.972 20.606-85.532 20.606-134.59 0-49.056-7.214-95.618-20.612-134.59 15.712 5.408 30.376 17.17 42.546 34.41z"/><path d="M509.912 569.808c.706.072 1.41.11 2.104.11 10.154 0 18.87-7.678 19.946-18 1.148-11.03-6.86-20.902-17.89-22.05-81.126-8.454-101.326-21.646-105.352-25.128 4.152-33.556 108.616-58.172 184.448-63.188 11.062-.728 19.44-10.288 18.714-21.352-.726-11.066-10.29-19.452-21.352-18.72-2.146.14-53.162 3.596-105.084 16.19-77.644 18.834-117.01 48.822-117.01 89.138 0 32.156 42.186 44.216 56.05 48.18 21.608 6.178 50.348 11.166 85.426 14.82zM879.434 466.706c25.838 0 25.882-40.156 0-40.156-25.84 0-25.884 40.156 0 40.156zM574.242 533.634c-25.838 0-25.882 40.156 0 40.156 25.838 0 25.882-40.156 0-40.156z"/></svg>