<svg xmlns="http://www.w3.org/2000/svg" viewBox="0 0 50 50" style="width:100%;height:auto" preserveAspectRatio="none"><g stroke="#000" stroke-width="2" stroke-miterlimit="10"><path d="M25.676 11.181c-3.596 0-6.522 2.927-6.522 6.522s2.927 6.522 6.522 6.522 6.522-2.927 6.522-6.522-2.927-6.522-6.522-6.522zm0 11.182a4.664 4.664 0 0 1-4.659-4.659 4.664 4.664 0 0 1 4.659-4.658 4.664 4.664 0 0 1 4.659 4.658 4.664 4.664 0 0 1-4.659 4.659z"/><path d="M36.672 6.257A16.384 16.384 0 0 0 25.01 1.426a16.38 16.38 0 0 0-11.662 4.831c-5.765 5.764-6.482 16.609-1.552 23.18L25.01 48.52l13.193-19.056c4.951-6.597 4.234-17.442-1.531-23.207zm.137 22.202L25.01 45.497 13.192 28.432c-4.471-5.962-3.83-15.756 1.373-20.959 2.79-2.79 6.499-4.327 10.445-4.327s7.655 1.537 10.446 4.327c5.203 5.203 5.844 14.997 1.353 20.986z"/></g></svg>