<svg xmlns="http://www.w3.org/2000/svg" viewBox="0 0 27.125 27.25"><path d="M13.574 26.898C6.297 26.898.375 20.977.375 13.699.375 6.422 6.297.5 13.574.5c7.278 0 13.199 5.922 13.199 13.199 0 7.278-5.921 13.199-13.199 13.199zm0-25.597c-6.836 0-12.398 5.562-12.398 12.398 0 6.84 5.562 12.403 12.398 12.403 6.84 0 12.403-5.563 12.403-12.403 0-6.836-5.563-12.398-12.403-12.398zm0 0"/><path d="M13.574 26.898c-2.746 0-5.387-.843-7.637-2.445a.403.403 0 0 1-.167-.379.404.404 0 0 1 .257-.324c3.317-1.227 3.852-2.223 3.852-4.133 0-.508-.113-.672-.316-.972-.274-.395-.645-.938-.903-2.352-.039-.203-.074-.219-.254-.305-.484-.234-.929-.57-1.047-2.105 0-.742.254-1.153.469-1.363a36.57 36.57 0 0 1-.195-1.219c-.363-2.219-.379-4.942 2.746-6.207 2.723-1.102 4.898-.5 5.582.219.48.015 1.726.144 2.594 1.152 1.336 1.551.91 5.09.765 6.047.211.211.469.617.469 1.343-.113 1.563-.559 1.899-1.047 2.133-.179.086-.215.102-.254.305-.258 1.414-.629 1.957-.902 2.352-.203.3-.316.464-.316.972 0 1.91.535 2.906 3.851 4.133a.398.398 0 0 1 .258.324.4.4 0 0 1-.164.379 13.099 13.099 0 0 1-7.641 2.445zm-6.547-2.675a12.32 12.32 0 0 0 6.547 1.879 12.31 12.31 0 0 0 6.547-1.879c-2.777-1.145-3.652-2.293-3.652-4.606 0-.754.222-1.078.461-1.422.242-.355.543-.797.773-2.047.113-.601.461-.769.695-.882.247-.118.504-.243.594-1.442 0-.613-.277-.777-.285-.785a.422.422 0 0 1-.211-.43c.195-1.062.524-4.379-.547-5.625-.73-.847-1.883-.871-2.101-.863-.035-.004-.071-.004-.106-.012-.105-.027-.281-.117-.336-.211-.215-.371-2.109-1.121-4.726-.062-2.586 1.047-2.59 3.289-2.254 5.344.109.765.23 1.429.23 1.429a.401.401 0 0 1-.226.438c.004 0-.27.168-.27.805.09 1.171.344 1.293.594 1.414.23.109.582.277.691.882.231 1.247.535 1.688.778 2.043.238.344.457.672.457 1.422 0 2.317-.871 3.469-3.653 4.61zm0 0"/></svg>