<svg version="1.1" xmlns="http://www.w3.org/2000/svg" xmlns:xlink="http://www.w3.org/1999/xlink" viewBox="0 0 70 70"
     x="0px" y="0px" style="width: 100%; height: auto;" preserveAspectRatio="none">
    <g>
        <path stroke="#000000" stroke-width="2" stroke-miterlimit="10" d="M48.469,3.402h-8.956V0.851C39.513,0.38,39.134,0,38.663,0
			h-2.949c-0.47,0-0.851,0.38-0.851,0.851v2.551H16.156V0.851C16.156,0.38,15.776,0,15.306,0h-2.951c-0.47,0-0.85,0.38-0.85,0.851
			v2.551H2.551c-0.47,0-0.85,0.38-0.85,0.851v9.354v36.563c0,0.471,0.38,0.851,0.85,0.851h45.918c0.471,0,0.85-0.38,0.85-0.851
			V13.606V4.252C49.318,3.782,48.939,3.402,48.469,3.402z M3.401,5.102h8.103v2.552c0,0.47,0.38,0.85,0.85,0.85h2.951
			c0.47,0,0.851-0.38,0.851-0.85V5.102h18.707v2.552c0,0.47,0.381,0.85,0.851,0.85h2.949c0.471,0,0.85-0.38,0.85-0.85V5.102h8.106
			v10.655H3.401V5.102z M3.401,49.32V17.457h44.217V49.32H3.401z"/>
    </g>
    <g>
        <rect x="11.114" y="25.198" width="3.813" height="3.813"/>
        <path d="M13.926,26.198v1.813h-1.813v-1.813H13.926 M15.926,24.198h-5.813v5.813h5.813V24.198L15.926,24.198z"/>
    </g>
    <g>
        <rect x="22.739" y="25.198" width="3.812" height="3.813"/>
        <path d="M25.551,26.198v1.813h-1.812v-1.813H25.551 M27.551,24.198h-5.812v5.813h5.812V24.198L27.551,24.198z"/>
    </g>
    <g>
        <rect x="34.385" y="25.198" width="3.813" height="3.813"/>
        <path d="M37.197,26.198v1.813h-1.813v-1.813H37.197 M39.197,24.198h-5.813v5.813h5.813V24.198L39.197,24.198z"/>
    </g>
    <g>
        <rect x="11.114" y="36.198" width="3.813" height="3.813"/>
        <path d="M13.926,37.198v1.813h-1.813v-1.813H13.926 M15.926,35.198h-5.813v5.813h5.813V35.198L15.926,35.198z"/>
    </g>
    <g>
        <rect x="22.739" y="36.198" width="3.812" height="3.813"/>
        <path d="M25.551,37.198v1.813h-1.813v-1.813H25.551 M27.551,35.198h-5.812v5.813h5.812V35.198L27.551,35.198z"/>
    </g>
    <g>
        <rect x="34.385" y="36.198" width="3.813" height="3.813"/>
        <path d="M37.197,37.198v1.813h-1.813v-1.813H37.197 M39.197,35.198h-5.813v5.813h5.813V35.198L39.197,35.198z"/>
    </g>
</svg>
