<!-- Generated by IcoMoon.io -->
<svg version="1.1" xmlns="http://www.w3.org/2000/svg" viewBox="0 0 1024 1024">
<path fill="#000" d="M997.284 545.139h-35.217c9.864-13.324 23.797-27.537 39.768-32.328 0.077-0.020 0.146-0.059 0.223-0.079 0.27-0.087 0.532-0.183 0.791-0.279 0.233-0.087 0.475-0.173 0.695-0.27 0.233-0.096 0.455-0.213 0.688-0.329 0.24-0.116 0.482-0.233 0.725-0.359 0.193-0.114 0.386-0.24 0.589-0.356 0.242-0.156 0.482-0.299 0.715-0.455 0.193-0.134 0.386-0.279 0.571-0.425 0.22-0.163 0.443-0.326 0.646-0.502 0.193-0.163 0.388-0.346 0.571-0.522 0.183-0.163 0.376-0.336 0.549-0.512 0.186-0.193 0.369-0.406 0.542-0.608 0.166-0.183 0.329-0.356 0.475-0.539 0.163-0.213 0.317-0.425 0.472-0.638s0.309-0.416 0.445-0.628c0.134-0.203 0.25-0.416 0.376-0.628 0.146-0.252 0.289-0.492 0.425-0.745 0.040-0.067 0.077-0.136 0.116-0.203 0.067-0.146 0.126-0.289 0.193-0.435 0.116-0.26 0.233-0.532 0.339-0.791 0.096-0.233 0.173-0.465 0.26-0.695 0.087-0.252 0.163-0.512 0.242-0.764 0.077-0.25 0.134-0.502 0.193-0.754 0.057-0.24 0.116-0.492 0.163-0.752 0.049-0.252 0.087-0.512 0.126-0.764 0.030-0.25 0.057-0.512 0.087-0.762 0.020-0.262 0.030-0.512 0.040-0.774 0.010-0.26 0.020-0.512 0.020-0.782-0.010-0.252-0.020-0.502-0.040-0.764-0.010-0.25-0.030-0.512-0.057-0.772-0.030-0.262-0.069-0.522-0.116-0.784-0.040-0.25-0.079-0.492-0.126-0.745-0.057-0.279-0.136-0.549-0.203-0.831-0.049-0.153-0.067-0.309-0.116-0.463-0.020-0.077-0.057-0.146-0.077-0.223-0.087-0.27-0.183-0.532-0.289-0.791-0.089-0.233-0.166-0.475-0.272-0.695-0.096-0.223-0.203-0.445-0.319-0.668-0.116-0.252-0.23-0.502-0.366-0.745-0.106-0.193-0.223-0.366-0.329-0.549-0.163-0.262-0.319-0.522-0.482-0.764-0.116-0.173-0.242-0.329-0.369-0.492-0.183-0.252-0.366-0.492-0.559-0.735-0.136-0.156-0.289-0.309-0.435-0.465-0.203-0.22-0.396-0.443-0.618-0.655-0.146-0.146-0.309-0.282-0.472-0.425-0.223-0.203-0.445-0.406-0.688-0.599-0.153-0.126-0.319-0.242-0.482-0.359-0.262-0.193-0.522-0.386-0.791-0.559-0.156-0.096-0.309-0.195-0.465-0.282-0.299-0.183-0.608-0.356-0.918-0.522-0.057-0.027-0.096-0.057-0.156-0.087-17.989-8.993-54.26-23.604-96.231-38.773-0.319-0.124-0.638-0.24-0.955-0.346-77.277-27.885-173.479-57.527-210.657-57.527-16.706 0-58.591 1.227-111.411 4.794-2.174-18.813-11.712-56.881-51.759-95.353-5.818-5.585-14.9-5.914-21.101-0.745l-94.977 79.15c-3.421 2.839-5.479 6.995-5.681 11.44s1.479 8.763 4.618 11.912l9.74 9.74c-68.947 9.807-135.537 23.874-179.247 43.817-37.421 17.072-58.551 13.797-78.888 1.749-0.804-0.599-1.662-1.13-2.57-1.566-7.227-4.551-14.435-10.146-22.33-16.27-27.913-21.682-62.657-48.667-127.092-48.667-5.226 0-10.114 2.59-13.062 6.898-2.956 4.319-3.584 9.817-1.679 14.687 0.307 0.782 30.579 78.907 30.579 120.889 0 41.979-30.272 120.095-30.579 120.889-1.905 4.868-1.276 10.366 1.679 14.685 2.948 4.309 7.836 6.889 13.062 6.889 64.282 0 99.432-27.796 127.674-50.124 6.27-4.957 12.048-9.528 17.67-13.49 3.99-0.732 7.623-2.985 10.050-6.433 14.705-8.318 29.691-11.353 50.985-4.9 0.077 0.272 0.136 0.542 0.233 0.814l31.652 94.975c2.172 6.522 8.269 10.821 15.014 10.821 0.628 0 1.274-0.030 1.922-0.116 1.895-0.233 46.899-6.193 88.957-52.56 0.203-0.223 0.376-0.463 0.561-0.685 27.72 7.158 55.227 12.058 82.694 15.4v69.625c0 4.704 2.097 9.169 5.711 12.174 2.869 2.377 6.453 3.651 10.116 3.651 0.965 0 1.932-0.087 2.899-0.26 3.072-0.571 71.022-13.943 88.984-78.591 10.908 0.166 21.845 0.223 32.822 0.223 15.855 0 31.816-0.126 47.863-0.26 16.011-0.126 32.57-0.262 49.053-0.262 154.609 0 289.052-67.69 326.649-98.569 5.169-4.252 7.111-11.276 4.86-17.566-2.263-6.3-8.224-10.502-14.91-10.502v0zM450.859 387.903l70.367-58.638c24.571 27.584 30.804 52.481 32.357 64.685-27.903 2.221-57.807 5.063-88.010 8.667l-14.714-14.714zM259.846 480.395c110.666-50.483 389.894-61.893 436.677-61.893 26.52 0 95.487 19.817 161.362 42.125-19.837 11.363-35.16 25.353-45.845 37.025-36.599-23.015-101.045-37.923-178.203-41.054-97.71-3.933-214.231 10.406-336.958 41.536-102.135 25.904-148.811 8.358-159.178 3.381 6.619-7.979 14.801-13.854 20.453-17.361 24.86 12.869 55.343 17.381 101.693-3.76v0zM809.131 624.405c-0.059-0.010-0.116-0.030-0.173-0.030-35.546-3.671-78.358-9.701-87.7-13.255-3.497-3.082-12.57-12.503-20.794-24.116-9.797-13.826-12.182-21.942-12.394-25.024 1.207-0.416 3.747-1.007 8.454-1.007 45.998 0 102.744 35.016 115.178 43.065 2.773 6.53 5.536 12.56 8.096 17.747-3.525 0.9-7.081 1.769-10.665 2.619v0zM38.947 638.607c9.711-28.348 24.378-76.54 24.378-109.293 0-32.773-14.687-81.025-24.398-109.363 38.976 5.14 62.098 23.102 84.572 40.549 2.105 1.642 4.212 3.275 6.337 4.9-15.991 12.59-34.861 33.807-34.861 63.913 0 29.671 18.331 50.705 34.156 63.352-1.759 1.373-3.517 2.763-5.266 4.145-22.733 17.979-46.125 36.473-84.918 41.796v0zM289.102 664.762c-3.547 1.615-6.792 2.869-9.644 3.846l-18.145-54.435c21.808 10.299 43.374 18.813 64.774 25.818-14.019 12.849-27.43 20.463-36.985 24.771v0zM474.899 713.256v-44.591c14.279 1.16 28.571 1.981 42.899 2.533-9.392 23.015-28.435 35.556-42.899 42.058v0zM631.383 640.386c-31.14 0.25-61.846 0.492-92.328-0.233-0.146-0.010-0.292-0.010-0.435-0.010-92.976-2.251-183.828-13.594-278.155-61.613-47.171-24.019-78.146-18.927-103.634-4.927-10.868-7.015-28.994-21.719-30.116-42.291 7.403 3.265 19.451 7.41 36.871 9.963 11.15 1.632 23.023 2.444 35.593 2.444 31.064 0 66.387-4.977 105.479-14.89 119.806-30.396 233.188-44.425 327.893-40.589 69.15 2.802 128.193 15.691 160.261 34.754-0.868 1.991-1.313 4.136-1.313 6.32 0 8.425 1.702 18.511 4.405 29.12-26.839-13.75-64.618-29.12-99.38-29.12-25.645 0-35.044 11.689-38.407 21.506-4.744 13.826 0.329 31.178 15.508 53.053 9.777 14.079 22.424 27.787 29.003 32.909 0.811 0.638 1.952 1.516 4.415 2.607-8.744 0.475-17.524 0.735-26.357 0.735-16.609 0-33.235 0.136-49.303 0.262v0zM920.628 569.507c2.909 4.541 7.942 7.294 13.344 7.294h7.737c-24.452 12.387-55.546 25.303-90.849 36.221-9.97-18.781-25.429-57.342-27.477-79.226 8.039-11.313 34.947-44.977 78.336-57.797 22.639 8.212 43.471 16.241 60.339 23.235-26.735 21.586-41.643 53.335-42.464 55.103-2.261 4.897-1.875 10.618 1.034 15.17v0z"></path>
<path fill="#000" d="M902.31 497.652c-4.185 0-8.251 1.699-11.207 4.628-2.929 2.946-4.63 7.025-4.63 11.197 0 4.155 1.702 8.251 4.63 11.2 2.956 2.946 7.022 4.638 11.207 4.638 4.173 0 8.251-1.692 11.197-4.638 2.948-2.948 4.628-7.044 4.628-11.2 0-4.153-1.679-8.251-4.628-11.197-2.946-2.929-7.025-4.628-11.197-4.628v0z"></path>
</svg>
