<!-- Generated by IcoMoon.io -->
<svg version="1.1" xmlns="http://www.w3.org/2000/svg" viewBox="0 0 1024 1024">
<path fill="#000" d="M789.058 583.050c3.988 0 8.016-1.186 11.526-3.652 9.074-6.376 11.258-18.9 4.884-27.974-18.064-25.706-18.064-63.022 0-88.726 6.376-9.074 4.19-21.596-4.884-27.974-9.074-6.374-21.598-4.188-27.974 4.884-27.908 39.716-27.91 95.19 0 134.906 3.912 5.56 10.132 8.536 16.448 8.536z"></path>
<path fill="#000" d="M725.19 583.050c3.988 0 8.016-1.186 11.526-3.652 9.074-6.376 11.258-18.9 4.884-27.974-18.064-25.706-18.064-63.022 0-88.726 6.376-9.074 4.19-21.596-4.884-27.974-9.076-6.374-21.596-4.188-27.974 4.884-27.908 39.716-27.912 95.19 0 134.906 3.908 5.56 10.128 8.536 16.448 8.536z"></path>
<path fill="#000" d="M2.344 673.52c3.026 5.7 8.608 9.598 15.002 10.476 4.586 0.628 9.242 0.95 13.836 0.95 36.512 0 70.356-19.458 95.298-54.79 17.364-24.596 28.93-55.010 33.774-87.954 38.030 25.034 113.212 70.142 213.012 108.62l-31.3 54.004c-6.37 11.012-5.936 24.438 1.136 35.036 6.222 9.324 16.448 14.732 27.406 14.73 1.45 0 2.914-0.094 4.384-0.288 64.466-8.474 102.272-45.106 118.418-65.004 27.74 7.076 55.622 12.918 83.070 17.388 24.178 3.934 48.578 6.346 72.808 7.246-1.696 9.7-3.42 21.388-4.44 33.358-1.53 17.936-6.178 72.51 30.704 82.62 3.030 0.832 6.002 1.224 8.922 1.224 28.048-0.002 51.008-36.372 68.272-69.268 11.658-22.21 21.412-45.030 26.688-57.954 101.206-19.906 188.776-67.848 230.278-126.57 3.758-5.314 4.704-12.124 2.54-18.266-2.162-6.14-7.17-10.846-13.43-12.634l-49.006-13.968 66.348-50.402c7.692-5.842 10.134-16.334 5.812-24.974-17.2-34.374-50.662-66.746-96.772-93.618-40.9-23.832-89.356-41.758-141.318-52.41 6.408-32.906-3.948-70.124-5.48-75.33-5.312-18.068-18.38-32.434-35.848-39.414-17.212-6.878-36.248-5.518-52.232 3.73-18.372 10.648-48.064 23.338-85.186 23.338-56.68 0-105.568 17.848-145.312 53.048-22.6 20.018-41.572 45.024-57.846 76.244-113.948 40.406-199.938 91.762-241.564 119.158-4.802-33.104-16.402-63.674-33.84-88.38-24.944-35.338-58.79-54.798-95.3-54.798-4.5 0-9.154 0.326-13.836 0.968-6.394 0.88-11.974 4.776-15.002 10.476-3.026 5.7-3.128 12.506-0.274 18.296 18.756 38.034 29.514 92.124 29.514 148.394 0 56.284-10.756 110.38-29.514 148.416-2.85 5.794-2.748 12.604 0.278 18.302zM411.582 664.79c12.826 4.414 25.674 8.576 38.478 12.45-13.44 12.632-34.892 27.578-65.766 34.632l27.288-47.082zM686.292 788.56c-1.722-5.48-3.81-18.188-0.82-45.078 1.222-10.982 2.996-21.456 4.534-29.476 14.28-0.47 28.514-1.45 42.62-2.978-3.434 7.666-7.384 16.126-11.696 24.702-17.582 34.986-29.184 48.090-34.638 52.83zM605.042 263.56c36.444 0 72.862-9.94 105.31-28.742 7.176-4.15 13.86-2.53 17.208-1.192 5.954 2.38 10.406 7.28 12.224 13.458 5.268 17.894 7.64 41.724 4.36 57.388-55.11-7.18-111.462-6.216-167.764 2.94-37.884 6.168-76.336 14.896-114.844 26.052 36-46.432 84.090-69.904 143.506-69.904zM422.716 387.944c0.11-0.038 0.21-0.090 0.32-0.128 53.48-18.496 107.24-32.214 159.79-40.77 57.426-9.338 114.862-9.566 170.718-0.67 56.14 8.912 108.47 26.828 151.338 51.81 32.008 18.652 57.214 40.512 72.634 62.748l-84.066 63.862c-6.058 4.6-8.994 12.228-7.586 19.7 1.406 7.476 6.912 13.51 14.228 15.598l57.654 16.436c-42.446 42.162-114.606 75.618-196.412 89.906-0.084 0.014-0.164 0.040-0.248 0.056-28.53 4.974-57.968 7.564-87.534 7.694-30.066 0.206-60.552-2.218-90.722-7.128-30.52-4.97-61.62-11.706-92.444-20.028-26.742-7.216-53.998-15.824-81.008-25.58-108.44-39.192-191.172-89.212-229.336-114.404 39.644-26.19 127.436-79.186 242.674-119.102zM93.674 406.63c18.706 26.498 29.006 62.076 29.006 100.18 0 38.11-10.3 73.694-29.006 100.188-12.168 17.236-26.826 28.994-42.54 34.402 13.394-38.972 20.606-85.532 20.606-134.59 0-49.056-7.214-95.618-20.612-134.59 15.712 5.408 30.376 17.17 42.546 34.41z"></path>
<path fill="#000" d="M509.912 569.808c0.706 0.072 1.41 0.11 2.104 0.11 10.154 0 18.87-7.678 19.946-18 1.148-11.030-6.86-20.902-17.89-22.050-81.126-8.454-101.326-21.646-105.352-25.128 4.152-33.556 108.616-58.172 184.448-63.188 11.062-0.728 19.44-10.288 18.714-21.352-0.726-11.066-10.29-19.452-21.352-18.72-2.146 0.14-53.162 3.596-105.084 16.19-77.644 18.834-117.010 48.822-117.010 89.138 0 32.156 42.186 44.216 56.050 48.18 21.608 6.178 50.348 11.166 85.426 14.82z"></path>
<path fill="#000" d="M879.434 466.706c25.838 0 25.882-40.156 0-40.156-25.84 0-25.884 40.156 0 40.156z"></path>
<path fill="#000" d="M574.242 533.634c-25.838 0-25.882 40.156 0 40.156 25.838 0 25.882-40.156 0-40.156z"></path>
</svg>
