<!-- Generated by IcoMoon.io -->
<svg version="1.1" xmlns="http://www.w3.org/2000/svg" viewBox="0 0 1307 1024">
    <path fill="#fff" d="M530.106 1015.142c-42.64-0.004-74.793-35.855-74.793-83.394 0-29.612 13.192-55.217 28.468-84.861 1.369-2.656 2.751-5.345 4.145-8.070-93.495-47.26-173.161-119.437-230.486-208.812l-153.926 94.369c-1.020 0.623-2.091 1.176-3.188 1.645-8.171 3.498-16.562 5.272-24.938 5.272-33.991 0-59.623-28.211-59.623-65.622 0-43.484 49.424-118.662 71.187-149.652-21.763-30.994-71.187-106.181-71.187-149.656 0-18.066 6.050-34.683 17.035-46.793 11.011-12.14 26.133-18.824 42.582-18.824 0.002 0 0.002 0 0.004 0 8.376 0 16.765 1.772 24.932 5.266 1.114 0.48 2.185 1.035 3.19 1.652l153.945 94.382c58.090-90.228 138.782-162.915 233.47-210.312-1.887-3.578-3.76-7.091-5.611-10.561-16.101-30.165-30.009-56.219-30.009-86.772 0-47.543 32.155-83.396 74.795-83.396 10.557 0 21.168 2.249 31.54 6.688 0.484 0.208 0.962 0.431 1.429 0.668l226.388 114.463c109.951 7.965 215.085 47.402 304.042 114.052 88.555 66.352 156.998 156.286 197.934 260.081 2.301 5.84 2.301 12.271 0.002 18.111-85.716 217.371-288.725 364.587-517.201 375.118l-211.092 107.567c-0.486 0.249-0.99 0.488-1.497 0.701-10.377 4.441-20.986 6.692-31.532 6.692h-0.006zM265.58 571.373c2.018 0 4.040 0.249 6.005 0.741 6.393 1.605 11.969 5.786 15.3 11.476 57.622 98.497 142.145 175.010 244.425 221.276 5.994 2.712 10.731 7.804 12.999 13.976 2.269 6.174 1.954 13.126-0.859 19.073-5.465 11.542-10.941 22.168-15.769 31.543-13.366 25.938-23.006 44.649-23.006 62.293 0 19.715 10.694 34.026 25.426 34.026 3.642 0 7.506-0.825 11.485-2.449l215.029-109.579c3.179-1.622 6.744-2.545 10.311-2.676 52.005-1.892 103.381-11.551 152.724-28.706-66.065-77.751-103.934-191.152-103.934-311.412 0-58.683 8.758-115.309 26.026-168.307 3.321-10.191 12.753-17.037 23.471-17.037 2.59 0 5.161 0.409 7.644 1.217 12.941 4.218 20.041 18.177 15.825 31.116-15.66 48.040-23.599 99.521-23.599 153.009 0 115.082 38.569 224.065 103.218 291.737 123.488-57.237 220.606-159.007 273.543-286.686-37.903-91.404-99.427-170.796-177.949-229.631-31.748-23.79-66.104-44.004-102.13-60.095-13.486 15.12-25.93 32.269-36.993 50.977-4.424 7.479-12.577 12.125-21.275 12.125-4.4 0-8.734-1.189-12.539-3.44-11.714-6.928-15.609-22.095-8.685-33.809 9.353-15.821 19.728-30.868 30.849-44.743-42.678-14.173-87.049-22.804-131.901-25.656-3.357-0.214-6.579-1.090-9.576-2.607l-230.104-116.342c-3.912-1.594-7.787-2.421-11.44-2.421-14.732 0-25.426 14.312-25.426 34.030 0 18.201 10.148 37.213 24.19 63.529 5.452 10.206 11.628 21.776 17.787 34.555 2.886 5.977 3.228 12.984 0.94 19.222-2.286 6.236-7.080 11.358-13.149 14.055-102.203 45.427-190.123 124.51-247.559 222.681-3.329 5.692-8.908 9.876-15.3 11.478-1.964 0.493-3.987 0.743-6.011 0.743-4.557 0-9.017-1.258-12.899-3.64l-173.122-106.143c-1.482-0.508-2.881-0.765-4.158-0.765-6.041 0-10.259 6.684-10.259 16.253 0 25.943 42.143 94.542 72.068 134.964 6.506 8.788 6.506 20.594 0 29.381-29.925 40.42-72.070 109.017-72.070 134.962 0 9.569 4.218 16.253 10.257 16.253 1.277 0 2.676-0.257 4.158-0.767l173.129-106.14c3.886-2.384 8.348-3.644 12.903-3.644z"></path>
    <path fill="#fff" d="M530.102 12.074c10.407 0 20.876 2.219 31.118 6.602 0.461 0.197 0.919 0.411 1.365 0.638l226.585 114.562c109.857 7.916 214.768 47.23 303.691 113.857 88.398 66.234 156.717 156.010 197.578 259.618 2.192 5.568 2.192 11.759 0.002 17.327-85.787 217.538-288.136 364.026-516.488 374.448l-211.297 107.672c-0.467 0.238-0.945 0.465-1.429 0.671-10.242 4.383-20.711 6.607-31.112 6.607-0.002 0-0.006 0-0.009 0-42.031-0.004-73.722-35.397-73.722-82.323 0-29.353 13.138-54.853 28.349-84.373 1.53-2.969 3.076-5.975 4.638-9.030-94.497-47.547-173.866-119.452-231.593-209.804l-154.823 94.919c-0.977 0.596-1.999 1.123-3.051 1.575-8.036 3.438-16.285 5.184-24.514 5.184-33.383-0.002-58.552-27.753-58.552-64.553 0-42.92 48.042-116.425 71.427-149.652-23.385-33.233-71.427-106.738-71.427-149.658 0-36.8 25.169-64.551 58.552-64.546 8.228 0 16.474 1.742 24.51 5.18 1.052 0.454 2.074 0.979 3.051 1.579l154.838 94.93c57.886-90.251 139.913-164.133 234.595-211.304-2.061-3.916-4.105-7.751-6.123-11.534-16.035-30.041-29.882-55.988-29.882-86.269 0-46.93 31.697-82.323 73.724-82.323zM265.574 459.583c-4.319 0-8.595-1.185-12.337-3.481l-173.223-106.203c-1.641-0.574-3.19-0.861-4.619-0.861-6.673 0-11.33 7.123-11.33 17.324 0 26.187 42.265 95.061 72.278 135.603 6.18 8.348 6.18 19.758 0 28.106-30.015 40.542-72.28 109.414-72.28 135.601 0 10.199 4.657 17.324 11.328 17.324 1.427 0 2.978-0.289 4.619-0.863l173.227-106.203c3.749-2.297 8.025-3.483 12.344-3.483 1.922 0 3.847 0.234 5.746 0.709 6.157 1.545 11.431 5.501 14.636 10.979 57.738 98.69 142.426 175.353 244.907 221.709 5.769 2.611 10.251 7.429 12.436 13.372 2.185 5.945 1.885 12.522-0.823 18.246-5.465 11.542-10.941 22.172-15.771 31.549-13.415 26.033-23.104 44.84-23.104 62.745 0 20.334 11.144 35.097 26.498 35.097 0.004 0 0.004 0 0.004 0 3.785 0 7.776-0.848 11.885-2.528l215.111-109.617c3.061-1.562 6.429-2.436 9.863-2.558 53.464-1.945 105.421-12.048 154.517-29.283-65.943-76.903-104.692-191.165-104.692-311.909 0-58.576 8.74-115.089 25.975-167.975 3.25-9.97 12.507-16.298 22.451-16.298 2.423 0 4.886 0.375 7.314 1.165 12.399 4.040 19.175 17.367 15.135 29.767-15.694 48.152-23.651 99.746-23.651 153.341 0 116.28 38.771 225.076 104.043 293.029 121.563-56.129 221.073-157.758 274.948-287.98-37.984-91.804-99.547-171.355-178.467-230.488-32.269-24.18-66.832-44.422-103.051-60.534-13.719 15.298-26.356 32.65-37.635 51.729-4.411 7.455-12.279 11.6-20.351 11.6-4.081 0-8.222-1.060-11.992-3.291-11.223-6.639-14.944-21.118-8.308-32.344 9.694-16.399 20.324-31.714 31.727-45.817-43.021-14.428-87.878-23.289-133.636-26.196-3.194-0.204-6.307-1.050-9.158-2.494l-230.111-116.344c-4.117-1.682-8.13-2.536-11.922-2.536-15.356 0-26.498 14.762-26.498 35.101 0 18.468 10.201 37.582 24.319 64.034 5.467 10.236 11.658 21.84 17.768 34.516 2.779 5.756 3.098 12.391 0.9 18.389-2.2 6-6.737 10.848-12.579 13.443-102.411 45.519-190.5 124.757-248.050 223.118-3.205 5.478-8.479 9.437-14.636 10.979-1.9 0.471-3.83 0.707-5.752 0.707zM530.102 9.932c-43.25 0-75.866 36.313-75.866 84.467 0 30.821 13.965 56.984 30.135 87.278 1.684 3.156 3.385 6.345 5.099 9.589-46.556 23.417-90.157 53.302-129.613 88.842-39.49 35.568-74.043 76.093-102.732 120.476l-153.054-93.835c-1.048-0.643-2.166-1.221-3.323-1.72-8.306-3.554-16.836-5.356-25.358-5.356-16.757-0.002-32.164 6.808-43.383 19.175-11.163 12.307-17.312 29.182-17.312 47.513 0 19.021 9.15 45.761 27.198 79.471 14.467 27.022 31.615 52.869 43.754 70.185-12.136 17.312-29.285 43.156-43.754 70.18-18.046 33.711-27.198 60.45-27.198 79.474 0 38.021 26.093 66.693 60.694 66.693 8.522 0 17.052-1.802 25.358-5.358 1.146-0.491 2.262-1.069 3.323-1.716l153.037-93.825c57.188 88.825 136.432 160.62 229.376 207.821-1.23 2.397-2.446 4.767-3.655 7.108-15.339 29.771-28.586 55.48-28.586 85.354 0 48.149 32.614 84.461 75.864 84.465 10.701 0 21.45-2.282 31.965-6.78 0.523-0.223 1.050-0.469 1.562-0.731l210.882-107.46c112.334-5.216 220.344-43.229 312.401-109.939 92.224-66.834 163.292-158.761 205.52-265.842 2.397-6.097 2.397-12.806-0.002-18.897-41.009-103.981-109.574-194.076-198.29-260.546-89.064-66.734-194.309-106.233-304.391-114.249l-226.201-114.367c-0.482-0.244-0.981-0.478-1.485-0.694-10.508-4.499-21.262-6.778-31.965-6.778v0zM265.574 461.725c2.112 0 4.222-0.261 6.273-0.773 6.671-1.673 12.489-6.039 15.964-11.977 57.325-97.978 145.070-176.906 247.071-222.244 6.333-2.813 11.333-8.158 13.721-14.664 2.386-6.51 2.029-13.82-0.981-20.056-6.168-12.8-12.352-24.377-17.806-34.593-13.972-26.178-24.066-45.092-24.066-63.023 0-19.098 10.242-32.959 24.355-32.959 3.49 0 7.2 0.788 11.033 2.344l230.034 116.305c3.126 1.581 6.485 2.496 9.989 2.721 44.251 2.813 88.032 11.262 130.174 25.12-10.791 13.58-20.866 28.254-29.974 43.664-7.226 12.224-3.162 28.049 9.062 35.277 3.967 2.348 8.49 3.588 13.083 3.588 9.075 0 17.579-4.848 22.194-12.65 10.885-18.411 23.109-35.302 36.35-50.225 35.692 16.005 69.735 36.069 101.209 59.653 78.248 58.631 139.587 137.724 177.43 228.774-26.457 63.674-63.908 120.965-111.316 170.288-46.474 48.357-100.579 87.076-160.822 115.104-64.139-67.518-102.391-175.946-102.391-290.441 0-53.377 7.922-104.746 23.546-152.677 4.398-13.503-3.008-28.068-16.51-32.468-2.592-0.842-5.274-1.27-7.978-1.27-11.185 0-21.024 7.142-24.49 17.776-17.305 53.104-26.080 109.842-26.080 168.639 0 59.33 9.589 119.18 27.729 173.077 17.699 52.588 43.754 100.17 75.448 137.835-48.79 16.802-99.557 26.268-150.937 28.139-3.719 0.135-7.44 1.099-10.756 2.791l-215.029 109.574c-3.82 1.551-7.517 2.335-10.994 2.335-14.117 0-24.36-13.86-24.36-32.954 0-17.384 9.591-35.999 22.864-61.757 4.859-9.43 10.334-20.062 15.806-31.62 2.937-6.206 3.263-13.46 0.898-19.899-2.367-6.44-7.312-11.755-13.565-14.587-102.077-46.174-186.43-122.537-243.941-220.839-3.475-5.936-9.293-10.304-15.964-11.975-2.050-0.514-4.158-0.773-6.266-0.773-4.752 0-9.407 1.313-13.462 3.798l-173.028 106.080c-1.33 0.446-2.573 0.671-3.7 0.671-5.409 0-9.186-6.243-9.186-15.182 0-25.701 42.023-94.022 71.86-134.326 6.787-9.167 6.787-21.487 0-30.656-29.837-40.304-71.858-108.628-71.858-134.328 0-8.94 3.779-15.182 9.188-15.182 1.127 0 2.371 0.225 3.702 0.671l173.022 106.080c4.049 2.483 8.702 3.796 13.458 3.796v0z"></path>
    <path fill="#fff" d="M1032.348 516.111c-39.349 0-71.363-32.014-71.363-71.365s32.012-71.365 71.363-71.365c39.349 0 71.363 32.014 71.363 71.365s-32.014 71.365-71.363 71.365zM1032.348 422.747c-12.127 0-21.997 9.869-21.997 21.999 0 12.132 9.867 21.999 21.997 21.999 12.127 0 21.997-9.867 21.997-21.999 0-12.129-9.869-21.999-21.997-21.999z"></path>
    <path fill="#fff" d="M1032.348 374.452c38.758 0 70.292 31.534 70.292 70.294s-31.534 70.294-70.292 70.294-70.292-31.534-70.292-70.294c0.002-38.76 31.534-70.294 70.292-70.294zM1032.348 467.816c12.719 0 23.068-10.349 23.068-23.070s-10.349-23.070-23.068-23.070c-12.719 0-23.068 10.349-23.068 23.070 0.002 12.721 10.347 23.070 23.068 23.070zM1032.348 372.31c-39.94 0-72.434 32.494-72.434 72.436s32.494 72.436 72.434 72.436c39.94 0 72.434-32.494 72.434-72.436s-32.494-72.436-72.434-72.436v0zM1032.348 465.674c-11.538 0-20.926-9.387-20.926-20.928 0-11.538 9.387-20.928 20.926-20.928s20.926 9.387 20.926 20.928c0 11.54-9.387 20.928-20.926 20.928v0z"></path>
</svg>
