<svg version="1.1" xmlns="http://www.w3.org/2000/svg" xmlns:xlink="http://www.w3.org/1999/xlink" viewBox="0 0 50 50"
     x="0px" y="0px" style="width: 100%; height: auto;" preserveAspectRatio="none">
    <g>
        <path style="stroke:#000000;stroke-width:2;stroke-miterlimit:10;" d="M25.676,11.181c-3.596,0-6.522,2.927-6.522,6.522
			s2.927,6.522,6.522,6.522c3.595,0,6.522-2.927,6.522-6.522S29.271,11.181,25.676,11.181z M25.676,22.363
			c-2.569,0-4.659-2.09-4.659-4.659c0-2.568,2.09-4.658,4.659-4.658c2.569,0,4.659,2.09,4.659,4.658
			C30.335,20.273,28.245,22.363,25.676,22.363z"/>
        <path style="stroke:#000000;stroke-width:2;stroke-miterlimit:10;" d="M36.672,6.257c-3.114-3.115-7.257-4.831-11.662-4.831
			c-4.406,0-8.547,1.715-11.662,4.831c-5.765,5.764-6.482,16.609-1.552,23.18L25.01,48.52l13.193-19.056
			C43.154,22.867,42.437,12.022,36.672,6.257z M36.809,28.459L25.01,45.497L13.192,28.432c-4.471-5.962-3.83-15.756,1.373-20.959
			c2.79-2.79,6.499-4.327,10.445-4.327s7.655,1.537,10.446,4.327C40.659,12.676,41.3,22.47,36.809,28.459z"/>
    </g>
</svg>
