<?xml version="1.0" encoding="iso-8859-1"?>
<!-- Generator: Adobe Illustrator 20.1.0, SVG Export Plug-In . SVG Version: 6.00 Build 0)  -->
<svg version="1.1" id="&#x421;&#x43B;&#x43E;&#x439;_1"
	 xmlns="http://www.w3.org/2000/svg" xmlns:xlink="http://www.w3.org/1999/xlink" x="0px" y="0px" viewBox="0 0 27.125 27.25"
	 style="enable-background:new 0 0 27.125 27.25;" xml:space="preserve">
<g>
	<path d="M13.574,26.898c-7.277,0-13.199-5.921-13.199-13.199C0.375,6.422,6.297,0.5,13.574,0.5c7.278,0,13.199,5.922,13.199,13.199
		C26.773,20.977,20.852,26.898,13.574,26.898L13.574,26.898z M13.574,1.301c-6.836,0-12.398,5.562-12.398,12.398
		c0,6.84,5.562,12.403,12.398,12.403c6.84,0,12.403-5.563,12.403-12.403C25.977,6.863,20.414,1.301,13.574,1.301L13.574,1.301z
		 M13.574,1.301"/>
	<path d="M13.574,26.898c-2.746,0-5.387-0.843-7.637-2.445c-0.121-0.086-0.187-0.234-0.167-0.379
		c0.019-0.148,0.121-0.273,0.257-0.324c3.317-1.227,3.852-2.223,3.852-4.133c0-0.508-0.113-0.672-0.316-0.972
		c-0.274-0.395-0.645-0.938-0.903-2.352c-0.039-0.203-0.074-0.219-0.254-0.305c-0.484-0.234-0.929-0.57-1.047-2.105
		c0-0.742,0.254-1.153,0.469-1.363c-0.047-0.266-0.125-0.723-0.195-1.219C7.27,9.082,7.254,6.359,10.379,5.094
		c2.723-1.102,4.898-0.5,5.582,0.219c0.48,0.015,1.726,0.144,2.594,1.152c1.336,1.551,0.91,5.09,0.765,6.047
		c0.211,0.211,0.469,0.617,0.469,1.343c-0.113,1.563-0.559,1.899-1.047,2.133c-0.179,0.086-0.215,0.102-0.254,0.305
		c-0.258,1.414-0.629,1.957-0.902,2.352c-0.203,0.3-0.316,0.464-0.316,0.972c0,1.91,0.535,2.906,3.851,4.133
		c0.141,0.051,0.238,0.176,0.258,0.324c0.019,0.149-0.043,0.293-0.164,0.379C18.965,26.055,16.324,26.898,13.574,26.898
		L13.574,26.898z M7.027,24.223c1.973,1.23,4.219,1.879,6.547,1.879c2.328,0,4.578-0.649,6.547-1.879
		c-2.777-1.145-3.652-2.293-3.652-4.606c0-0.754,0.222-1.078,0.461-1.422c0.242-0.355,0.543-0.797,0.773-2.047
		c0.113-0.601,0.461-0.769,0.695-0.882c0.247-0.118,0.504-0.243,0.594-1.442c0-0.613-0.277-0.777-0.285-0.785
		c-0.148-0.082-0.242-0.262-0.211-0.43c0.195-1.062,0.524-4.379-0.547-5.625c-0.73-0.847-1.883-0.871-2.101-0.863
		c-0.035-0.004-0.071-0.004-0.106-0.012c-0.105-0.027-0.281-0.117-0.336-0.211c-0.215-0.371-2.109-1.121-4.726-0.062
		C8.094,6.883,8.09,9.125,8.426,11.18c0.109,0.765,0.23,1.429,0.23,1.429c0.031,0.184-0.058,0.36-0.226,0.438
		c0.004,0-0.27,0.168-0.27,0.805c0.09,1.171,0.344,1.293,0.594,1.414c0.23,0.109,0.582,0.277,0.691,0.882
		c0.231,1.247,0.535,1.688,0.778,2.043c0.238,0.344,0.457,0.672,0.457,1.422C10.68,21.93,9.809,23.082,7.027,24.223L7.027,24.223z
		 M7.027,24.223"/>
</g>
</svg>
