<svg xmlns="http://www.w3.org/2000/svg" viewBox="57.14 128.445 481 586"><path d="M509.449 495.901c-10.855 0-19.687 8.831-19.687 19.686 0 37.033-16.716 72.798-47.069 100.708-29.464 27.094-69.978 45.169-114.08 50.897l-11.288 1.466V409.866h78.127l2.955 4.569c8.345 12.9 22.425 20.602 37.666 20.602 24.734 0 44.857-20.123 44.857-44.858 0-24.735-20.123-44.858-44.857-44.858-15.243 0-29.323 7.702-37.665 20.602l-2.955 4.57h-78.128l-.007-66.613a25.027 25.027 0 0 1-.042-.732l-.296-7.457 7.065-2.405c33.359-11.358 55.772-42.623 55.772-77.801.003-21.912-8.555-42.537-24.097-58.079-15.541-15.542-36.168-24.101-58.08-24.101-45.317 0-82.184 36.866-82.184 82.18 0 35.176 22.413 66.442 55.773 77.801l7.065 2.405-.294 7.457c-.01.24-.024.479-.041.717l-.007.109v66.519h-78.125l-2.955-4.569c-8.344-12.901-22.424-20.603-37.663-20.603-24.734 0-44.857 20.123-44.857 44.858 0 24.735 20.123 44.858 44.857 44.858 15.241 0 29.32-7.701 37.663-20.601l2.955-4.57h78.128v258.79l-11.288-1.466c-44.1-5.729-84.615-23.804-114.079-50.897-30.354-27.91-47.071-63.676-47.071-100.708 0-10.855-8.832-19.686-19.687-19.686s-19.687 8.831-19.687 19.686c0 106.421 103.85 193 231.498 193s231.498-86.579 231.498-193c-.001-10.853-8.834-19.684-19.69-19.684zM254.835 215.485c0-23.604 19.203-42.807 42.807-42.807 23.605 0 42.809 19.203 42.809 42.807 0 23.605-19.204 42.81-42.809 42.81-23.604 0-42.807-19.205-42.807-42.81z"/></svg>