<svg xmlns="http://www.w3.org/2000/svg" viewBox="0 38.555 153.07 159.5"><path d="M126.173 196.09c-9.729 0-17.646-7.916-17.646-17.646 0-2.853.691-5.652 2.007-8.151H74.052a17.373 17.373 0 0 1 2.003 8.151c0 9.729-7.915 17.646-17.645 17.646-9.729 0-17.645-7.916-17.645-17.646 0-2.924.744-5.82 2.158-8.423-8.509-1.458-14.836-8.894-14.836-17.594V59.704L7.818 51.15c-2.411-1.014-3.547-3.806-2.532-6.223a4.734 4.734 0 0 1 4.372-2.908 4.75 4.75 0 0 1 1.851.375l23.186 9.753.509.237.019.018c.018.01.039.023.061.04.072.041.162.1.252.161l.113.091c.051.038.101.077.151.128a.517.517 0 0 1 .124.092c.055.025.144.111.223.192l-.262.444.355-.35.339.338.038.076c.057.072.096.13.124.186.042.064.067.104.093.154.023.036.041.064.056.09.057.066.097.13.126.185l.029.029.063.162c.086.13.126.218.162.326l.026.077v.017a.87.87 0 0 1 .019.07l.107.321v.082c0-.006.002-.009.003-.009.005 0 .015.027.021.069.012.045.021.086.029.126l.025.077.04.313a.707.707 0 0 1 .037.178c.033.167.033.338.033.504v14.476l106.53 14.704.06.019c.074.001.157.007.256.031l.124.031c.152 0 .335.081.405.115a.64.64 0 0 1 .188.063l.641.321.058.058.192.111c.079.043.139.083.195.125l.072.036.151.133.076.037.009.031.153.154c.04.028.148.111.22.256.001-.002.002-.002.003-.002.016 0 .076.065.123.159l.03.03.002-.002c.075.075.152.152.22.287.059.077.098.135.126.192.04.058.066.098.094.152l.071.143c.048.066.082.135.114.199.052.135.074.179.096.223a.873.873 0 0 1 .072.201c.033.072.052.145.063.189.041.119.053.17.063.217l.052.104-.006.114c.013.02.031.096.031.188.008.031.017.064.022.101.041.126.041.236.041.309v35.863c0 9.851-8.015 17.865-17.865 17.865h-84.34c-2.93 0-5.806-.704-8.372-2.043v10.666c0 4.616 3.755 8.372 8.372 8.372h80.221c9.73 0 17.646 7.915 17.646 17.645-.001 9.73-7.917 17.646-17.646 17.646zm.031-25.828c-4.495 0-8.151 3.656-8.151 8.151s3.656 8.151 8.151 8.151c4.495 0 8.151-3.656 8.151-8.151s-3.656-8.151-8.151-8.151zm-67.763 0c-4.495 0-8.151 3.656-8.151 8.151s3.657 8.151 8.151 8.151c4.495 0 8.151-3.656 8.151-8.151s-3.656-8.151-8.151-8.151zm-20.86-44.322c0 4.616 3.755 8.371 8.372 8.371h84.342c4.616 0 8.372-3.77 8.372-8.402v-31.37L37.581 80.614v45.326z"/><path d="M9.658 42.52c.553 0 1.115.108 1.657.336l23.186 9.753c.126.063.283.126.409.189.032.031.063.031.095.063.063.032.157.095.251.158.063.063.126.094.189.157.031.031.094.063.125.094.095.063.158.126.22.189l.095.094.188.188.095.095c.031.063.094.126.125.188.032.063.063.095.095.157.031.064.063.095.094.158.063.063.094.125.126.188.031.031.031.094.063.126a.923.923 0 0 1 .126.251c0 .032.032.095.032.126l.094.283c0 .063.031.095.031.157.032.095.032.157.063.252 0 .095.032.188.032.283a.242.242 0 0 1 .031.126c.031.126.031.283.031.44v14.911L144.01 86.239c.064 0 .095.031.126.031.095 0 .157 0 .252.031.031 0 .095.031.157.031s.157.032.221.063c.063.031.125.031.188.063l.188.095.189.094.188.095a.676.676 0 0 0 .189.126c.063.031.094.062.157.095.063.031.126.094.188.125.063.032.095.095.158.126l.156.157c.031.032.095.063.126.126.032.063.095.095.126.157.031.063.095.095.126.157.063.063.095.095.126.157.031.063.094.126.125.189.032.063.064.094.096.157l.094.188a.696.696 0 0 1 .094.157c.032.095.064.157.095.221.032.063.032.126.064.188.031.063.031.126.063.188.031.095.031.157.063.221 0 .063.031.126.031.188s.032.157.032.221c.031.063.031.125.031.189v35.863c0 9.563-7.802 17.365-17.365 17.365H45.952c-3.24 0-6.292-.881-8.872-2.391v11.514c0 4.876 3.964 8.872 8.872 8.872h80.221c9.438 0 17.146 7.707 17.146 17.145 0 9.438-7.708 17.146-17.146 17.146s-17.146-7.676-17.146-17.146c0-3.146.85-6.103 2.359-8.651h-38.19c1.51 2.518 2.359 5.506 2.359 8.651 0 9.438-7.707 17.146-17.145 17.146-9.438 0-17.145-7.676-17.145-17.146 0-3.209.912-6.229 2.454-8.809-8.525-1.101-15.132-8.4-15.132-17.208V59.372L8.012 50.69a4.242 4.242 0 0 1-2.265-5.568 4.237 4.237 0 0 1 3.911-2.602m36.294 92.291h84.342c4.876 0 8.872-3.964 8.872-8.902V94.103L37.081 80.04v45.899c0 4.877 3.963 8.872 8.871 8.872m80.252 52.254c4.751 0 8.651-3.869 8.651-8.651 0-4.781-3.9-8.651-8.651-8.651-4.75 0-8.651 3.901-8.651 8.651s3.901 8.651 8.651 8.651m-67.763 0c4.75 0 8.651-3.869 8.651-8.651 0-4.781-3.901-8.651-8.651-8.651s-8.651 3.901-8.651 8.651 3.901 8.651 8.651 8.651M9.658 41.52a5.232 5.232 0 0 0-4.833 3.214c-1.122 2.671.134 5.756 2.799 6.878l19.962 8.424V152.428c0 8.714 6.175 16.195 14.583 17.959a18.126 18.126 0 0 0-1.905 8.058c0 10.006 8.14 18.146 18.145 18.146s18.145-8.14 18.145-18.146c0-2.679-.581-5.293-1.694-7.651h34.866a18.025 18.025 0 0 0-1.7 7.651c0 10.006 8.14 18.146 18.146 18.146s18.146-8.14 18.146-18.146c0-10.005-8.14-18.145-18.146-18.145h-80.22c-4.34 0-7.872-3.531-7.872-7.872v-9.861a18.63 18.63 0 0 0 7.872 1.738h84.342c10.127 0 18.365-8.238 18.365-18.365V90.076c0-.085 0-.237-.052-.419l-.015-.076a1.553 1.553 0 0 0-.028-.192v-.145l-.067-.136a1.81 1.81 0 0 0-.046-.165l-.021-.066a1.456 1.456 0 0 0-.059-.177 1.397 1.397 0 0 0-.106-.279c-.008-.017-.022-.044-.037-.085l-.021-.064-.03-.061c-.033-.065-.074-.149-.133-.236l-.007-.013-.048-.097a1.603 1.603 0 0 0-.114-.191 1.517 1.517 0 0 0-.135-.208 1.39 1.39 0 0 0-.216-.294 1.611 1.611 0 0 0-.088-.103 1.249 1.249 0 0 0-.123-.155 1.286 1.286 0 0 0-.27-.286l-.117-.119-.119-.121-.046-.023a1.318 1.318 0 0 0-.201-.144 1.754 1.754 0 0 0-.217-.141 1.66 1.66 0 0 0-.168-.101l-.063-.063-.146-.073-.177-.089-.2-.1-.092-.046-.097-.049a1.498 1.498 0 0 0-.267-.099 1.594 1.594 0 0 0-.463-.126l-.058-.014a1.615 1.615 0 0 0-.318-.052 1.202 1.202 0 0 0-.189-.031L38.112 70.612v-14.04c0-.166 0-.366-.038-.572a1.116 1.116 0 0 0-.042-.216l-.013-.086-.001-.004v.007-.139l-.05-.152a2.175 2.175 0 0 0-.03-.14.93.93 0 0 0-.014-.069v-.052l-.053-.156-.072-.215-.001-.007v-.029l-.051-.154a1.828 1.828 0 0 0-.195-.415 1.165 1.165 0 0 0-.082-.16 1.697 1.697 0 0 0-.171-.262l-.028-.043a1.563 1.563 0 0 0-.097-.161 1.511 1.511 0 0 0-.133-.206l-.049-.101-.121-.119-.084-.084-.191-.191-.053-.052-.05-.05a2.31 2.31 0 0 0-.323-.278c-.026-.02-.053-.041-.082-.06a2.038 2.038 0 0 0-.14-.113l-.067-.066-.066-.04a6.439 6.439 0 0 0-.256-.164l-.026-.018-.034-.034-.143-.071c-.075-.038-.16-.076-.245-.114a3.217 3.217 0 0 1-.165-.076l-.028-.014-.029-.012-23.186-9.753a5.3 5.3 0 0 0-2.045-.411zm36.294 92.291c-4.34 0-7.872-3.531-7.872-7.871V81.188l100.085 13.787v30.934c0 4.357-3.531 7.902-7.872 7.902H45.952zm80.252 52.254c-4.219 0-7.651-3.433-7.651-7.651 0-4.219 3.433-7.651 7.651-7.651 4.219 0 7.651 3.433 7.651 7.651s-3.432 7.651-7.651 7.651zm-67.763 0c-4.219 0-7.651-3.433-7.651-7.651 0-4.219 3.433-7.651 7.651-7.651 4.219 0 7.651 3.433 7.651 7.651.001 4.218-3.432 7.651-7.651 7.651z"/></svg>