<svg xmlns="http://www.w3.org/2000/svg" viewBox="0 121.445 595.279 597"><path d="M105.359 713.955c-6.814 0-12.357-5.544-12.357-12.358V650.01a12.28 12.28 0 0 1 3.619-8.739l46.26-46.259c-16.289-17.657-27.138-37.475-32.252-58.917-.28-.234-.553-.482-.817-.746l-32.005-32.005-43.729 43.729a12.27 12.27 0 0 1-8.738 3.619 12.276 12.276 0 0 1-8.738-3.619c-4.818-4.819-4.818-12.66 0-17.479l52.466-52.466a12.28 12.28 0 0 1 8.738-3.619 12.28 12.28 0 0 1 8.739 3.619l21.244 21.245c1.412-16.647 6.319-32.793 14.595-48.01L68.61 396.587a10.071 10.071 0 0 1-.319-.333 35.606 35.606 0 0 1-9.6-18.633l-12.412-68.829c-9.778-4.933-18.471-12.286-25.842-21.859C6.936 269.397-.5 246.257-.5 221.777c0-24.478 7.435-47.619 20.936-65.157 14.24-18.499 33.47-28.687 54.147-28.687 13.811 0 27.306 4.699 39.027 13.589a12.344 12.344 0 0 1 4.745 11.749 12.339 12.339 0 0 1-8.09 9.75c-22.363 7.907-37.981 35.443-37.981 66.963 0 7.785.979 15.493 2.913 22.923 9.772-5.391 18.395-15.021 23.722-26.52 4.886-10.544 6.809-22.022 5.412-32.319a12.292 12.292 0 0 1 5.291-11.875 12.303 12.303 0 0 1 6.955-2.144c2.107 0 4.193.544 6.033 1.573 26.901 15.046 35.421 53.917 19.396 88.493-5.791 12.497-14.189 23.31-24.296 31.288l9.463 52.478 43.754 43.753c18.032-12.5 38.686-22.108 61.405-28.566l-13.729-28.832c-.133.004-.267.008-.4.008-18.451 0-33.462-15.011-33.462-33.463 0-18.451 15.011-33.462 33.462-33.462 18.452 0 33.463 15.011 33.463 33.462 0 9.126-3.614 17.636-10.186 24.005l15.568 32.691a241.294 241.294 0 0 1 40.296-3.399c13.642 0 27.377 1.175 40.836 3.494l15.613-32.788c-6.571-6.369-10.185-14.879-10.185-24.004 0-18.451 15.012-33.462 33.463-33.462s33.462 15.011 33.462 33.462c0 18.451-15.011 33.462-33.462 33.462-.134 0-.268-.004-.4-.008l-13.798 28.977c22.676 6.505 43.273 16.145 61.237 28.661l43.992-43.99 9.482-52.579c-10.177-8.035-18.58-18.811-24.315-31.185-16.025-34.575-7.505-73.446 19.397-88.493a12.384 12.384 0 0 1 6.032-1.573 12.3 12.3 0 0 1 6.955 2.144 12.283 12.283 0 0 1 5.29 11.874c-1.394 10.3.527 21.778 5.412 32.319 5.332 11.5 13.955 21.129 23.726 26.519a90.975 90.975 0 0 0 2.913-22.923c0-31.519-15.618-59.055-37.981-66.963a12.34 12.34 0 0 1-8.091-9.751 12.34 12.34 0 0 1 4.744-11.749c11.727-8.89 25.223-13.589 39.03-13.589 20.677 0 39.907 10.188 54.147 28.687 13.501 17.537 20.937 40.676 20.937 65.156 0 24.479-7.435 47.619-20.938 65.158-7.37 9.573-16.063 16.927-25.843 21.859l-12.411 68.828a35.625 35.625 0 0 1-9.61 18.646c-.094.102-.388.4-.388.4l-54.076 54.079c8.241 15.274 13.094 31.475 14.432 48.172l21.788-21.788a12.279 12.279 0 0 1 8.739-3.62c3.254 0 6.438 1.319 8.738 3.62l52.464 52.461c4.818 4.819 4.818 12.66 0 17.479a12.277 12.277 0 0 1-8.738 3.619c-3.3 0-6.403-1.285-8.739-3.619l-43.727-43.728-32.004 32.004c-.456.457-.96.882-1.535 1.293-5.14 21.112-15.85 40.646-31.836 58.068l46.562 46.563a12.286 12.286 0 0 1 3.619 8.738v51.589c0 6.813-5.544 12.357-12.357 12.357-6.814 0-12.358-5.544-12.358-12.357v-46.468l-43.527-43.528a179.745 179.745 0 0 1-3.575 2.817c-35.693 27.329-82.967 42.38-133.111 42.38-50.146 0-97.419-15.051-133.113-42.379a174.301 174.301 0 0 1-3.251-2.554L117.72 655.13v46.468c-.003 6.813-5.547 12.357-12.361 12.357zm47.83-265.86c-13.811 18.352-21.108 39.206-21.108 60.345 0 68.178 74.138 123.645 165.267 123.645 91.127 0 165.266-55.467 165.267-123.645 0-21.137-7.297-41.992-21.108-60.345-36.173 32.799-88.679 51.6-144.158 51.6s-107.987-18.801-144.16-51.6zm16.717-18.22c31.622 28.67 78.035 45.102 127.441 45.102 49.405 0 95.818-16.433 127.44-45.102-31.611-28.656-78.023-45.082-127.44-45.082-49.414 0-95.827 16.426-127.441 45.082zm273.54-16.385a158.617 158.617 0 0 1 7.983 8.001 153.618 153.618 0 0 1 7.118 8.267l50.379-50.378c.084-.089.177-.187.274-.283a10.991 10.991 0 0 0 3.064-5.859l10.4-57.669c-.655.027-1.312.053-1.97.053l-4.626-.005c-5.094 0-10.319-.768-15.539-2.282l-8.789 48.739a12.3 12.3 0 0 1-3.425 6.546l-44.869 44.87zM83.015 373.237a10.995 10.995 0 0 0 3.067 5.861c.099.099.194.196.286.296l50.04 50.037a154.45 154.45 0 0 1 6.857-7.942 156.734 156.734 0 0 1 8.288-8.283l-44.588-44.588a12.31 12.31 0 0 1-3.424-6.546l-8.772-48.648c-5.109 1.476-10.262 2.224-15.324 2.224l-4.862-.026c-.656 0-1.311-.025-1.965-.053l10.397 57.668zm294.057-75.203c-4.822 0-8.745 3.923-8.745 8.746 0 4.822 3.923 8.745 8.745 8.745 4.822 0 8.745-3.923 8.745-8.745.001-4.823-3.922-8.746-8.745-8.746zm-158.865 0c-4.822 0-8.745 3.923-8.745 8.746 0 4.822 3.923 8.745 8.745 8.745 4.822 0 8.745-3.923 8.745-8.745 0-4.823-3.923-8.746-8.745-8.746zm297.4-145.032c20.121 17.62 32.102 46.304 32.102 76.984 0 21.841-5.984 42.915-16.874 59.511 23.387-6.573 40.228-34.773 40.228-67.718 0-38.117-22.594-69.128-50.366-69.128a36.899 36.899 0 0 0-5.09.351zm-441.024-.353c-27.772 0-50.366 31.011-50.366 69.128 0 32.945 16.84 61.146 40.228 67.718-10.889-16.596-16.873-37.67-16.873-59.511 0-30.68 11.981-59.363 32.102-76.984a37.305 37.305 0 0 0-5.091-.351zm10.446 123.019c2.787 4.308 5.964 8.14 9.453 11.4 10.317-5.209 19.453-15.156 25.101-27.347 4.837-10.435 6.723-21.724 5.386-32.034a89.287 89.287 0 0 1-3.623 9.094c-8.028 17.324-20.912 31.112-36.317 38.887zm385.28-47.982c-1.337 10.309.549 21.599 5.385 32.036 5.64 12.166 14.796 22.094 25.156 27.291 3.47-3.251 6.628-7.064 9.398-11.346-15.406-7.776-28.29-21.565-36.317-38.887a89.696 89.696 0 0 1-3.622-9.094z"/><path d="M74.583 128.434c13.697 0 27.09 4.663 38.725 13.488a11.856 11.856 0 0 1 4.553 11.273 11.854 11.854 0 0 1-7.763 9.356c-22.56 7.976-38.314 35.707-38.314 67.434 0 8.193 1.087 16.18 3.092 23.666 9.983-5.319 18.927-15.03 24.497-27.053 4.926-10.629 6.863-22.204 5.454-32.596a11.86 11.86 0 0 1 17.539-11.942c26.675 14.919 35.103 53.506 19.187 87.846-5.976 12.894-14.511 23.558-24.388 31.291l9.544 52.927 44.16 44.159c18.185-12.666 39.331-22.466 62.169-28.895l-14.123-29.661c-.237.004-.474.018-.712.018-18.176 0-32.962-14.788-32.962-32.963 0-18.176 14.786-32.962 32.962-32.962s32.963 14.788 32.963 32.962c0 9.4-3.961 17.884-10.292 23.894l15.886 33.359a240.261 240.261 0 0 1 40.585-3.456 240.21 240.21 0 0 1 41.124 3.551l15.932-33.456c-6.331-6.01-10.292-14.495-10.292-23.894 0-18.176 14.787-32.962 32.963-32.962 18.176 0 32.962 14.787 32.962 32.962 0 18.176-14.787 32.962-32.962 32.962-.238 0-.475-.013-.712-.017l-14.191 29.805c22.786 6.474 43.875 16.303 62 28.992l44.398-44.397 9.563-53.029c-10.085-7.899-18.61-18.683-24.406-31.189-15.917-34.34-7.487-72.926 19.188-87.846a11.845 11.845 0 0 1 5.788-1.509c2.337 0 4.668.69 6.674 2.057a11.853 11.853 0 0 1 5.076 11.394c-1.407 10.391.528 21.967 5.454 32.596 5.573 12.022 14.517 21.732 24.5 27.051 2.006-7.486 3.092-15.474 3.092-23.666 0-31.728-15.756-59.458-38.314-67.434a11.858 11.858 0 0 1-3.212-20.629c11.64-8.824 25.031-13.488 38.729-13.488 20.52 0 39.607 10.119 53.751 28.492 13.436 17.451 20.833 40.482 20.833 64.851 0 24.368-7.397 47.399-20.834 64.853-7.434 9.656-16.24 17.005-25.894 21.83l-12.456 69.073a35.095 35.095 0 0 1-9.476 18.385c-.1.108-.201.213-.305.317l-.078.078-.068.07-54.273 54.273c8.459 15.573 13.415 32.217 14.632 49.386l22.559-22.559a11.86 11.86 0 0 1 16.771 0l52.464 52.461c4.631 4.632 4.631 12.141 0 16.771a11.824 11.824 0 0 1-8.385 3.473 11.827 11.827 0 0 1-8.386-3.473l-44.081-44.082-32.357 32.357c-.507.508-1.054.95-1.623 1.347-5.106 21.117-16.001 40.959-32.087 58.383l46.9 46.901a11.865 11.865 0 0 1 3.473 8.385v51.589c0 6.548-5.309 11.857-11.857 11.857-6.55 0-11.858-5.31-11.858-11.857v-46.675l-43.992-43.993a179.268 179.268 0 0 1-3.914 3.093c-35.607 27.262-82.772 42.276-132.808 42.276-50.036 0-97.203-15.015-132.81-42.276a179.594 179.594 0 0 1-3.591-2.827L117.22 654.92v46.675c0 6.548-5.308 11.858-11.858 11.858-6.549 0-11.857-5.31-11.857-11.858V650.01a11.86 11.86 0 0 1 3.473-8.386l46.601-46.599c-16.374-17.642-27.417-37.774-32.498-59.209a12.272 12.272 0 0 1-.911-.821l-32.358-32.358-44.082 44.082c-2.314 2.315-5.351 3.473-8.385 3.473s-6.069-1.157-8.385-3.473c-4.631-4.632-4.631-12.141 0-16.771l52.466-52.466a11.862 11.862 0 0 1 16.771 0l22.01 22.011c1.294-17.116 6.305-33.7 14.801-49.218L69.11 396.382l-.068-.07-.078-.078a10.16 10.16 0 0 1-.305-.317 35.092 35.092 0 0 1-9.476-18.384l-12.456-69.075c-9.653-4.825-18.46-12.175-25.893-21.83C7.398 269.177 0 246.145 0 221.777c0-24.368 7.397-47.399 20.832-64.852 14.144-18.373 33.233-28.491 53.751-28.491m-8.992 161.88c-11.211-16.549-17.52-37.703-17.52-60.329 0-31.479 12.742-60.279 32.748-77.313a37.286 37.286 0 0 0-6.236-.522c-28.048 0-50.866 31.234-50.866 69.628 0 34.192 18.101 62.707 41.874 68.536m464.098.001c23.774-5.829 41.874-34.344 41.874-68.537 0-38.393-22.818-69.628-50.866-69.628-2.104 0-4.185.174-6.236.522 20.006 17.033 32.749 45.833 32.749 77.313-.001 22.627-6.309 43.781-17.521 60.33m-28.751-2.701c3.759-3.478 7.122-7.566 10.032-12.146-15.282-7.558-28.462-21.37-36.585-38.898a88.575 88.575 0 0 1-4.252-11.056c-1.83 10.478-.268 22.819 5.106 34.417 5.79 12.489 15.083 22.466 25.699 27.683m-406.542.056c10.214-5.052 19.692-14.899 25.642-27.739 5.375-11.596 6.938-23.938 5.108-34.416a88.479 88.479 0 0 1-4.252 11.056c-8.124 17.527-21.303 31.341-36.586 38.898 2.925 4.603 6.305 8.711 10.088 12.201m282.676 28.354c5.098 0 9.245-4.148 9.245-9.245 0-5.097-4.146-9.246-9.245-9.246-5.097 0-9.245 4.148-9.245 9.246 0 5.097 4.149 9.245 9.245 9.245m-158.865 0c5.098 0 9.245-4.148 9.245-9.245 0-5.097-4.148-9.246-9.245-9.246-5.097 0-9.245 4.147-9.245 9.246 0 5.096 4.148 9.245 9.245 9.245m240.299 114.482l50.774-50.773c.09-.095.179-.189.272-.281a11.502 11.502 0 0 0 3.205-6.126l10.511-58.284c-.856.035-1.712.079-2.572.079l-4.625-.005c-5.258 0-10.635-.83-15.934-2.419l-8.888 49.288a11.857 11.857 0 0 1-3.286 6.282l-45.237 45.237a158.161 158.161 0 0 1 8.336 8.328c2.624 2.831 5.1 5.728 7.444 8.674M79.444 315.147l-4.859-.026c-.861 0-1.716-.043-2.571-.079l10.51 58.284a11.497 11.497 0 0 0 3.206 6.126c.093.093.184.186.271.281l50.447 50.445a153.924 153.924 0 0 1 7.184-8.351 158.44 158.44 0 0 1 8.641-8.61l-44.955-44.954a11.859 11.859 0 0 1-3.285-6.282l-8.871-49.195c-5.174 1.547-10.453 2.361-15.718 2.361m217.903 160.331c49.77 0 96.75-16.885 128.184-45.602-31.433-28.714-78.418-45.582-128.184-45.582-49.765 0-96.75 16.869-128.184 45.582 31.433 28.717 78.413 45.602 128.184 45.602m0 23.716c-55.598 0-108.448-19.183-144.227-51.838-14.132 18.598-21.54 39.506-21.54 61.083 0 68.451 74.362 124.145 165.767 124.145 91.403 0 165.766-55.691 165.767-124.145 0-21.579-7.409-42.485-21.54-61.083-35.779 32.656-88.628 51.838-144.227 51.838M74.583 127.434c-20.836 0-40.207 10.257-54.543 28.882C6.472 173.941-1 197.189-1 221.777c0 24.589 7.473 47.837 21.041 65.461 7.361 9.561 16.036 16.922 25.79 21.888l12.368 68.584a36.112 36.112 0 0 0 9.744 18.905c.088.097.2.212.313.326l.078.078.054.056 53.379 53.378c-8.025 14.857-12.858 30.59-14.38 46.811l-20.488-20.489a12.776 12.776 0 0 0-9.093-3.766 12.774 12.774 0 0 0-9.092 3.766L16.248 529.24c-5.013 5.014-5.014 13.171 0 18.186a12.77 12.77 0 0 0 9.092 3.766c3.436 0 6.664-1.337 9.092-3.766l43.375-43.375 31.651 31.651c.227.227.469.45.722.668 5.115 21.322 15.88 41.039 32.008 58.627l-45.921 45.92a12.78 12.78 0 0 0-3.766 9.093v51.588c0 7.09 5.768 12.858 12.857 12.858 7.09 0 12.858-5.768 12.858-12.858v-46.261l42.801-42.801a169.16 169.16 0 0 0 2.91 2.279c35.781 27.396 83.163 42.482 133.417 42.482 50.254 0 97.635-15.087 133.416-42.482a166.659 166.659 0 0 0 3.234-2.544l43.064 43.064v46.261c0 7.09 5.769 12.857 12.858 12.857 7.09 0 12.857-5.768 12.857-12.857v-51.589c0-3.432-1.337-6.66-3.765-9.092l-46.224-46.224c15.821-17.348 26.444-36.772 31.586-57.757.535-.394 1.011-.8 1.447-1.237l31.649-31.649 43.374 43.375a12.78 12.78 0 0 0 9.093 3.766 12.77 12.77 0 0 0 9.092-3.766c5.014-5.014 5.014-13.171 0-18.185l-52.464-52.461a12.947 12.947 0 0 0-9.092-3.767 12.775 12.775 0 0 0-9.093 3.767l-21.027 21.027c-1.451-16.269-6.232-32.055-14.223-46.967l53.746-53.747.098-.101.047-.045c.117-.118.227-.231.334-.348a36.096 36.096 0 0 0 9.726-18.886l12.367-68.583c9.755-4.966 18.431-12.328 25.79-21.888 13.569-17.626 21.042-40.874 21.042-65.463 0-24.589-7.473-47.837-21.041-65.461-14.337-18.625-33.707-28.882-54.543-28.882-13.917 0-27.519 4.734-39.333 13.691a12.844 12.844 0 0 0-4.936 12.224 12.84 12.84 0 0 0 8.419 10.145c22.166 7.838 37.647 35.18 37.647 66.491 0 7.526-.92 14.977-2.735 22.168-9.447-5.395-17.765-14.792-22.949-25.975-4.846-10.456-6.753-21.835-5.37-32.042.658-4.863-1.45-9.597-5.505-12.355a12.8 12.8 0 0 0-7.236-2.23 12.88 12.88 0 0 0-6.276 1.637c-27.129 15.173-35.741 54.328-19.607 89.139 5.724 12.349 14.092 23.118 24.223 31.181l-9.4 52.13-43.585 43.583c-17.778-12.327-38.113-21.853-60.475-28.328l13.404-28.152.089.001c18.727 0 33.962-15.235 33.962-33.962 0-18.727-15.235-33.962-33.962-33.962-18.728 0-33.963 15.235-33.963 33.962 0 9.143 3.574 17.677 10.08 24.112l-15.297 32.123a241.69 241.69 0 0 0-40.547-3.437 241.8 241.8 0 0 0-40.007 3.343l-15.252-32.028c6.506-6.435 10.081-14.969 10.081-24.112 0-18.727-15.236-33.962-33.963-33.962s-33.962 15.235-33.962 33.962c0 18.727 15.235 33.963 33.962 33.963h.088l13.335 28.005c-22.403 6.43-42.796 15.925-60.641 28.236l-43.348-43.347-9.382-52.029c10.063-8.008 18.425-18.813 24.204-31.284 16.135-34.811 7.523-73.966-19.605-89.139a12.9 12.9 0 0 0-6.277-1.636c-2.592 0-5.095.772-7.237 2.23a12.789 12.789 0 0 0-5.504 12.355c1.383 10.204-.524 21.583-5.371 32.042-5.181 11.183-13.498 20.58-22.946 25.976a90.603 90.603 0 0 1-2.736-22.168c0-31.312 15.481-58.654 37.648-66.491a12.84 12.84 0 0 0 8.418-10.145 12.84 12.84 0 0 0-4.937-12.224c-11.805-8.956-25.404-13.69-39.325-13.69zM63.286 288.623c-10.337-3.321-19.74-11.209-26.697-22.466-7.656-12.389-11.873-28.15-11.873-44.379 0-37.842 22.37-68.628 49.866-68.628 1.313 0 2.628.071 3.931.212-19.728 17.771-31.443 46.224-31.443 76.623.001 21.437 5.743 42.142 16.216 58.638zm453.479-135.261a36.582 36.582 0 0 1 3.932-.212c27.496 0 49.866 30.786 49.866 68.628 0 16.229-4.216 31.99-11.872 44.379-6.956 11.256-16.359 19.145-26.697 22.466 10.475-16.495 16.216-37.2 16.216-58.638-.001-30.4-11.717-58.853-31.445-76.623zm-16.002 133.045c-10.133-5.189-19.079-14.953-24.616-26.896-4.455-9.615-6.387-19.956-5.577-29.565a90.459 90.459 0 0 0 2.908 7.045c7.987 17.236 20.762 30.998 36.048 38.869-2.607 3.954-5.549 7.496-8.763 10.547zM85.752 275.86c15.285-7.869 28.059-21.63 36.049-38.869a89.864 89.864 0 0 0 2.908-7.044c.809 9.61-1.123 19.951-5.579 29.563-5.545 11.967-14.471 21.751-24.561 26.952-3.234-3.062-6.194-6.621-8.817-10.602zm291.32 39.164c-4.546 0-8.245-3.699-8.245-8.245 0-4.547 3.699-8.246 8.245-8.246s8.245 3.699 8.245 8.246c.001 4.547-3.699 8.245-8.245 8.245zm-158.865 0c-4.546 0-8.245-3.699-8.245-8.245 0-4.547 3.699-8.246 8.245-8.246s8.245 3.699 8.245 8.246c0 4.547-3.698 8.245-8.245 8.245zm225.957 98.454l44.507-44.506a12.793 12.793 0 0 0 3.563-6.812l8.69-48.195c5.088 1.427 10.179 2.15 15.146 2.15l4.624.005c.459 0 .916-.012 1.368-.029l-10.29 57.057a10.509 10.509 0 0 1-2.927 5.596c-.1.098-.196.199-.294.303l-49.965 49.963a152.937 152.937 0 0 0-6.792-7.859 156.638 156.638 0 0 0-7.63-7.673zM79.438 316.147h.006c4.933 0 9.95-.704 14.929-2.092l8.674 48.104a12.813 12.813 0 0 0 3.562 6.812l44.223 44.222a156.325 156.325 0 0 0-7.935 7.956 155.24 155.24 0 0 0-6.53 7.536l-49.66-49.658a9.994 9.994 0 0 0-.27-.28 10.5 10.5 0 0 1-2.931-5.598l-10.289-57.056c.451.017.908.028 1.366.028l4.855.026zm91.215 113.728c15.238-13.697 34.598-24.963 56.064-32.616 21.957-7.828 46.38-11.965 70.63-11.965 24.251 0 48.675 4.137 70.631 11.965 21.467 7.653 40.826 18.919 56.064 32.617-15.24 13.702-34.6 24.972-56.063 32.629-21.959 7.833-46.383 11.974-70.632 11.974-24.25 0-48.674-4.141-70.632-11.974-21.464-7.658-40.823-18.928-56.062-32.63zm126.694 201.709c-90.853 0-164.767-55.242-164.767-123.145 0-20.86 7.147-41.449 20.68-59.606 17.565 15.814 39.739 28.814 64.202 37.629 24.93 8.983 52.553 13.732 79.885 13.732 27.332 0 54.955-4.749 79.885-13.732 24.463-8.815 46.637-21.814 64.201-37.629 13.533 18.159 20.681 38.747 20.681 59.606-.001 67.903-73.916 123.145-164.767 123.145z"/></svg>