<svg xmlns="http://www.w3.org/2000/svg" viewBox="0 0 130.4 79.4"><path d="M67 79.3c-21.8 0-39.6-17.8-39.6-39.6S45.2.2 67 .2s39.6 17.8 39.6 39.6c-.1 21.8-17.8 39.5-39.6 39.5zm0-74.1c-19.1 0-34.6 15.5-34.6 34.6S47.9 74.4 67 74.4s34.6-15.5 34.6-34.6C101.5 20.7 86 5.2 67 5.2z"/><path d="M67 62.5c-12.6 0-22.8-10.2-22.8-22.8C44.2 27.2 54.4 17 67 17s22.8 10.2 22.8 22.8C89.7 52.3 79.5 62.5 67 62.5zM67 22c-9.8 0-17.8 8-17.8 17.8s8 17.8 17.8 17.8 17.8-8 17.8-17.8C84.7 29.9 76.8 22 67 22zM19.7 9.1c-1.4 0-2.5 1.1-2.5 2.5v13.2c0 2.4-1.5 4.6-3.6 5.5V11.6c0-1.4-1.1-2.5-2.5-2.5s-2.5 1.1-2.5 2.5v18.8c-2.1-1-3.6-3.1-3.6-5.5V11.6c0-1.4-1.1-2.5-2.5-2.5S0 10.2 0 11.6v13.2c0 5.2 3.7 9.6 8.6 10.8v32.7c0 1.4 1.1 2.5 2.5 2.5s2.5-1.1 2.5-2.5V35.6c4.9-1.1 8.6-5.5 8.6-10.8V11.6c0-1.4-1.1-2.5-2.5-2.5zM127 70.8c-1.4 0-2.5-1.1-2.5-2.5V50.1c-5.8-.7-10.2-5.7-10.2-11.6V20.4c0-6.5 5.3-11.7 11.7-11.7h1c1.4 0 2.5 1.1 2.5 2.5v57.1c0 1.4-1.1 2.5-2.5 2.5zm-2.5-57c-3 .7-5.2 3.4-5.2 6.6v18.1c0 3.2 2.2 5.9 5.2 6.6V13.8z"/></svg>