<svg xmlns="http://www.w3.org/2000/svg" viewBox="0 0 16 25"><path d="M9.945.523h.07c.406.016.75.168 1.031.457a1.443 1.443 0 0 1 .375 1.395L10.063 9.43h4.336c.281 0 .543.074.785.223.242.149.426.348.551.598.125.25.176.516.152.797s-.114.539-.27.773L7.203 23.867a1.65 1.65 0 0 1-.516.457 1.313 1.313 0 0 1-.633.152c-.109 0-.215-.008-.316-.023a.993.993 0 0 1-.293-.094 1.544 1.544 0 0 1-.727-.668 1.407 1.407 0 0 1-.164-.973l1.383-8.039-4.336-.023a1.47 1.47 0 0 1-.785-.223 1.45 1.45 0 0 1-.551-.598c-.125-.25-.176-.516-.152-.797s.113-.539.27-.773L8.797 1.156a.185.185 0 0 0 .035-.047.175.175 0 0 1 .035-.046A1.01 1.01 0 0 1 9.02.898a.842.842 0 0 1 .176-.117c.094-.078.191-.137.293-.176a1.46 1.46 0 0 1 .34-.082h.116zm0 1.5L1.602 13.18l6.141.023-1.688 9.773 8.344-12.047-6.141-.023 1.687-8.883z" fill="#00b0ff"/></svg>