<svg xmlns="http://www.w3.org/2000/svg" viewBox="0 191.445 595.279 457"><path d="M473.264 610.217a.744.744 0 0 1-.53-.22l-40.869-40.869a.749.749 0 0 1 0-1.06l12.885-12.885a.75.75 0 0 1 1.06 0l40.869 40.869a.75.75 0 0 1 0 1.061l-12.885 12.885a.751.751 0 0 1-.53.219z"/><path d="M445.279 555.713l40.869 40.869-12.885 12.885-40.869-40.869 12.885-12.885m0-1.5c-.384 0-.767.147-1.06.439l-12.885 12.885a1.5 1.5 0 0 0 0 2.121l40.869 40.869a1.496 1.496 0 0 0 2.122 0l12.885-12.885a1.5 1.5 0 0 0 0-2.121l-40.869-40.869a1.5 1.5 0 0 0-1.062-.439zM501.653 638.611a.747.747 0 0 1-.53-.22l-12.911-12.912a.75.75 0 0 1 0-1.061l12.885-12.885a.749.749 0 0 1 1.06 0l12.911 12.911a.749.749 0 0 1 0 1.06l-12.885 12.886a.745.745 0 0 1-.53.221z"/><path d="M501.626 612.064l12.911 12.911-12.885 12.886-12.911-12.912 12.885-12.885m0-1.5c-.397 0-.779.158-1.061.44l-12.885 12.885a1.5 1.5 0 0 0 0 2.121l12.911 12.912a1.5 1.5 0 0 0 2.121 0l12.885-12.886a1.5 1.5 0 0 0 0-2.121l-12.911-12.911a1.5 1.5 0 0 0-1.06-.44zM497.326 430.81a.75.75 0 0 1-.75-.75v-18.223a.75.75 0 0 1 .75-.75h97.953a.75.75 0 0 1 .75.75v18.223a.75.75 0 0 1-.75.75h-97.953z"/><path d="M595.279 411.837v18.223h-97.953v-18.223h97.953m0-1.5h-97.953a1.5 1.5 0 0 0-1.5 1.5v18.223a1.5 1.5 0 0 0 1.5 1.5h97.953a1.5 1.5 0 0 0 1.5-1.5v-18.223a1.5 1.5 0 0 0-1.5-1.5zM445.273 286.932a.747.747 0 0 1-.53-.22l-12.885-12.885a.75.75 0 0 1 0-1.061l69.262-69.262a.749.749 0 0 1 1.06 0l12.885 12.885a.75.75 0 0 1 0 1.061l-69.262 69.263a.752.752 0 0 1-.53.219z"/><path d="M501.65 204.034l12.885 12.885-69.262 69.263-12.885-12.885 69.262-69.263m0-1.5c-.398 0-.779.158-1.061.439l-69.262 69.262a1.5 1.5 0 0 0 0 2.121l12.885 12.885a1.5 1.5 0 0 0 2.121 0l69.262-69.263a1.5 1.5 0 0 0 0-2.121l-12.885-12.885a1.504 1.504 0 0 0-1.06-.438zM149.997 286.942a.747.747 0 0 1-.53-.22L80.205 217.46a.75.75 0 0 1 0-1.061l12.885-12.885a.749.749 0 0 1 1.06 0l69.262 69.262a.75.75 0 0 1 0 1.061l-12.885 12.885a.747.747 0 0 1-.53.22z"/><path d="M93.62 204.045l69.262 69.262-12.885 12.885-69.261-69.262 12.884-12.885m0-1.5a1.5 1.5 0 0 0-1.061.44L79.674 215.87a1.5 1.5 0 0 0 0 2.121l69.262 69.263a1.5 1.5 0 0 0 2.122 0l12.885-12.885a1.5 1.5 0 0 0 0-2.121l-69.262-69.262a1.494 1.494 0 0 0-1.061-.441z"/><g><path d="M0 430.81a.75.75 0 0 1-.75-.75v-18.223a.75.75 0 0 1 .75-.75h97.953a.75.75 0 0 1 .75.75v18.223a.75.75 0 0 1-.75.75H0z"/><path d="M97.953 411.837v18.223H0v-18.223h97.953m0-1.5H0a1.5 1.5 0 0 0-1.5 1.5v18.223a1.5 1.5 0 0 0 1.5 1.5h97.953a1.5 1.5 0 0 0 1.5-1.5v-18.223a1.5 1.5 0 0 0-1.5-1.5z"/></g><g><path d="M93.61 638.604a.744.744 0 0 1-.53-.22L80.195 625.5a.749.749 0 0 1 0-1.06l69.263-69.262a.748.748 0 0 1 1.06 0l12.885 12.885a.749.749 0 0 1 0 1.06L94.14 638.385a.75.75 0 0 1-.53.219z"/><path d="M149.988 555.708l12.885 12.885-69.263 69.261-12.885-12.884 69.263-69.262m0-1.5c-.384 0-.768.146-1.061.439l-69.263 69.262a1.5 1.5 0 0 0 0 2.121l12.885 12.885c.293.293.677.439 1.061.439.384 0 .768-.146 1.061-.439l69.263-69.262a1.5 1.5 0 0 0 0-2.121l-12.885-12.885a1.499 1.499 0 0 0-1.061-.439z"/></g><g><path d="M198.617 370.552a.732.732 0 0 1-.291-.059l-16.79-7.079a.75.75 0 0 1-.399-.982l7.17-17.005a.748.748 0 0 1 .982-.399l16.79 7.079a.75.75 0 0 1 .399.982l-7.17 17.005a.748.748 0 0 1-.691.458z"/><path d="M188.997 345.717l16.79 7.079-7.17 17.005-16.79-7.079 7.17-17.005m.001-1.5c-.585 0-1.141.345-1.383.918l-7.17 17.005a1.502 1.502 0 0 0 .8 1.965l16.79 7.079a1.504 1.504 0 0 0 1.966-.799l7.17-17.006a1.502 1.502 0 0 0-.8-1.965l-16.79-7.079a1.507 1.507 0 0 0-.583-.118z"/></g><g><path d="M224.987 638.116a.75.75 0 0 1-.731-.916l41.618-183.327h-122.16a.751.751 0 0 1-.691-1.041l28.892-68.516a.749.749 0 0 1 .982-.399l16.791 7.08a.75.75 0 0 1 .399.982l-17.781 42.171h117.331a.75.75 0 0 1 .731.916L261.18 563.643 416.923 374.74H293.149a.75.75 0 0 1-.681-1.064l57.082-123.88h-99.507l-34.341 81.439a.75.75 0 0 1-.983.399l-16.79-7.081a.748.748 0 0 1-.399-.982l39.231-93.041a.75.75 0 0 1 .691-.459h141.73a.75.75 0 0 1 .681 1.064L322.78 355.018h134.375a.75.75 0 0 1 .579 1.227L225.566 637.844a.75.75 0 0 1-.579.272z"/><path d="M379.182 230.823L321.61 355.768h135.546L224.988 637.366l41.826-184.243h-123.1l28.892-68.516 16.791 7.08-18.221 43.212h118.462l-29.889 131.658L418.514 373.99H293.149l57.571-124.944H249.544l-34.534 81.897-16.79-7.081 39.231-93.041h141.731m0-1.498h-141.73a1.5 1.5 0 0 0-1.382.917l-39.231 93.041a1.5 1.5 0 0 0 .799 1.965l16.79 7.081a1.515 1.515 0 0 0 1.148.008c.368-.15.662-.44.817-.807l34.147-80.98h97.837l-56.591 122.816a1.5 1.5 0 0 0 1.362 2.128h122.185L262.611 560.729l28.49-125.498a1.5 1.5 0 0 0-1.463-1.832H173.436l17.343-41.129a1.502 1.502 0 0 0-.8-1.965l-16.791-7.08a1.499 1.499 0 0 0-1.965.799l-28.892 68.516a1.503 1.503 0 0 0 1.382 2.083h121.221l-41.41 182.411a1.5 1.5 0 0 0 2.621 1.286l232.168-281.599a1.5 1.5 0 0 0-1.158-2.454H323.952l56.592-122.817a1.5 1.5 0 0 0-1.362-2.127z"/></g></svg>