<svg xmlns="http://www.w3.org/2000/svg" viewBox="-49 141 512 512"><path d="M341.906 552.615c-9.24 0-16.731 7.491-16.731 16.731v33.462c0 27.676 22.516 50.192 50.192 50.192s50.192-22.517 50.192-50.195V244.139l17.478-17.478c19.569-19.569 19.569-51.411 0-70.982-19.571-19.573-51.415-19.571-70.983 0L-29.038 556.77c-19.568 19.571-19.568 51.413 0 70.983h.001c19.616 19.616 51.366 19.62 70.983 0l47.355-47.355c2.449 17.338 10.323 34.048 23.628 47.355 32.618 32.618 85.687 32.617 118.304 0 32.694-32.694 32.699-85.608 0-118.303-13.307-13.307-30.017-21.179-47.356-23.628l35.525-35.525 35.49 35.492c6.532 6.534 17.126 6.535 23.661 0 6.534-6.533 6.534-17.127 0-23.661l-35.49-35.492 47.322-47.322 35.49 35.492c3.267 3.268 7.549 4.901 11.83 4.901s8.564-1.634 11.83-4.901c6.534-6.533 6.534-17.126 0-23.661l-35.49-35.492L392.21 277.6v325.205c0 9.227-7.617 16.733-16.842 16.733-9.225 0-16.731-7.505-16.731-16.731v-33.462c0-9.239-7.491-16.73-16.731-16.73zM18.285 604.093c-6.525 6.524-17.137 6.523-23.662 0h.001c-6.524-6.524-6.524-17.138-.001-23.662l82.814-82.813 23.662 23.662-82.814 82.813zm189.287-70.984c19.619 19.619 19.617 51.364 0 70.983-19.572 19.568-51.413 19.569-70.984 0-15.422-15.424-18.68-38.465-9.794-57.118l33.456 33.456c6.534 6.534 17.127 6.534 23.661 0 6.534-6.533 6.534-17.127 0-23.661l-33.456-33.456c18.743-8.928 41.748-5.574 57.117 9.796zm-82.813-35.491l-23.662-23.662 294.618-294.617c6.525-6.523 17.138-6.523 23.661 0 6.524 6.524 6.524 17.137.001 23.661L124.759 497.618z"/></svg>