<svg xmlns="http://www.w3.org/2000/svg" viewBox="0 178.445 595.279 484"><path d="M239.592 655.31c-19.904-.002-34.913-16.737-34.913-38.928 0-13.823 6.158-25.775 13.289-39.613.639-1.24 1.284-2.495 1.935-3.767-43.643-22.061-80.831-55.753-107.59-97.473L40.461 519.58c-.476.291-.976.549-1.488.768-3.814 1.633-7.731 2.461-11.641 2.461C11.465 522.809-.5 509.64-.5 492.177c0-20.298 23.071-55.391 33.23-69.857C22.571 407.852-.5 372.755-.5 352.461c0-8.433 2.824-16.19 7.952-21.843 5.14-5.667 12.199-8.787 19.877-8.787h.002c3.91 0 7.826.827 11.638 2.458.52.224 1.02.483 1.489.771l71.861 44.057c27.116-42.118 64.783-76.048 108.983-98.173-.881-1.67-1.755-3.31-2.619-4.93-7.516-14.081-14.008-26.243-14.008-40.505 0-22.193 15.01-38.929 34.914-38.929 4.928 0 9.881 1.05 14.723 3.122.226.097.449.201.667.312l105.677 53.431c51.325 3.718 100.401 22.127 141.926 53.239 41.337 30.973 73.286 72.954 92.395 121.405a11.499 11.499 0 0 1 .001 8.454C554.966 528.011 460.202 596.731 353.55 601.647l-98.537 50.212c-.227.116-.462.228-.699.327-4.844 2.073-9.796 3.124-14.719 3.124h-.003zm-123.48-207.15c.942 0 1.886.116 2.803.346a11.596 11.596 0 0 1 7.142 5.357c26.898 45.978 66.353 81.694 114.097 103.291a11.595 11.595 0 0 1 6.068 6.524 11.595 11.595 0 0 1-.401 8.903c-2.551 5.388-5.107 10.348-7.361 14.724-6.239 12.108-10.739 20.842-10.739 29.078 0 9.203 4.992 15.883 11.869 15.883 1.7 0 3.504-.385 5.361-1.143l100.375-51.151a11.595 11.595 0 0 1 4.813-1.249c24.276-.883 48.258-5.392 71.291-13.4-30.839-36.294-48.516-89.229-48.516-145.366 0-27.393 4.088-53.826 12.149-78.565a11.496 11.496 0 0 1 10.956-7.953c1.209 0 2.409.191 3.568.568 6.041 1.969 9.355 8.485 7.387 14.525-7.31 22.425-11.016 46.456-11.016 71.424 0 53.72 18.004 104.593 48.182 136.182 57.644-26.718 102.978-74.224 127.689-133.824-17.693-42.667-46.412-79.727-83.066-107.191a248.905 248.905 0 0 0-47.674-28.052c-6.295 7.058-12.104 15.063-17.268 23.796a11.586 11.586 0 0 1-9.931 5.66c-2.054 0-4.077-.555-5.853-1.606-5.468-3.234-7.286-10.314-4.054-15.782 4.366-7.385 9.209-14.409 14.4-20.886a244.706 244.706 0 0 0-61.571-11.976 11.46 11.46 0 0 1-4.47-1.217L244.93 210.752c-1.826-.744-3.635-1.13-5.34-1.13-6.877 0-11.869 6.681-11.869 15.885 0 8.496 4.737 17.371 11.292 29.655 2.545 4.764 5.428 10.165 8.303 16.13a11.579 11.579 0 0 1 .439 8.973 11.58 11.58 0 0 1-6.138 6.561c-47.708 21.205-88.749 58.121-115.56 103.947a11.588 11.588 0 0 1-7.142 5.358 11.505 11.505 0 0 1-8.827-1.352l-80.813-49.547c-.692-.237-1.345-.357-1.941-.357-2.82 0-4.789 3.12-4.789 7.587 0 12.11 19.672 44.132 33.641 63.001a11.462 11.462 0 0 1 0 13.715c-13.969 18.868-33.642 50.889-33.642 63 0 4.467 1.969 7.587 4.788 7.587.596 0 1.249-.12 1.941-.358l80.816-49.546a11.512 11.512 0 0 1 6.023-1.701z"/><path d="M239.59 187.081c4.858 0 9.745 1.036 14.526 3.082.215.092.429.192.637.298l105.769 53.477c51.281 3.695 100.253 22.047 141.762 53.148 41.264 30.918 73.155 72.825 92.229 121.189a11.046 11.046 0 0 1 .001 8.088c-40.045 101.546-134.501 169.926-241.095 174.791l-98.633 50.261c-.218.111-.441.217-.667.313-4.781 2.046-9.668 3.084-14.523 3.084h-.004c-19.62-.002-34.413-16.523-34.413-38.428 0-13.702 6.133-25.605 13.233-39.385.714-1.386 1.436-2.789 2.165-4.215-44.111-22.195-81.16-55.76-108.107-97.936l-72.271 44.308c-.456.278-.933.524-1.424.735-3.751 1.605-7.602 2.42-11.443 2.42C11.749 522.31 0 509.356 0 492.178c0-20.035 22.426-54.347 33.342-69.857C22.426 406.808 0 372.496 0 352.461c0-17.178 11.749-30.132 27.332-30.13 3.841 0 7.69.813 11.441 2.418.491.212.968.457 1.424.737l72.278 44.313c27.021-42.129 65.311-76.617 109.508-98.636-.962-1.828-1.916-3.618-2.858-5.384-7.485-14.023-13.949-26.135-13.949-40.27 0-21.907 14.796-38.428 34.414-38.428M116.109 395.977a11.01 11.01 0 0 1-5.759-1.625l-80.86-49.575c-.766-.268-1.489-.402-2.156-.402-3.115 0-5.289 3.325-5.289 8.087 0 12.224 19.729 44.374 33.739 63.299a11.026 11.026 0 0 1 0 13.12c-14.011 18.925-33.74 51.074-33.74 63.298 0 4.761 2.174 8.087 5.288 8.087.666 0 1.39-.135 2.156-.403l80.862-49.575a11.03 11.03 0 0 1 8.444-1.295 11.022 11.022 0 0 1 6.832 5.125c26.952 46.068 66.484 81.854 114.322 103.493a11.032 11.032 0 0 1 5.805 6.242c1.02 2.775.88 5.845-.384 8.517-2.551 5.388-5.107 10.35-7.362 14.727-6.262 12.152-10.785 20.931-10.785 29.289 0 9.492 5.202 16.383 12.369 16.383h.002c1.767 0 3.63-.396 5.548-1.18l100.413-51.169a10.993 10.993 0 0 1 4.604-1.194c24.957-.908 49.21-5.624 72.128-13.669-30.782-35.898-48.87-89.235-48.87-145.598 0-27.343 4.08-53.723 12.125-78.41 1.517-4.654 5.838-7.608 10.48-7.608 1.131 0 2.281.175 3.414.544 5.788 1.886 8.951 8.107 7.065 13.895-7.326 22.477-11.04 46.561-11.04 71.579 0 54.279 18.098 105.065 48.567 136.785 56.745-26.201 103.196-73.641 128.345-134.428-17.731-42.854-46.468-79.988-83.308-107.591a248.911 248.911 0 0 0-48.104-28.257c-6.404 7.141-12.303 15.241-17.568 24.147a11.023 11.023 0 0 1-15.098 3.879c-5.239-3.099-6.976-9.858-3.878-15.098 4.525-7.655 9.487-14.804 14.81-21.387a244.9 244.9 0 0 0-62.381-12.228 11.006 11.006 0 0 1-4.275-1.164l-107.415-54.309c-1.922-.785-3.795-1.184-5.565-1.184-7.168 0-12.369 6.891-12.369 16.385 0 8.621 4.762 17.543 11.352 29.891 2.552 4.778 5.442 10.195 8.294 16.112a11.022 11.022 0 0 1-5.452 14.859c-47.805 21.248-88.925 58.236-115.789 104.151a11.018 11.018 0 0 1-9.517 5.455M239.59 186.081c-20.189 0-35.414 16.951-35.414 39.429 0 14.387 6.519 26.6 14.067 40.741.786 1.473 1.58 2.962 2.38 4.476-21.732 10.931-42.085 24.881-60.503 41.471a281.06 281.06 0 0 0-47.955 56.238L40.72 324.634c-.489-.3-1.011-.57-1.551-.803-3.877-1.659-7.859-2.5-11.837-2.5-7.822-.001-15.014 3.178-20.251 8.951C1.87 336.027-1 343.904-1 352.461c0 8.879 4.271 21.361 12.696 37.097 6.753 12.614 14.758 24.679 20.424 32.762-5.665 8.081-13.67 20.145-20.424 32.76C3.272 470.816-1 483.298-1 492.178c0 17.748 12.18 31.132 28.332 31.132 3.978 0 7.96-.841 11.837-2.501a12.222 12.222 0 0 0 1.551-.801l71.437-43.797c26.695 41.463 63.686 74.977 107.072 97.01-.574 1.119-1.142 2.225-1.706 3.318-7.16 13.897-13.344 25.898-13.344 39.843 0 22.476 15.224 39.426 35.413 39.428 4.995 0 10.013-1.065 14.921-3.165.244-.104.49-.219.729-.341l98.439-50.162c52.437-2.435 102.856-20.179 145.828-51.319 43.05-31.198 76.224-74.109 95.936-124.094a12.004 12.004 0 0 0-.001-8.821c-19.143-48.538-51.149-90.594-92.561-121.622-41.575-31.151-90.703-49.589-142.089-53.331l-105.59-53.386a12.186 12.186 0 0 0-.693-.324c-4.905-2.1-9.925-3.164-14.921-3.164zM116.109 396.977c.986 0 1.971-.122 2.928-.361a12.095 12.095 0 0 0 7.452-5.591c26.759-45.736 67.718-82.579 115.332-103.743a12.087 12.087 0 0 0 6.405-6.845 12.084 12.084 0 0 0-.458-9.362c-2.879-5.975-5.766-11.379-8.312-16.148-6.522-12.22-11.234-21.049-11.234-29.419 0-8.915 4.781-15.385 11.369-15.385 1.629 0 3.361.368 5.15 1.094l107.379 54.291a11.969 11.969 0 0 0 4.663 1.27 244.196 244.196 0 0 1 60.765 11.726c-5.037 6.339-9.74 13.189-13.992 20.382-3.373 5.706-1.476 13.093 4.23 16.467a11.998 11.998 0 0 0 6.107 1.675c4.236 0 8.206-2.263 10.36-5.905 5.081-8.594 10.787-16.479 16.968-23.445a248.418 248.418 0 0 1 47.244 27.846c36.526 27.369 65.159 64.289 82.824 106.791-12.35 29.723-29.832 56.466-51.962 79.49-21.694 22.573-46.95 40.647-75.071 53.73-29.94-31.517-47.796-82.131-47.796-135.577 0-24.916 3.698-48.895 10.991-71.269 2.053-6.303-1.404-13.102-7.707-15.156a12.035 12.035 0 0 0-3.724-.593 11.994 11.994 0 0 0-11.432 8.298c-8.078 24.789-12.174 51.274-12.174 78.72 0 27.695 4.476 55.633 12.944 80.792 8.262 24.548 20.424 46.759 35.219 64.341a243.39 243.39 0 0 1-70.457 13.135 12.085 12.085 0 0 0-5.021 1.303l-100.375 51.149c-1.783.724-3.509 1.09-5.132 1.09-6.59 0-11.371-6.47-11.371-15.383 0-8.115 4.477-16.804 10.673-28.828 2.268-4.402 4.824-9.365 7.378-14.76a12.098 12.098 0 0 0 .419-9.289 12.107 12.107 0 0 0-6.332-6.809c-47.649-21.554-87.025-57.2-113.871-103.087a12.093 12.093 0 0 0-7.452-5.59 12.034 12.034 0 0 0-9.209 1.412l-80.769 49.518c-.621.208-1.201.313-1.727.313-2.525 0-4.288-2.914-4.288-7.087 0-11.997 19.616-43.889 33.544-62.703a11.961 11.961 0 0 0 0-14.31c-13.928-18.814-33.543-50.707-33.543-62.704 0-4.173 1.764-7.087 4.289-7.087.526 0 1.107.105 1.728.313l80.766 49.518a12.01 12.01 0 0 0 6.282 1.772z"/><g><path d="M474.037 422.364c-18.368 0-33.312-14.944-33.312-33.313s14.943-33.313 33.312-33.313c18.368 0 33.312 14.944 33.312 33.313s-14.944 33.313-33.312 33.313zm0-43.582c-5.661 0-10.268 4.607-10.268 10.269 0 5.663 4.606 10.269 10.268 10.269 5.661 0 10.268-4.606 10.268-10.269 0-5.662-4.607-10.269-10.268-10.269z"/><path d="M474.037 356.238c18.092 0 32.812 14.72 32.812 32.813 0 18.093-14.72 32.813-32.812 32.813s-32.812-14.72-32.812-32.813c.001-18.093 14.72-32.813 32.812-32.813m0 43.582c5.937 0 10.768-4.831 10.768-10.769s-4.831-10.769-10.768-10.769-10.768 4.831-10.768 10.769c.001 5.938 4.83 10.769 10.768 10.769m0-44.582c-18.644 0-33.812 15.168-33.812 33.813 0 18.645 15.168 33.813 33.812 33.813s33.812-15.168 33.812-33.813c0-18.645-15.168-33.813-33.812-33.813zm0 43.582c-5.386 0-9.768-4.382-9.768-9.769 0-5.386 4.382-9.769 9.768-9.769 5.386 0 9.768 4.382 9.768 9.769 0 5.387-4.382 9.769-9.768 9.769z"/></g></svg>