<svg xmlns="http://www.w3.org/2000/svg" viewBox="0 0 60 60"><path d="M42.628 32.336h-8.153a4.049 4.049 0 0 0-4.045 4.045v6.253a4.05 4.05 0 0 0 4.045 4.046h8.153a4.05 4.05 0 0 0 4.046-4.046v-6.253a4.05 4.05 0 0 0-4.046-4.045zm1.102 10.298c0 .613-.502 1.104-1.103 1.104h-8.153a1.107 1.107 0 0 1-1.104-1.104v-6.253c0-.613.503-1.104 1.104-1.104h8.153c.612 0 1.103.504 1.103 1.104v6.253z"/><path d="M60 20.971c0-.258-.062-.503-.196-.724L50.879 4.555a1.48 1.48 0 0 0-1.275-.748h-39.22c-.527 0-1.018.282-1.275.748L.196 20.247a1.496 1.496 0 0 0-.196.724c0 3.519 2.121 6.534 5.149 7.871v25.881c0 .809.662 1.471 1.471 1.471h46.746c.81 0 1.471-.662 1.471-1.471V29.025c0-.062 0-.11-.012-.159C57.867 27.53 60 24.501 60 20.971zM11.242 6.761h37.504l6.975 12.273H4.279l6.963-12.273zm31.459 15.203c-.466 2.648-2.783 4.659-5.566 4.659s-5.1-2.011-5.566-4.659h11.132zm-14.258 0c-.466 2.648-2.783 4.659-5.566 4.659s-5.1-2.011-5.578-4.659h11.144zm-25.402 0h11.144a5.665 5.665 0 0 1-5.578 4.659c-2.784.012-5.101-2.011-5.566-4.659zm21.675 31.287h-8.459V37.375c0-1.153.932-2.098 2.096-2.098h4.279c1.152 0 2.096.932 2.096 2.098v15.876h-.012zm27.18 0H27.658V37.375a5.047 5.047 0 0 0-5.039-5.039H18.34a5.047 5.047 0 0 0-5.039 5.039v15.889h-5.21V29.565c.171.012.343.012.515.012a8.594 8.594 0 0 0 7.135-3.801c1.545 2.292 4.168 3.801 7.135 3.801s5.578-1.508 7.135-3.801a8.573 8.573 0 0 0 14.246 0 8.599 8.599 0 0 0 7.136 3.801c.172 0 .331-.012.503-.012v23.686zm-.502-26.616a5.651 5.651 0 0 1-5.566-4.659h11.144c-.478 2.636-2.795 4.659-5.578 4.659z"/></svg>