<svg xmlns="http://www.w3.org/2000/svg" viewBox="0 0 252 259"><g fill="none" fill-rule="evenodd"><path d="M230.979 186.858l.877-.172c7.197-1.409 12.964-6.86 14.694-13.887a124.793 124.793 0 0 0 3.617-29.875c0-10.089-1.217-20.139-3.617-29.87-2.032-8.25-9.684-14.236-18.195-14.236-1.318 0-2.64.144-3.931.428-13.523 2.965-27.726 5.364-42.217 7.132l-12.224 1.587 10.368-4.718c.179-.081.363-.17.534-.251l.045-.022c3.932-1.866 8.494-4.175 13.562-6.866 10.378-5.518 12.97-8.741 13.316-10.474.159-.823-.17-1.294-.732-1.97-.337-.414-1.527-1.35-5.48-1.35-2.424 0-5.513.349-9.181 1.036-1.215.227-2.593.623-4.096 1.177l-9.99 3.682 8.34-6.627c4.562-3.625 11.961-6.479 19.31-7.447 7.999-1.05 15.39-2.53 15.316-6.22-.017-.724-.327-1.358-.95-1.934-1.588-1.458-5.98-3.201-17.864-3.201-3.32 0-7.101.139-11.237.414-13.4.886-24.62 4.24-30.116 6.16l-4.427 1.551 2.399-4.04c4.646-7.815 8.01-15.66 9.476-22.094l.71-4.594c.11-1.92-.168-2.829-.286-3.019l-.258-.304a.17.17 0 0 1-.009-.012c-.136-.13-.51-.47-.962-.725-.474-.266-1.197-.535-1.59-.666-1.033-.177-2.48-.266-4.304-.266-3.002 0-7.2.237-12.833.724l-.821.07-.393-1.059c-.757-.807-2.131-1.276-3.225-1.276-1.416 0-2.618.928-3.344 2.194l-.294 1.02-.802.13C126.99 39.144 94.29 47.55 75.226 78.98l-.07.115-.203.235-.106.086c-7.964 6.516-14.378 14.549-19.063 23.874l-.559 1.111-1.226-.19c-9.146-1.437-18.076-3.108-26.545-4.965a18.312 18.312 0 0 0-3.929-.428c-8.512 0-16.166 5.986-18.198 14.235a124.708 124.708 0 0 0-3.62 29.871c0 10.104 1.218 20.154 3.62 29.873 1.482 6.012 5.892 10.901 11.796 13.08l.69.25.29.681c7.452 17.428 19.246 32.946 34.108 44.876 20.725 16.626 45.74 25.414 72.34 25.414 30.936 0 60.018-12.07 81.89-33.988a115.755 115.755 0 0 0 24.18-35.434l.358-.818z" fill="#FEFEFE"/><path d="M45.798 144.451v-10.974c.807-.043 1.574-.043 2.288-.043 4.045 0 5.662 2 5.662 4.817 0 3.815-5.371 5.582-7.95 6.2m15.808 7.154c-.283 0-2.045-1.713-4.138-4.769 3.855-2.102 7.042-5.193 7.042-9.684 0-6.205-5.236-10.683-15.666-10.683-6.853 0-15.467 1.762-15.467 1.762l-.243 6.54c0 .04 1.282-.15 3.195-.389v24.377l9.47-.477v-7.577l2.428-.53c3.336 5.396 5.808 8.92 8.57 8.92 4.284 0 8.62-1.573 8.62-1.573l-.907-6.102s-1.719.185-2.904.185M84.802 147.366l4.24-13.314c.859.043 1.476 1.81 2.33 4.914l2.19 8.4h-8.76zm20.236 3.383l-4.429-15.028c-.996-3.577-3.812-8.448-8.518-8.448-6.24 0-13.335.627-13.335.627l-.898 6.439 3.141-.05-9.624 24.24 9.814.23 1.666-5.29h12.33l.233.856c1.01 3.727 1.767 4.77 4.34 4.77 3.372 0 9.373-1.431 9.373-1.431v-5.3s-1.951.337-2.665.337c-.52 0-.996-.477-1.428-1.952zM137.639 127.273l-10.899 13.222v-4.204c0-7.821-.67-8.775-2.63-8.775h-10.135v6.152s1.665.242 2.29.67c.23.142.332.716.332 3.097v21.324l10.143-.477v-7.825l2.327-2.384c4.808 7.347 7.712 11.022 10.233 11.022 5.428 0 9.14-1.67 9.14-1.67l-.9-6.252s-2.433.432-3.243.432c-1.093 0-3.243-2.623-8.475-10.404l13.146-13.447-11.33-.48zM171.495 152.277c-2.661 0-4.284-1.723-4.284-4.965v-1.332c1.384.662 2.856.856 4.284.856 3.755 0 7.051-1.678 7.051-1.678l.229-6.192h-11.316c.087-1.474.176-2.958.229-4.345 8.284-.048 14.04-.72 14.04-.72v-6.385h-15.133c-10.286 0-11.845.715-11.845.715l-.247 6.2s.81.098 3.084.142c-.282 3.528-.564 8.306-.564 13.447 0 5.97 2.961 11.605 12.049 11.605 9.086 0 13.704-3.056 13.704-3.056l-1.18-6.112s-5.2 1.82-10.1 1.82M201.584 144.451v-10.974c.802-.043 1.569-.043 2.273-.043 4.055 0 5.677 2 5.677 4.817 0 3.815-5.377 5.582-7.95 6.2m15.811 7.154c-.3 0-2.062-1.713-4.142-4.769 3.843-2.102 7.033-5.193 7.033-9.684 0-6.205-5.236-10.683-15.653-10.683-6.856 0-15.476 1.762-15.476 1.762l-.238 6.54c0 .04 1.278-.15 3.182-.389v24.377l9.483-.477v-7.577l2.432-.53c3.332 5.396 5.8 8.92 8.567 8.92 4.283 0 8.61-1.573 8.61-1.573l-.907-6.102s-1.71.185-2.891.185M70.383 207.848l-.282-.239a5.847 5.847 0 0 0-3.75-1.387c-1.581 0-3.036.672-3.992 1.803-1.626 1.96-1.208 4.804 1.084 7.445.154.177.304.345.463.503.132.141.268.283.41.442 1.784 1.978 1.405 2.967.872 3.594-.868 1.051-2.605 1.06-3.834.045l-.538-.442c-.77-.715-1.264-1.465-1.502-2.261l1.199-1.448-2.82-2.35-1.772 2.12-.287.424.203.176c.027 1.979 1.172 4.17 2.966 5.67l.573.496c1.225 1.024 2.719 1.589 4.208 1.589 1.644 0 3.111-.69 4.133-1.908 1.895-2.279 1.45-5.396-1.242-8.214-.243-.229-.568-.53-.833-.865-1.388-1.449-1.005-2.278-.6-2.764.661-.795 2.09-.848 2.957-.168l.278.23c.529.494.89.988 1.132 1.536l-1.348 1.625 2.803 2.333 2.247-2.703-.009-.178c-.044-1.748-1.106-3.744-2.719-5.104M85.234 223.816l3.376 1.166.674-1.952 2.481.857-3.75 10.934-1.596-.548-1.092 3.197 6.693 2.297 1.089-3.18-1.692-.583 3.75-10.943 2.587.892-.67 1.952 3.376 1.166 1.722-5.025-15.225-5.264zM124.55 241.586c-3.08 0-5.53-2.5-5.57-5.688-.021-1.527.529-2.967 1.56-4.045a5.456 5.456 0 0 1 3.927-1.713l.075-.485v.485c3.252 0 5.733 2.41 5.78 5.617.04 3.277-2.41 5.776-5.771 5.83m0-14.83h-.128c-2.415.027-4.671 1.016-6.36 2.747a8.994 8.994 0 0 0-2.56 6.447c.067 4.964 4.125 8.991 9.043 8.991h.114c2.521-.026 4.852-1.006 6.558-2.756a8.966 8.966 0 0 0 2.573-6.482c-.061-5.017-4.124-8.947-9.24-8.947M158.848 228.409a3.496 3.496 0 0 1-2.01 1.73l-2.106.725-1.922-5.6 2.107-.724c1.684-.582 3.578.23 4.081 1.714.238.689.193 1.457-.15 2.155zm5.49 5.078l-2.917-2.782c1.217-1.678 1.56-3.744.935-5.6-.847-2.472-3.305-4.115-6.143-4.115-.75 0-1.5.106-2.24.353l-7.244 2.482 1.085 3.162 1.63-.557 3.755 10.935-1.622.556 1.075 3.162 6.646-2.279-1.094-3.17-1.639.564-.75-2.181 2.196-.751.149-.08c.115-.043.238-.079.353-.132l4.662 4.125.212.186 3.833-1.343-1.084-3.153-1.798.618zM186.654 220.186l-2.609-3.1 5.2-4.416-2.124-2.526-5.209 4.434-2.802-3.304 6.663-5.67-2.116-2.508-10.805 9.168 2.133 2.526 1.393-1.183 7.535 8.92-1.436 1.218 2.132 2.509 10.84-9.185-2.15-2.527z" fill="#221F20"/><path d="M145.743 34.55c1.206.428 2.061 1.144 1.806 2.292a1.665 1.665 0 0 1-.08.243c-.457 1.294-1.41.658-2.696.208-1.305-.46-2.441-.561-1.983-1.846a1.42 1.42 0 0 1 .167-.349c.53-.95 1.622-.954 2.786-.548m31.278-15.999c6.142 4.116 7.906 12.541-6.037 21.515.132-2.129-.124-3.617-.653-4.28l-.229-.264c-.026-.036-.052-.07-.088-.115 6.557-4.92 8.462-11.124 7.007-16.856m-17.97 76.636c.934.463 1.506.95 1.568 1.444.23 1.727-2.168 2.703-10.47 3.074-5.906.255-7.967.255-11.382-.946-3.68-1.29-14.644-7.083-8.078-8.16.947-.155 2.252-.213 3.997-.141 1.335.053 18.953 2.04 24.364 4.729m45.512-9.777c.662 1.598-1.673 3.007-8.355 6.363-6.697 3.352-13.519 7.835-15.704 5.489-2.3-2.486 1.903-8.845 12.523-11.508 7.853-1.965 10.849-2.022 11.536-.344m13.644-17.766c-.212 3.339-12.25 2.169-24.06 6.368-9.801 3.475-13.238 7.873-16.28 13.645-.008.005-.008.01-.008.018-.088.146-.194.282-.282.424-.3.441-.608.844-.934 1.214-5.06 5.697-13.59 2.915-15.714-2.91-2.274-6.244 2.08-12.572 8.328-15.597 4.134-1.426 9.096-2.862 14.86-4.058 18.279-3.785 34.231-1.648 34.09.896m-67.775-29.578c4.406-.778 7.632-1.392 9.985-1.643-.925.415-1.789.83-2.529 1.276-.52.309-1.366 1.417-.873 2.19.908 1.391 2.777 1.32 7.81-1.338.493-.247.96-.49 1.418-.741.017.013.017.017.036.026 1.991 2.892-5.817 22.438-14.525 36.162a170.57 170.57 0 0 1-4.53 6.806c-4.46 6.133-16.992 8.037-26.171 1.536-18.614-13.177-4.257-33.658 15.242-41.612a93.748 93.748 0 0 1 3.279-.768 5.644 5.644 0 0 0 5.226 3.502c3.023 0 5.49-2.394 5.632-5.396M109.898 79.16c4.24 3.127 7.236 7.176 10.757 11.34 2.74 3.25 5.808 6.58 10.038 9.587 8.518 6.068 13.163 6.465 23.387 7.053 9.236.526 11.775-.155 11.65 1.81-.387 6.947-60.582 17.32-77.944-13.248-2.596-4.579-.855-10.192 2.877-14.502 4.142-4.796 11.674-7.609 19.235-2.04m57.173 114.865c1.163-4.24 3.014-8.823 5.816-14.07 1.798-3.364 5.553-6.615 10.577-5.502 4.97 1.096 5.798 4-1.807 13.257-2.582 3.145-6.708 7.137-10.55 9.822-2.538 1.775-5.252.883-4.036-3.507m-15.52-10.148c-.203-5.803-2.424-11.092 3.286-14.15 5.077-2.72 13.044.09 12.092 7.526-1.074 8.506-6.627 17.029-9.844 20.632-3.34 3.744-6.936.477-6.098-3.965.89-4.734.607-8.577.563-10.043m-16.824-14.617c6.151.097 13.308 4.663 10.487 18.344-.757 3.763-1.973 6.828-3.313 9.291-1.675 3.065-6.249 2.333-6.827-1.112-.458-2.65-1.586-5.529-3.53-8.594-8.292-13.08-3.793-18.044 3.183-17.93m-20.285 27.583c1.257-7.453 6.923-1.236 10.625 5.945 3.697 7.18-2.154 10.325-5.733 9.565-6.249-1.308-5.336-12.913-4.892-15.51m-18.503-12.947c-3.794 4.115-9.708 8.973-12.568 12.514-1.397 1.74-4.574 1.37-6.79-.767-2.623-2.544-5.21-4.806-5.302-6.519-.137-3.002 7.633-8.23 15.203-9.167 5.962-.725 12.991.088 9.457 3.939m10.602 23.793c.075 2.244-1.502 3.233-5.195 2.067-3.693-1.148-8.69-3.056-9.924-4.61-2.12-2.668 1.847-11.676 7.884-15.615 7.01-4.558 11.889-3.356 9.923 1.855-1.934 5.122-2.807 12.947-2.688 16.303m18.01 45.273c-25.726 0-49.91-8.497-69.951-24.57a112.807 112.807 0 0 1-26.365-30.4c-4.53-11.473 30.384-13.442 30.384-13.442 7.081 10.933 20.297 24.588 41.453 31.663 8.964 2.993 16.794 3.806 26.427 3.806 25.608 0 51.078-14.555 65.056-36.812 5.773.442 34.407 3.162 30.354 13.028-.362.626-.706 1.28-1.076 1.898-.51.787-.934 1.457-1.251 2.005a113.769 113.769 0 0 1-15.83 19.951c-21.169 21.198-49.283 32.873-79.2 32.873m104.09-70.09c-.6.017-1.207 0-1.816-.063a14.091 14.091 0 0 1-1.586-.256c-10.505-2.313-21.126-4.204-31.816-5.758v-.097a7.703 7.703 0 0 0-.124-1.105c-.017-.053-.017-.106-.035-.158a5.538 5.538 0 0 0-.343-1.184c-.67-1.625-1.931-2.967-3.693-3.957-1.067-.6-2.292-1.06-3.684-1.377-1.517-.362-2.962-.442-4.32-.389-4.494.212-7.966 2.27-9.729 3.585a10.059 10.059 0 0 0-1.462-3.179 10.706 10.706 0 0 0-1.147-1.395 11.842 11.842 0 0 0-1.392-1.237 12.616 12.616 0 0 0-1.772-1.121c-.123-.07-.255-.133-.396-.203a16.196 16.196 0 0 0-4.09-1.378c-.132-.018-.264-.054-.388-.07-.74-.124-1.48-.213-2.239-.23a14.761 14.761 0 0 0-3.04.194c-3.357.565-5.773 2.296-7.342 3.824a15.817 15.817 0 0 0-1.48 1.634c-.089-.088-.194-.186-.282-.283-.053-.035-.097-.088-.15-.132-.132-.115-.273-.248-.423-.38-.026-.009-.035-.018-.044-.035-.3-.247-.652-.512-1.014-.777-.026-.027-.061-.053-.08-.071-.37-.247-.756-.495-1.17-.742-.063-.035-.125-.07-.186-.106a13.484 13.484 0 0 0-1.34-.688 1.648 1.648 0 0 0-.194-.09 18.837 18.837 0 0 0-1.577-.608s-.01-.01-.026-.01a16.373 16.373 0 0 0-1.733-.46c-.1-.016-.189-.034-.294-.052a18.767 18.767 0 0 0-1.834-.247c-.123 0-.251-.018-.379-.018a15.304 15.304 0 0 0-2.01 0c-.119 0-.237.018-.352.027-.723.062-1.45.15-2.225.29-.022.01-.044.01-.07.019a13.2 13.2 0 0 0-1.785.477c-.177.052-.34.124-.507.186-.38.132-.74.29-1.08.45-.19.088-.38.176-.555.264-.296.16-.59.327-.864.504a9.857 9.857 0 0 0-.507.31c-.29.194-.564.406-.828.617-.268.221-.525.443-.762.672-.168.15-.331.3-.485.46-.181.193-.362.388-.529.582l-.304.353c-.172.212-.335.424-.493.637-.097.14-.19.281-.278.406a5.882 5.882 0 0 0-.326.494 11.11 11.11 0 0 0-.547.928c-7.985.08-15.97.343-23.946.839-23.901 1.421-47.68 4.68-70.938 9.785-1.644.371-3.288.415-4.879.23-5.958-.725-11.193-5.078-12.709-11.208a120.922 120.922 0 0 1-3.507-28.95c0-9.783 1.18-19.516 3.507-28.953 1.454-5.886 6.333-10.139 12.004-11.11a14.695 14.695 0 0 1 5.584.128c10.827 2.384 21.769 4.336 32.777 5.913a475.111 475.111 0 0 0 24.55 2.861c36.227 21.476 81.739 7.785 86.63-.251 6.407-.614 12.771-1.4 19.152-2.27 11.933-1.63 23.778-3.675 35.5-6.249 7.783-1.71 15.67 3.21 17.591 10.978a121.005 121.005 0 0 1 3.508 28.952c0 9.777-1.18 19.518-3.508 28.951a14.604 14.604 0 0 1-3.358 6.333c-2.74 3.046-6.68 4.892-10.831 4.963m19.566-70.528c-2.627-10.66-13.45-17.421-24.15-15.067-13.854 3.038-27.902 5.378-42.056 7.105l-.944.123c.203-.092.415-.194.608-.286 3.314-1.573 7.721-3.763 13.626-6.898 8.937-4.752 13.573-8.563 14.19-11.65.326-1.687-.547-2.742-1.093-3.4-1.85-2.27-7.333-2.58-16.287-.9-1.49.277-3.032.758-4.372 1.253 4.195-3.334 11.299-6.147 18.473-7.093 8.548-1.12 16.904-2.662 16.799-7.948-.027-1.192-.53-2.261-1.499-3.158-3.543-3.254-13.757-4.34-30.37-3.236-13.952.923-25.612 4.522-30.566 6.253 5.447-9.164 8.408-17.002 9.686-22.645 1.683-1.246 4.169-3.184 7.712-6.139 8.725-7.295 11.317-18.945-2.706-24.5-.026 0-.026-.009-.044-.018-2.397-4.102-6.54-7.666-11.863-9.87-15.626-6.46-43.762-7.313-74.336 10.113-34.27 19.523-40.004 39.343-40.004 39.343C70.62 23.66 100.402 8.2 126.617 3.995c19.602-3.14 35.889 1.1 43.168 8.448-13.572-3.25-31.393-.865-49.002 5.905-30.186 11.6-31.966 19.095-31.966 19.095s11.312-9.733 36.694-17.594c23.898-7.397 37.47-6.884 47.218-3.342.67 1.364 1.058 2.8 1.145 4.292.423 6.862-3.137 10.346-7.27 12.692-2.635-.482-7.554-.464-17.707.414a5.604 5.604 0 0 0-4.106-1.784c-2.098 0-3.914 1.158-4.9 2.88-11.877 1.943-46.39 10.258-66.123 42.79-6.359 5.203-13.815 13.099-19.508 24.43a448.159 448.159 0 0 1-26.44-4.945c-10.691-2.354-21.523 4.407-24.15 15.067A126.41 126.41 0 0 0 0 142.624c0 10.236 1.234 20.429 3.67 30.284 1.675 6.793 6.686 11.994 12.864 14.273 7.5 17.541 19.24 33.2 34.61 45.539 21.029 16.869 46.411 25.789 73.407 25.789 31.397 0 60.904-12.25 83.096-34.49a117.693 117.693 0 0 0 24.537-35.955c7.58-1.483 14.075-7.242 16.023-15.156a126.515 126.515 0 0 0 3.666-30.284c0-10.223-1.234-20.416-3.666-30.28" fill="#221F20"/></g></svg>