<svg xmlns="http://www.w3.org/2000/svg" viewBox="0 0 74.439 87.504"><path d="M66.753 1.6A3.998 3.998 0 0 0 62.37.18a4 4 0 0 0-2.813 3.648c-.153 3.548-.708 8.1-1.285 12.103l-1.641-2.267a4.004 4.004 0 0 0-4.086-1.564 4 4 0 0 0-3.074 3.113l-.151.733c-.449 2.157-.804 3.861-.7 7.566.242 8.83 3.942 15.898 9.099 18.243a7.371 7.371 0 0 1-1.235 2.136c-2.022 2.412-5.371 3.38-7.717 3.771.026-.28.062-.546.08-.84.631-9.954-3.125-16.942-6.375-21.044.207-3.833 1.295-14.798 7.018-21.307a2 2 0 0 0-3.004-2.642c-5.197 5.912-7.044 14.598-7.7 20.112-.386-.323-.64-.51-.703-.556a2 2 0 0 0-2.334 0c-.063.045-.317.233-.702.555-.656-5.514-2.503-14.2-7.701-20.111a2 2 0 0 0-3.004 2.642c5.709 6.492 6.807 17.47 7.017 21.307-3.25 4.103-7.005 11.09-6.374 21.043.021.329.059.629.09.941-2.255-.301-5.491-1.128-7.514-3.399a7.394 7.394 0 0 1-1.486-2.594c5.176-2.328 8.893-9.406 9.137-18.259.102-3.708-.253-5.412-.702-7.57l-.15-.729a4 4 0 0 0-7.16-1.549l-1.642 2.268c-.577-4.003-1.132-8.556-1.285-12.104A3.997 3.997 0 0 0 10.277 0a4.001 4.001 0 0 0-3.2 1.6C4.564 4.949.305 12.159.012 22.82c-.132 4.79.817 9.384 2.672 12.936 2.014 3.855 5.033 6.242 8.389 6.723.517 1.975 1.426 3.722 2.753 5.213 3.728 4.187 9.565 5.044 12.383 5.207.837 2.202 1.944 3.619 2.904 4.498-.85 1.053-1.325 2.471-1.325 4.248 0 2.094.732 3.857 1.976 5.079-.748.978-1.171 2.261-1.171 3.835 0 1.77.649 3.326 1.727 4.467-1.212.907-2.975 2.5-2.975 5.049 0 3.385 2.574 6.139 5.738 6.139l.086-.001a5.92 5.92 0 0 0 3.691 1.292h.11a5.917 5.917 0 0 0 3.69-1.292l.087.001c3.164 0 5.737-2.754 5.737-6.139 0-2.603-1.819-4.212-2.941-5.084 1.059-1.139 1.694-2.68 1.694-4.432 0-1.574-.423-2.857-1.171-3.836 1.243-1.221 1.976-2.984 1.976-5.078 0-1.776-.475-3.194-1.324-4.247.968-.886 2.086-2.316 2.925-4.549 2.844-.255 8.938-1.311 12.652-5.72 1.151-1.366 1.952-2.926 2.439-4.648 3.365-.473 6.395-2.861 8.412-6.726C73 32.204 73.95 27.609 73.818 22.82c-.293-10.663-4.552-17.872-7.065-21.22zM4.011 22.929C4.235 14.799 7.084 8.256 10.277 4c.364 8.469 2.873 22.076 2.873 22.076l7.29-10.065c.502 2.47.873 3.77.773 7.392-.175 6.358-2.472 11.755-5.601 14.03-1.023.744-2.133 1.157-3.289 1.157-.045 0-.09 0-.136-.002a4.981 4.981 0 0 1-1.604-.324C6.642 36.8 3.804 30.458 4.011 22.929zm38.474 57.145c0 1.182-.777 2.139-1.737 2.139-.682 0-1.271-.484-1.555-1.189-.11 1.393-1.063 2.48-2.223 2.48-.019 0-.036-.002-.055-.004a.509.509 0 0 1-.055.004c-1.16 0-2.113-1.088-2.223-2.48-.284.705-.873 1.189-1.555 1.189-.961 0-1.738-.957-1.738-2.139s1.769-2.033 2.557-2.729c0 0 1.113.406 2.98.406 1.869 0 3.209-.406 3.209-.406.714.696 2.395 1.548 2.395 2.729zm-5.57-20.625c1.113 0 2.855-.102 2.855-.102 1.629 0 2.271.408 2.271 2.297 0 1.887-1.029 2.895-2.659 2.895h-4.937c-1.629 0-2.658-1.008-2.658-2.895 0-1.889.643-2.297 2.272-2.297.001.001 1.743.102 2.856.102zm1.881 13.549h-3.762c-1.373 0-2.441-.848-2.441-2.439 0-1.592.542-1.898 1.916-1.898h4.813c1.374 0 1.915.307 1.915 1.898.001 1.591-1.068 2.439-2.441 2.439zm5.072-21.473c-.9 2.337-2.112 3.192-2.47 3.4-.626.101-2.411.354-4.482.354a29.86 29.86 0 0 1-4.464-.352c-.408-.239-1.601-1.11-2.487-3.408-.321-.831-.6-1.85-.788-3.096a21.697 21.697 0 0 1-.2-1.854c-.512-8.068 2.256-13.864 4.873-17.468a24.775 24.775 0 0 1 3.066-3.482 24.566 24.566 0 0 1 3.066 3.482c2.618 3.604 5.386 9.4 4.874 17.468a21.175 21.175 0 0 1-.196 1.827c-.19 1.263-.47 2.292-.792 3.129zM63.28 38.254a4.99 4.99 0 0 1-1.636.333c-.046.002-.091.002-.136.002-1.146 0-2.249-.409-3.265-1.142-3.141-2.265-5.449-7.671-5.625-14.045-.101-3.622.271-4.922.773-7.392l7.289 10.065s2.508-13.607 2.873-22.076c3.193 4.256 6.042 10.799 6.267 18.929.207 7.51-2.616 13.841-6.54 15.326z"/></svg>