<svg xmlns="http://www.w3.org/2000/svg" viewBox="0 0 25 25"><path d="M24 1.18c0 .047.008.348.023.902.015.555 0 1.234-.047 2.039a30.48 30.48 0 0 1-.281 2.637 13.328 13.328 0 0 1-.68 2.695 10.962 10.962 0 0 1-.914 1.887c-.344.555-.891 1.16-1.641 1.816-.516.469-1.313.977-2.391 1.523a64.549 64.549 0 0 0-2.883 1.547c-.313.172-.621.34-.926.504s-.551.309-.738.434v3.867a.742.742 0 0 1-.258.562l-2.789 2.766a.623.623 0 0 1-.223.141.79.79 0 0 1-.27.047.52.52 0 0 1-.21-.047.66.66 0 0 1-.328-.199.781.781 0 0 1-.188-.34l-.914-3.867-1.688-1.875c-.406-.453-.742-.824-1.008-1.113a9.513 9.513 0 0 1-.609-.715L.56 15.36a.748.748 0 0 1-.352-.176.834.834 0 0 1-.208-.317.997.997 0 0 1-.012-.398.613.613 0 0 1 .176-.328l2.742-3a.796.796 0 0 1 .258-.176.786.786 0 0 1 .305-.059h4.172c.125-.234.266-.5.422-.797.156-.296.312-.609.468-.937.406-.828.84-1.688 1.301-2.578.461-.891.933-1.609 1.418-2.156a9.656 9.656 0 0 1 1.781-1.676 8.423 8.423 0 0 1 2.039-1.066c1-.375 1.992-.652 2.977-.832a24.66 24.66 0 0 1 2.648-.352 25.511 25.511 0 0 1 2.602-.035c.188.016.348.09.48.223a.744.744 0 0 1 .223.48zM4.922 21.195c.094-.188.195-.387.305-.598.109-.211.25-.434.422-.668l1.102 1.008a5.523 5.523 0 0 0-.305.563l-.211.469c-.375.766-.883 1.363-1.523 1.793-.641.43-1.961.645-3.961.645l-.728.023L0 23.656c0-1.875.195-3.137.586-3.785.39-.648.984-1.168 1.781-1.559.203-.094.402-.191.598-.293.195-.101.402-.238.621-.41l.914 1.172a5.75 5.75 0 0 1-.773.504l-.68.363c-.484.234-.852.524-1.102.867-.25.344-.391 1.148-.422 2.414 1.313-.047 2.148-.223 2.508-.527.36-.304.657-.706.891-1.207zM21.609 8.914c.219-.594.391-1.222.516-1.887.125-.664.219-1.316.281-1.957.062-.641.097-1.234.105-1.781.008-.547.012-.992.012-1.336-.328 0-.742.012-1.242.035a21.3 21.3 0 0 0-1.676.152c-.617.078-1.27.192-1.957.34-.688.149-1.375.356-2.063.621-.625.219-1.195.516-1.711.891s-1.016.844-1.5 1.406c-.406.484-.832 1.16-1.277 2.027s-.855 1.676-1.23 2.426c-.219.438-.426.844-.621 1.219-.196.375-.371.695-.527.961a1.045 1.045 0 0 1-.281.27.641.641 0 0 1-.352.105H3.82l-1.688 1.781 3.422.773c.078.016.152.047.223.094s.137.102.199.164c.078.094.527.598 1.348 1.512l2.262 2.52a.688.688 0 0 1 .187.328l.656 2.836 1.594-1.734v-3.914a.742.742 0 0 1 .281-.586c.141-.125.39-.289.75-.492.359-.203.828-.461 1.406-.773.765-.437 1.676-.926 2.73-1.465s1.816-1.011 2.285-1.418c.625-.563 1.078-1.066 1.359-1.512s.541-.981.775-1.606zM16.523 4.93c.828 0 1.535.293 2.121.879s.879 1.293.879 2.121c0 .828-.293 1.535-.879 2.121s-1.293.879-2.121.879c-.828 0-1.535-.293-2.121-.879s-.879-1.293-.879-2.121c0-.828.293-1.535.879-2.121s1.293-.879 2.121-.879zm0 4.5c.406 0 .758-.148 1.055-.445a1.44 1.44 0 0 0 .445-1.055c0-.406-.149-.758-.445-1.055a1.44 1.44 0 0 0-1.055-.445c-.422 0-.777.149-1.066.445a1.463 1.463 0 0 0-.434 1.055c0 .406.144.758.434 1.055.289.296.645.445 1.066.445z" fill="#00b0ff"/></svg>