<svg xmlns="http://www.w3.org/2000/svg" viewBox="-5.86 196.445 608 454"><path d="M354.651 641.075a32.918 32.918 0 0 1-19.886-6.709 26.079 26.079 0 0 1-17.513 6.709c-18.588 0-92.88-27.913-138.281-46.674a9.952 9.952 0 0 1-.556-.231c-25.578-10.579-44.084-19.048-49.462-22.635-5.862-3.907-8.43-11.064-6.388-17.809 2.042-6.743 8.148-11.274 15.194-11.274h169.265c9.126 0 17.77 3.354 24.505 9.478a32.612 32.612 0 0 1 14.43-8.302c.227-.063.465-.129.704-.19a33.342 33.342 0 0 1 3.343-.652 32.931 32.931 0 0 1 1.81-.203l.627-.048a33.458 33.458 0 0 1 2.21-.082h.646c36.39 0 65.994-29.603 65.994-65.992 0-1.107-.029-2.244-.086-3.377a16.32 16.32 0 0 0-.047-.629l-.065-.886c-.041-.606-.081-1.214-.142-1.815a25.183 25.183 0 0 0-.102-.815l-.124-.986a45.336 45.336 0 0 0-.193-1.486c-.043-.28-.095-.561-.147-.842l-.189-1.067a43.408 43.408 0 0 0-.239-1.322c-.06-.289-.128-.576-.196-.863l-.237-1.036c-.096-.427-.19-.852-.299-1.273-.08-.315-.17-.623-.26-.932l-.267-.945c-.115-.416-.229-.832-.356-1.242a32.05 32.05 0 0 0-.307-.921l-.319-.946c-.131-.397-.261-.792-.404-1.182-.115-.319-.241-.632-.366-.944l-.367-.936c-.143-.369-.285-.738-.44-1.103-.131-.31-.27-.613-.408-.917l-.407-.903a39.773 39.773 0 0 0-.497-1.093c-.145-.302-.301-.602-.456-.901l-.407-.799a41.978 41.978 0 0 0-.585-1.137c-.162-.299-.333-.594-.504-.889l-.467-.816a43.187 43.187 0 0 0-.606-1.047c-.174-.289-.355-.569-.536-.85l-.499-.783a41.434 41.434 0 0 0-.667-1.035c-.193-.288-.396-.57-.597-.852l-.559-.79c-.222-.316-.442-.632-.673-.941-.206-.277-.421-.549-.635-.82l-.589-.754a39.517 39.517 0 0 0-.721-.912c-.229-.28-.467-.553-.703-.825l-.626-.727a38.48 38.48 0 0 0-.73-.84c-.229-.252-.464-.499-.699-.746l-.68-.719c-.262-.277-.523-.556-.791-.826-.249-.25-.507-.496-.765-.742l-.564-.543c-.314-.303-.626-.605-.947-.901a42.99 42.99 0 0 0-.802-.707l-.631-.552c-.312-.273-.623-.548-.942-.814-.275-.228-.557-.45-.838-.672l-.637-.506a47.22 47.22 0 0 0-1.001-.783c-.29-.22-.586-.431-.882-.642l-.119-.085-39.293 30.995a27.625 27.625 0 0 0-7.722 19.218v22.426c0 5.997-4.879 10.877-10.877 10.877-5.997 0-10.876-4.88-10.876-10.877v-22.426c0-13.229 5.15-25.666 14.504-35.019.295-.295.615-.58.951-.847l31.386-24.757c-.358-.093-.72-.178-1.082-.264l-.648-.155c-.442-.105-.884-.211-1.33-.305a50.51 50.51 0 0 0-1.254-.244l-.502-.094a59.057 59.057 0 0 0-1.466-.261c-.424-.068-.852-.125-1.278-.183l-.543-.073c-.484-.065-.968-.131-1.456-.184-.453-.048-.91-.087-1.368-.125l-.457-.038a49.747 49.747 0 0 0-1.501-.113 58.805 58.805 0 0 0-1.399-.057l-.229-.008a71.703 71.703 0 0 0-1.138-.031c-14.47 3.235-29.399 4.874-44.377 4.874-15.853 0-31.63-1.833-46.894-5.45-30.277-7.174-58.942-21.46-82.896-41.313l-44.537-36.909-39.856-22.775H14.278c-5.998 0-10.877-4.879-10.877-10.876 0-5.998 4.879-10.877 10.877-10.877h45.484L3.981 255.3a10.89 10.89 0 0 1-5.116-12.235 10.89 10.89 0 0 1 10.513-8.085h257.218c4.294-19.876 21.912-34.171 42.361-34.171 19.646 0 37.117 13.637 41.985 32.589l43.015 1.583c111.811.098 202.822 91.183 202.824 203.043 0 111.963-91.088 203.052-203.051 203.052h-39.079zm-114.427-45.928c40.613 15.207 69.151 24.183 77.027 24.183a4.52 4.52 0 0 0 4.515-4.514v-35.855c0-8.132-6.616-14.747-14.748-14.747H163.199c6.298 2.763 13.649 5.882 21.645 9.181h114.422c5.997 0 10.876 4.879 10.876 10.876s-4.879 10.877-10.876 10.877h-59.042zm104.151-24.087a11.027 11.027 0 0 0-.856 4.281v32.857c0 6.138 4.993 11.131 11.131 11.131h39.079c48.349 0 93.855-18.88 128.137-53.161 34.282-34.282 53.161-79.788 53.16-128.137 0-46.729-17.802-91.132-50.126-125.029-31.847-33.396-74.516-53.227-120.297-55.948v49.75c0 30.86-9.635 60.054-27.89 84.583a87.045 87.045 0 0 1 15.373 5.432l7.309-5.764a10.77 10.77 0 0 1 6.73-2.337c3.355 0 6.47 1.51 8.546 4.141a10.806 10.806 0 0 1 2.262 8.012 10.794 10.794 0 0 1-3.55 6.83c40.626-2.518 77.128-26.183 95.935-62.491a10.841 10.841 0 0 1 9.663-5.877 10.9 10.9 0 0 1 4.997 1.222 10.807 10.807 0 0 1 5.364 6.365 10.804 10.804 0 0 1-.709 8.293c-20.067 38.74-57.444 65.772-100.315 72.693a87.308 87.308 0 0 1 14.499 42.522c15.216 9.36 32.769 14.304 50.813 14.303 13.722-.001 26.962-2.816 39.353-8.364a10.778 10.778 0 0 1 4.441-.954c4.281 0 8.18 2.526 9.931 6.435a10.799 10.799 0 0 1 .236 8.321 10.803 10.803 0 0 1-5.717 6.051c-15.192 6.805-31.423 10.255-48.241 10.255-18.137 0-36.227-4.195-52.449-12.148a87.364 87.364 0 0 1-4.045 13.707l4.742 13.032c7.168 19.691 20.163 36.259 37.58 47.912a10.801 10.801 0 0 1 4.621 6.925 10.81 10.81 0 0 1-1.629 8.163 10.866 10.866 0 0 1-9.048 4.829c-2.153 0-4.242-.636-6.04-1.838-20.118-13.463-35.445-32.359-44.453-54.766-16.778 20.32-41.274 31.919-67.62 31.919h-.646c-.348 0-.692.021-1.033.053l-.165.02c-.378.044-.656.085-.931.139l-.103.019c-3.238.682-5.953 2.697-7.524 5.548l-.094.213-.04.039c-.116.226-.226.456-.326.689l-.055.13zM149.297 313.283a10.97 10.97 0 0 1 1.543 1.069l45.262 37.511c32.45 26.893 73.749 41.703 116.289 41.703 12.589 0 25.169-1.316 37.399-3.911 21.323-22.437 33.061-51.841 33.061-82.849V256.34l-31.972-1.177c-5 19.108-22.064 32.346-41.923 32.346-19.07 0-35.963-12.598-41.48-30.776H50.334l53.272 30.441h151.433c16.189 0 29.359 13.17 29.359 29.359s-13.17 29.359-29.359 29.359h-12.195c-5.998 0-10.877-4.879-10.877-10.877 0-5.997 4.879-10.876 10.877-10.876h12.195c4.194 0 7.606-3.412 7.606-7.606s-3.412-7.607-7.606-7.607H141.674l7.623 4.357zm159.66-90.722c-11.91 0-21.599 9.688-21.599 21.596 0 11.91 9.689 21.599 21.599 21.599 11.291 0 20.707-8.79 21.514-20.044a10.848 10.848 0 0 1-.146-2.191c.014-.385.054-.786.127-1.245-.963-11.07-10.369-19.715-21.495-19.715z"/><path d="M308.957 202.309c19.878 0 36.552 13.936 40.795 32.546l44.15 1.626c111.053.099 201.377 90.476 201.379 201.543 0 111.137-90.415 201.552-201.551 201.552h-39.08c-7.58 0-14.541-2.7-19.971-7.19-4.48 4.44-10.637 7.19-17.428 7.19-17.523 0-87.961-26.003-137.708-46.561a9.2 9.2 0 0 1-.513-.211c-24.415-10.1-43.757-18.854-49.246-22.516-5.31-3.539-7.634-10.019-5.785-16.126 1.849-6.105 7.377-10.209 13.759-10.209h169.265c9.559 0 18.231 3.855 24.554 10.089a31.11 31.11 0 0 1 14.774-8.966c.225-.063.451-.125.679-.183a30.775 30.775 0 0 1 2.452-.507c.241-.04.482-.08.726-.113a30.944 30.944 0 0 1 2.329-.24c.7-.046 1.403-.079 2.114-.079h.646c37.217 0 67.494-30.275 67.494-67.492 0-1.158-.03-2.308-.088-3.452-.02-.392-.062-.777-.089-1.168-.051-.747-.096-1.497-.171-2.238-.048-.462-.117-.915-.174-1.373-.081-.664-.154-1.33-.254-1.988-.072-.472-.168-.939-.25-1.408-.111-.633-.213-1.271-.34-1.896-.099-.484-.222-.961-.33-1.44-.138-.605-.266-1.21-.419-1.808-.125-.489-.272-.968-.409-1.452-.162-.58-.316-1.164-.493-1.736-.151-.487-.324-.965-.486-1.447-.188-.56-.366-1.122-.568-1.675-.176-.482-.373-.956-.561-1.434-.212-.54-.414-1.084-.64-1.617-.201-.477-.422-.941-.634-1.413-.234-.522-.461-1.049-.708-1.564-.225-.466-.468-.921-.702-1.381-.257-.508-.509-1.02-.778-1.52-.246-.455-.511-.897-.767-1.345-.281-.493-.555-.989-.848-1.473-.269-.445-.557-.878-.835-1.316-.3-.473-.594-.949-.906-1.413-.292-.434-.6-.855-.901-1.282-.321-.454-.636-.913-.967-1.358-.313-.42-.642-.826-.963-1.238-.341-.436-.675-.878-1.026-1.306-.332-.405-.681-.798-1.022-1.195-.36-.417-.714-.841-1.084-1.25-.352-.389-.718-.764-1.077-1.146-.379-.399-.752-.805-1.141-1.196-.37-.371-.753-.729-1.131-1.094-.396-.383-.789-.768-1.195-1.141-.388-.354-.788-.694-1.183-1.04-.414-.362-.824-.729-1.248-1.081-.404-.336-.82-.657-1.232-.985-.432-.343-.859-.689-1.298-1.02-.422-.318-.855-.62-1.283-.929-.221-.159-.443-.319-.667-.476l-40.258 31.756c-5.3 5.486-8.212 12.686-8.212 20.332v22.426c0 5.18-4.198 9.377-9.377 9.377s-9.376-4.197-9.376-9.377v-22.426c0-12.828 4.994-24.888 14.065-33.958a9.7 9.7 0 0 1 .823-.733l33.675-26.563a66.11 66.11 0 0 0-1.097-.327c-.542-.157-1.083-.319-1.631-.464-.52-.137-1.049-.259-1.575-.385-.555-.131-1.107-.266-1.667-.385-.53-.112-1.065-.209-1.6-.309-.563-.105-1.128-.212-1.697-.304-.539-.086-1.084-.156-1.627-.23-.575-.078-1.147-.158-1.727-.22-.546-.059-1.098-.103-1.647-.149-.584-.049-1.167-.1-1.754-.134-.553-.031-1.109-.047-1.665-.066a66.209 66.209 0 0 0-1.342-.034c-14.487 3.252-29.354 4.877-44.224 4.877-15.663 0-31.328-1.804-46.547-5.409-30.052-7.121-58.505-21.3-82.285-41.008l-44.637-36.992-40.314-23.038h-83.95a9.376 9.376 0 0 1-9.377-9.376 9.376 9.376 0 0 1 9.377-9.377H65.41L4.725 253.998a9.377 9.377 0 0 1 4.653-17.518h258.446c3.619-19.419 20.68-34.171 41.133-34.171m0 64.947c12.238 0 22.257-9.575 23.022-21.625a9.297 9.297 0 0 1-.155-2.054c.015-.422.068-.835.138-1.24-.934-11.884-10.885-21.276-23.005-21.276-12.735 0-23.099 10.362-23.099 23.096.001 12.737 10.363 23.099 23.099 23.099m0 18.753c-19.243 0-35.484-13.059-40.353-30.776H44.686l58.522 33.441h151.831c15.361 0 27.859 12.498 27.859 27.859 0 15.361-12.497 27.859-27.859 27.859h-12.195a9.376 9.376 0 0 1-9.377-9.377 9.376 9.376 0 0 1 9.377-9.376h12.195c5.02 0 9.106-4.085 9.106-9.106s-4.085-9.107-9.106-9.107H136.026l12.527 7.159c.469.269.914.577 1.33.921l45.262 37.511c33.042 27.383 74.891 42.048 117.246 42.048 12.75 0 25.55-1.33 38.165-4.041 21.812-22.779 33.796-52.578 33.796-84.219v-51.912l-34.636-1.275c-4.302 18.533-20.937 32.391-40.759 32.391m83.33 112.562l8.036-6.338a9.345 9.345 0 0 1 5.802-2.015 9.36 9.36 0 0 1 7.368 3.57c3.207 4.066 2.511 9.962-1.556 13.168l-2.799 2.208c.091.072.184.143.273.215 42.863-1.174 81.441-25.263 101.238-63.48a9.372 9.372 0 0 1 12.639-4.013c4.598 2.381 6.394 8.039 4.013 12.637-20.49 39.557-58.337 66.062-101.574 72.261 9.009 12.735 14.661 28 15.643 44.511 15.781 9.883 33.982 14.936 52.261 14.936 13.604 0 27.253-2.802 39.966-8.495a9.325 9.325 0 0 1 3.828-.823 9.379 9.379 0 0 1 8.561 5.548c2.117 4.726.001 10.273-4.725 12.39-15.148 6.785-31.414 10.124-47.628 10.124-18.485 0-36.897-4.358-53.542-12.873a85.443 85.443 0 0 1-4.556 15.913l4.937 13.563c7.277 19.992 20.47 36.813 38.155 48.646 4.305 2.879 5.458 8.704 2.579 13.007a9.367 9.367 0 0 1-7.801 4.163 9.336 9.336 0 0 1-5.206-1.585c-20.621-13.799-36.088-33.313-44.833-56.483-15.794 20.293-40.427 33.384-68.074 33.384h-.646c-.395 0-.786.023-1.173.059-.099.009-.197.023-.296.034-.318.037-.635.084-.946.145-.066.013-.13.022-.193.036a12.673 12.673 0 0 0-8.493 6.338l-.004.007c-.188.347-.358.702-.514 1.065-.006.018-.015.035-.023.053a12.574 12.574 0 0 0-.987 4.895v32.857c0 6.965 5.667 12.631 12.631 12.631h39.079c100.796 0 182.799-82.003 182.797-182.798 0-97.653-76.967-177.665-173.423-182.562v51.335c0 31.328-10.184 61.086-28.973 85.511a85.444 85.444 0 0 1 18.159 6.255M184.546 574.895h114.72c5.178 0 9.376 4.196 9.376 9.376s-4.198 9.377-9.376 9.377h-67.273c38.058 14.443 75.46 27.183 85.258 27.183a6.022 6.022 0 0 0 6.015-6.014v-35.855c0-8.959-7.289-16.247-16.248-16.247H156.143c7.686 3.48 17.465 7.669 28.403 12.18m124.411-375.586c-20.749 0-38.68 14.227-43.555 34.171H9.378a12.392 12.392 0 0 0-11.963 9.199 12.392 12.392 0 0 0 5.821 13.923l50.877 29.072H14.278c-6.825 0-12.377 5.552-12.377 12.377 0 6.824 5.552 12.376 12.377 12.376h83.154l39.396 22.513 44.437 36.826c24.131 19.999 53.007 34.39 83.507 41.617 15.378 3.643 31.271 5.49 47.239 5.49 15.028 0 30.007-1.639 44.528-4.871.313.007.624.016.936.026l.228.008c.457.015.915.03 1.37.055.485.028.971.069 1.457.11l.216.018.246.021c.445.037.89.074 1.331.122.474.051.944.115 1.416.179l.229.031.313.042c.415.056.83.111 1.241.177.477.077.951.165 1.424.254l.198.037.311.058c.406.076.813.151 1.216.236l.005.001-28.946 22.832c-.387.307-.75.63-1.086.966-9.637 9.637-14.943 22.45-14.943 36.08v22.426c0 6.824 5.552 12.377 12.376 12.377s12.377-5.553 12.377-12.377v-22.426a26.132 26.132 0 0 1 7.233-18.105l38.32-30.227.059.044c.327.247.647.503.969.759l.271.216.372.294c.272.214.543.429.81.649.307.256.608.521.909.785l.28.246.36.314c.261.227.522.453.776.686.303.277.604.57.906.863l.227.219.351.336c.249.237.497.475.74.719.254.255.505.522.756.789l.332.353.355.374c.227.238.453.476.674.72.238.264.469.534.7.805l.339.395.299.346c.227.261.454.521.673.789.239.291.467.586.695.881l.287.37.313.398c.205.259.41.519.608.784.22.296.433.601.645.904l.278.396.289.407c.193.272.387.542.573.818.222.329.433.666.645 1.001l.217.343.288.45c.173.269.347.536.511.81.204.336.395.674.586 1.013l.225.397.251.434c.163.282.327.564.483.852.193.359.379.729.565 1.098l.176.349.24.468c.147.286.296.572.436.863.163.34.319.693.476 1.046l.197.442.217.477c.133.29.266.58.391.876.148.352.285.706.422 1.061l.189.485.185.463c.119.3.239.599.351.902.139.379.264.759.389 1.14l.153.461.173.507c.1.291.201.582.293.878.121.39.23.79.341 1.191l.128.462.146.505c.085.293.171.585.247.882.104.41.196.821.288 1.232l.112.499c.041.184.086.37.13.558.064.27.13.542.186.815.085.419.157.846.23 1.272l.095.545c.031.18.064.362.099.546.05.265.099.53.14.797.071.472.129.952.186 1.434l.057.464.07.544c.035.257.07.515.097.774.059.578.098 1.169.137 1.759l.025.375c.012.178.027.357.043.537.017.191.033.383.043.576.056 1.109.084 2.22.084 3.303 0 35.562-28.932 64.492-64.494 64.492h-.646a34.552 34.552 0 0 0-2.85.126l-.096.008c-.661.056-1.3.128-1.917.215-.258.035-.527.08-.798.125a32.58 32.58 0 0 0-2.679.554c-.267.067-.516.136-.763.204a34.12 34.12 0 0 0-14.061 7.715c-6.85-5.79-15.43-8.947-24.464-8.947H137.759c-7.712 0-14.396 4.959-16.63 12.34-2.234 7.382.576 15.215 6.993 19.491 5.451 3.636 24.036 12.148 49.723 22.775.194.086.39.166.589.242 45.515 18.808 120.017 46.773 138.818 46.773 6.477 0 12.63-2.219 17.587-6.295a34.422 34.422 0 0 0 19.811 6.295h39.08c112.79 0 204.551-91.762 204.551-204.552-.002-112.665-91.658-204.41-204.321-204.543l-41.858-1.541c-2.518-8.851-7.783-16.833-14.997-22.669a44.874 44.874 0 0 0-28.148-9.967zm0 64.947c-11.082 0-20.099-9.016-20.099-20.099 0-11.081 9.016-20.096 20.099-20.096 10.293 0 19.006 7.954 19.984 18.17-.064.445-.102.847-.115 1.242-.028.753.018 1.527.136 2.301-.833 10.391-9.556 18.482-20.005 18.482zm0 24.753a44.908 44.908 0 0 0 28.082-9.909c7.156-5.767 12.407-13.648 14.968-22.395l29.345 1.08v49.02c0 30.467-11.473 59.364-32.329 81.478a179.02 179.02 0 0 1-36.632 3.782c-42.191 0-83.15-14.688-115.332-41.358l-45.262-37.511a12.484 12.484 0 0 0-1.751-1.213l-2.724-1.557h107.717a6.113 6.113 0 0 1 6.106 6.107 6.113 6.113 0 0 1-6.106 6.106h-12.195c-6.825 0-12.377 5.552-12.377 12.376 0 6.825 5.552 12.377 12.377 12.377h12.195c17.016 0 30.859-13.843 30.859-30.859 0-17.016-13.844-30.859-30.859-30.859H104.005l-48.022-27.441h210.396c6.035 18.232 23.223 30.776 42.578 30.776zM379.223 390.5c17.602-24.416 26.88-53.253 26.88-83.695v-48.152c44.8 3.059 86.496 22.65 117.711 55.385 32.058 33.617 49.712 77.652 49.712 123.994.001 24.232-4.76 47.754-14.149 69.915-9.067 21.402-22.045 40.635-38.571 57.16-16.526 16.526-35.758 29.504-57.161 38.572-22.161 9.39-45.684 14.15-69.915 14.15h-39.08c-5.311 0-9.631-4.32-9.631-9.631v-32.857c0-1.279.249-2.523.739-3.698l.047-.11a9.3 9.3 0 0 1 .203-.441l.067-.07.162-.367a9.629 9.629 0 0 1 6.421-4.734l.148-.027c.219-.042.455-.078.719-.109l.108-.013.106-.013a9.97 9.97 0 0 1 .908-.048h.646c25.969 0 50.172-11.08 67.173-30.575 9.229 21.689 24.383 39.996 44.066 53.168a12.328 12.328 0 0 0 6.874 2.092c4.145 0 7.992-2.055 10.294-5.495a12.298 12.298 0 0 0 1.854-9.288 12.29 12.29 0 0 0-5.258-7.88c-17.15-11.475-29.946-27.789-37.004-47.18l-4.552-12.505a88.534 88.534 0 0 0 3.504-11.548c15.98 7.518 33.664 11.476 51.39 11.476 17.031 0 33.468-3.494 48.854-10.386a12.298 12.298 0 0 0 6.505-6.886 12.288 12.288 0 0 0-.27-9.469 12.399 12.399 0 0 0-11.299-7.321c-1.749 0-3.45.365-5.056 1.086-12.197 5.462-25.232 8.233-38.738 8.233-17.511 0-34.548-4.727-49.373-13.682a88.802 88.802 0 0 0-13.44-40.546c20.096-3.589 39.354-11.627 55.962-23.393 18.021-12.766 32.954-29.955 43.187-49.707a12.295 12.295 0 0 0 .807-9.438 12.295 12.295 0 0 0-6.104-7.243 12.426 12.426 0 0 0-5.688-1.39 12.339 12.339 0 0 0-10.995 6.688c-9.457 18.256-23.6 33.633-40.897 44.467-15.176 9.504-32.438 15.301-50.322 16.948a12.325 12.325 0 0 0 1.655-4.89 12.29 12.29 0 0 0-2.573-9.116 12.311 12.311 0 0 0-9.724-4.712c-2.764 0-5.484.944-7.659 2.659l-6.589 5.197a88.393 88.393 0 0 0-12.654-4.575zM170.432 565.714h136.585c7.305 0 13.248 5.942 13.248 13.247v35.855a3.018 3.018 0 0 1-3.015 3.014c-7.085 0-32.816-7.971-68.677-21.183h50.692c6.824 0 12.376-5.553 12.376-12.377s-5.552-12.376-12.376-12.376H185.141a1204.267 1204.267 0 0 1-14.709-6.18z"/></svg>