<?xml version="1.0" encoding="utf-8"?>
<!-- Generator: Adobe Illustrator 21.1.0, SVG Export Plug-In . SVG Version: 6.00 Build 0)  -->
<svg version="1.1" xmlns="http://www.w3.org/2000/svg" xmlns:xlink="http://www.w3.org/1999/xlink" x="0px" y="0px"
	 viewBox="0 0 60 60" style="enable-background:new 0 0 60 60;" xml:space="preserve">
<style type="text/css">
	.st0{fill:#FFFFFF;}
	.st1{font-family:'Roboto-Bold';}
	.st2{font-size:24px;}
	.st3{font-size:10px;}
</style>
<g id="Слой_2">
	<circle class="st0" cx="30" cy="30" r="28.7"/>
</g>
<g id="Capa_1">
	<g>
		<path d="M9.8,29.2C9.6,29,9.3,28.9,9,28.9H8c-0.6,0-1,0.4-1,1c0,0.3,0.1,0.6,0.4,0.8C7.5,30.9,7.8,31,8.1,31h1c0.6,0,1-0.4,1-1
			C10.1,29.7,10,29.4,9.8,29.2z"/>
		<path d="M45.7,44.1c-0.4-0.4-1-0.4-1.4,0c-0.2,0.2-0.3,0.5-0.3,0.7s0.1,0.5,0.3,0.7l0.7,0.7c0.4,0.4,1,0.4,1.4,0s0.4-1,0-1.4
			L45.7,44.1z"/>
		<path d="M59.9,32.4c0-0.1,0-0.3,0-0.4c0-0.7,0.1-1.3,0.1-2C60,13.5,46.5,0,30,0S0,13.5,0,30c0,0.8,0,1.5,0.1,2.2
			c0,0.1,0,0.2,0,0.4C1.4,47.1,13,58.7,27.6,59.9c0.1,0,0.3,0,0.4,0c0.7,0,1.3,0.1,2,0.1c0.8,0,1.5,0,2.2-0.1c0.1,0,0.2,0,0.4,0
			C47.1,58.6,58.7,47,59.9,32.4z M3.1,37.9C3.1,37.9,3.1,37.9,3.1,37.9c-0.5-1.9-0.9-3.8-1.1-5.7c0-0.1,0-0.2,0-0.3
			C2,31.2,2,30.6,2,30C2,14.6,14.6,2,30,2s28,12.6,28,28c0,0.6,0,1.1-0.1,1.7c0,0.1,0,0.2,0,0.3c0,0.5-0.1,1-0.1,1.5c0,0,0,0,0,0.1
			c-0.1,1.1-0.4,2.3-0.6,3.4c0,0,0,0,0,0c-2.4,9.6-9.8,17.2-19.2,20c0,0,0,0,0,0c-1.9,0.5-3.8,0.9-5.7,1.1c-0.1,0-0.2,0-0.3,0
			C31.2,58,30.6,58,30,58c-0.6,0-1.1,0-1.7-0.1c-0.1,0-0.2,0-0.3,0c-0.5,0-1-0.1-1.5-0.1c0,0,0,0-0.1,0c-1.1-0.1-2.3-0.4-3.4-0.6
			c0,0,0,0,0,0C13.6,54.7,5.9,47.3,3.1,37.9z"/>
		<path d="M29.4,9.6c0.2,0.2,0.4,0.4,0.8,0.4c0.6,0,1-0.4,1-1V8c0-0.3-0.1-0.6-0.4-0.8C30.6,7,30.3,6.9,30,6.9c-0.6,0-1,0.4-1,1v1
			C29,9.2,29.1,9.5,29.4,9.6z"/>
		<path d="M29.4,52.6c0.2,0.2,0.4,0.4,0.8,0.4c0.6,0,1-0.4,1-1v-1c0-0.3-0.1-0.6-0.4-0.8c-0.2-0.2-0.4-0.4-0.8-0.4c-0.6,0-1,0.4-1,1
			v1C29,52.2,29.1,52.5,29.4,52.6z"/>
		<path d="M50.4,30.6c0.2,0.2,0.4,0.4,0.8,0.4h1c0.6,0,1-0.4,1-1c0-0.3-0.1-0.6-0.4-0.8c-0.2-0.2-0.4-0.4-0.8-0.4h-1
			c-0.6,0-1,0.4-1,1C50,30.2,50.1,30.5,50.4,30.6z"/>
		<path d="M44.2,15.8C44.2,15.8,44.2,15.8,44.2,15.8c0.4,0.5,1.1,0.5,1.5,0.1l0.7-0.7c0.4-0.4,0.4-1,0-1.4c0,0-0.1,0-0.1,0
			c0,0,0-0.1,0-0.1c-0.4-0.4-1-0.4-1.4,0l-0.7,0.7C43.8,14.7,43.8,15.3,44.2,15.8C44.2,15.8,44.2,15.8,44.2,15.8z"/>
		<path d="M14.4,44l-0.7,0.7c-0.4,0.4-0.4,1,0,1.4c0.2,0.2,0.5,0.3,0.7,0.3c0.3,0,0.5-0.1,0.7-0.3l0.7-0.7c0.4-0.4,0.4-1,0-1.4
			C15.5,43.6,14.8,43.6,14.4,44z"/>
		<path d="M13.9,15.1C13.9,15.1,13.9,15.2,13.9,15.1l0.7,0.7c0.4,0.4,1,0.4,1.4,0c0.4-0.4,0.4-1,0-1.4l-0.1-0.1c0,0,0,0,0,0
			l-0.7-0.7c-0.4-0.4-1-0.4-1.4,0s-0.4,1,0,1.4L13.9,15.1z"/>
	</g>
	<text transform="matrix(1 0 0 1 23.1757 35.375)"><tspan x="0" y="0" class="st1 st2">1</tspan><tspan x="-2.6" y="10" class="st1 st3">мин</tspan></text>
</g>
</svg>
