<?xml version="1.0" encoding="utf-8"?>
<!-- Generator: Adobe Illustrator 21.1.0, SVG Export Plug-In . SVG Version: 6.00 Build 0)  -->
<svg version="1.1" id="Слой_1" xmlns="http://www.w3.org/2000/svg" xmlns:xlink="http://www.w3.org/1999/xlink" x="0px" y="0px"
	 viewBox="0 0 130.4 79.4" style="enable-background:new 0 0 130.4 79.4;" xml:space="preserve">
<style type="text/css">
	.st0{fill:#666666;}
</style>
<g>
	<g>
		<path class="st0" d="M67,79.3c-21.8,0-39.6-17.8-39.6-39.6C27.4,17.9,45.2,0.2,67,0.2s39.6,17.8,39.6,39.6
			C106.5,61.6,88.8,79.3,67,79.3z M67,5.2c-19.1,0-34.6,15.5-34.6,34.6S47.9,74.4,67,74.4s34.6-15.5,34.6-34.6
			C101.5,20.7,86,5.2,67,5.2z"/>
	</g>
</g>
<g>
	<g>
		<path class="st0" d="M67,62.5c-12.6,0-22.8-10.2-22.8-22.8C44.2,27.2,54.4,17,67,17s22.8,10.2,22.8,22.8
			C89.7,52.3,79.5,62.5,67,62.5z M67,22c-9.8,0-17.8,8-17.8,17.8s8,17.8,17.8,17.8s17.8-8,17.8-17.8C84.7,29.9,76.8,22,67,22z"/>
	</g>
</g>
<path class="st0" d="M19.7,9.1c-1.4,0-2.5,1.1-2.5,2.5v13.2c0,2.4-1.5,4.6-3.6,5.5V11.6c0-1.4-1.1-2.5-2.5-2.5s-2.5,1.1-2.5,2.5
	v18.8c-2.1-1-3.6-3.1-3.6-5.5V11.6c0-1.4-1.1-2.5-2.5-2.5S0,10.2,0,11.6v13.2c0,5.2,3.7,9.6,8.6,10.8v32.7c0,1.4,1.1,2.5,2.5,2.5
	s2.5-1.1,2.5-2.5V35.6c4.9-1.1,8.6-5.5,8.6-10.8V11.6C22.2,10.2,21.1,9.1,19.7,9.1z"/>
<g>
	<path class="st0" d="M127,70.8c-1.4,0-2.5-1.1-2.5-2.5V50.1c-5.8-0.7-10.2-5.7-10.2-11.6V20.4c0-6.5,5.3-11.7,11.7-11.7h1
		c1.4,0,2.5,1.1,2.5,2.5v57.1C129.5,69.7,128.4,70.8,127,70.8z M124.5,13.8c-3,0.7-5.2,3.4-5.2,6.6v18.1c0,3.2,2.2,5.9,5.2,6.6V13.8
		z"/>
</g>
</svg>
