<?xml version="1.0" encoding="utf-8"?>
<!-- Generator: Adobe Illustrator 21.1.0, SVG Export Plug-In . SVG Version: 6.00 Build 0)  -->
<svg version="1.1" id="Capa_1" xmlns="http://www.w3.org/2000/svg" xmlns:xlink="http://www.w3.org/1999/xlink" x="0px" y="0px"
	 viewBox="0 0 57 57" style="enable-background:new 0 0 57 57;" xml:space="preserve">
<g>
	<path d="M55.7,55.3l-6-6.2c1.7-1.9,2.8-4.5,2.8-7.2c0-6-4.8-10.8-10.8-10.8S31,35.9,31,41.8s4.8,10.8,10.8,10.8
		c2.4,0,4.7-0.8,6.5-2.2l6,6.3c0.2,0.2,0.5,0.3,0.7,0.3c0.2,0,0.5-0.1,0.7-0.3C56.1,56.3,56.1,55.7,55.7,55.3z M33,41.8
		c0-4.8,3.9-8.8,8.8-8.8s8.8,3.9,8.8,8.8s-3.9,8.8-8.8,8.8S33,46.7,33,41.8z"/>
	<path d="M28,12c-0.6,0-1,0.4-1,1s0.4,1,1,1h18c0.6,0,1-0.4,1-1s-0.4-1-1-1H28z"/>
	<path d="M47,27c0-0.6-0.4-1-1-1H28c-0.6,0-1,0.4-1,1s0.4,1,1,1h18C46.5,28,47,27.6,47,27z"/>
	<path d="M21.6,7.2c-0.4-0.4-1.1-0.3-1.4,0.1l-6.2,7.3l-3.8-2.9C9.7,11.4,9,11.5,8.7,12c-0.3,0.4-0.2,1.1,0.2,1.4l4.6,3.4
		c0.2,0.1,0.4,0.2,0.6,0.2c0.3,0,0.6-0.1,0.8-0.4l6.9-8C22,8.2,22,7.6,21.6,7.2z"/>
	<path d="M21.6,21.2c-0.4-0.4-1.1-0.3-1.4,0.1l-6.2,7.3l-3.8-2.9C9.7,25.4,9,25.5,8.7,26c-0.3,0.4-0.2,1.1,0.2,1.4l4.6,3.4
		c0.2,0.1,0.4,0.2,0.6,0.2c0.3,0,0.6-0.1,0.8-0.4l6.9-8C22,22.2,22,21.6,21.6,21.2z"/>
	<path d="M20.2,36.3l-6.2,7.3l-3.8-2.9C9.7,40.4,9,40.5,8.7,41c-0.3,0.4-0.2,1.1,0.2,1.4l4.6,3.4c0.2,0.1,0.4,0.2,0.6,0.2
		c0.3,0,0.6-0.1,0.8-0.3l6.9-8c0.4-0.4,0.3-1-0.1-1.4C21.2,35.9,20.5,35.9,20.2,36.3z"/>
	<path d="M27,52H13.2C7.6,52,3,47.4,3,41.8V12.2C3,6.6,7.6,2,13.2,2h29.6C48.4,2,53,6.6,53,12.2V33c0,0.6,0.4,1,1,1s1-0.4,1-1V12.2
		C55,5.5,49.5,0,42.8,0H13.2C6.5,0,1,5.5,1,12.2v29.6C1,48.5,6.5,54,13.2,54H27c0.6,0,1-0.4,1-1S27.5,52,27,52z"/>
</g>
</svg>
